<svg width="35" height="35" viewBox="0 0 35 35" fill="none" xmlns="http://www.w3.org/2000/svg">
<path d="M17.4998 5.83333C23.9165 5.83333 29.1665 11.0833 29.1665 17.5C29.1665 23.9167 23.9165 29.1667 17.4998 29.1667C11.0832 29.1667 5.83317 23.9167 5.83317 17.5C5.83317 11.0833 11.0832 5.83333 17.4998 5.83333ZM17.4998 2.91666C9.479 2.91666 2.9165 9.47916 2.9165 17.5C2.9165 25.5208 9.479 32.0833 17.4998 32.0833C25.5207 32.0833 32.0832 25.5208 32.0832 17.5C32.0832 9.47916 25.5207 2.91666 17.4998 2.91666ZM24.7915 24.7917H10.2082V21.875H24.7915V24.7917ZM11.6665 20.4167V16.0417H14.5832V20.4167H11.6665ZM16.0415 20.4167V16.0417H18.9582V20.4167H16.0415ZM20.4165 20.4167V16.0417H23.3332V20.4167H20.4165ZM24.7915 14.5833H10.2082V12.3958L17.4998 8.75L24.7915 12.3958V14.5833Z" fill="#49A35B"/>
</svg>
