<svg width="45" height="45" viewBox="0 0 45 45" fill="none" xmlns="http://www.w3.org/2000/svg">
<path d="M36.5625 10.1953H31.5018L29.0039 6.4459C28.9074 6.3013 28.7767 6.18278 28.6234 6.1009C28.47 6.01902 28.2988 5.97631 28.125 5.97656H16.875C16.7012 5.97631 16.53 6.01902 16.3766 6.1009C16.2233 6.18278 16.0926 6.3013 15.9961 6.4459L13.4965 10.1953H8.4375C7.41186 10.1953 6.42822 10.6027 5.70299 11.328C4.97775 12.0532 4.57031 13.0369 4.57031 14.0625V33.75C4.57031 34.7756 4.97775 35.7593 5.70299 36.4845C6.42822 37.2098 7.41186 37.6172 8.4375 37.6172H36.5625C37.5881 37.6172 38.5718 37.2098 39.297 36.4845C40.0223 35.7593 40.4297 34.7756 40.4297 33.75V14.0625C40.4297 13.0369 40.0223 12.0532 39.297 11.328C38.5718 10.6027 37.5881 10.1953 36.5625 10.1953ZM38.3203 33.75C38.3203 34.2162 38.1351 34.6633 37.8055 34.993C37.4758 35.3226 37.0287 35.5078 36.5625 35.5078H8.4375C7.9713 35.5078 7.52419 35.3226 7.19454 34.993C6.86489 34.6633 6.67969 34.2162 6.67969 33.75V14.0625C6.67969 13.5963 6.86489 13.1492 7.19454 12.8195C7.52419 12.4899 7.9713 12.3047 8.4375 12.3047H14.0625C14.2363 12.3049 14.4075 12.2622 14.5609 12.1804C14.7142 12.0985 14.8449 11.98 14.9414 11.8354L17.4393 8.08594H27.559L30.0586 11.8354C30.1551 11.98 30.2858 12.0985 30.4391 12.1804C30.5925 12.2622 30.7637 12.3049 30.9375 12.3047H36.5625C37.0287 12.3047 37.4758 12.4899 37.8055 12.8195C38.1351 13.1492 38.3203 13.5963 38.3203 14.0625V33.75ZM22.5 15.8203C21.0398 15.8203 19.6124 16.2533 18.3983 17.0645C17.1842 17.8758 16.238 19.0288 15.6792 20.3778C15.1204 21.7269 14.9742 23.2113 15.259 24.6434C15.5439 26.0756 16.2471 27.3911 17.2796 28.4236C18.3121 29.4561 19.6276 30.1592 21.0597 30.4441C22.4918 30.7289 23.9762 30.5827 25.3253 30.024C26.6743 29.4652 27.8274 28.5189 28.6386 27.3048C29.4498 26.0907 29.8828 24.6633 29.8828 23.2031C29.8828 21.2451 29.105 19.3672 27.7204 17.9827C26.3359 16.5981 24.458 15.8203 22.5 15.8203ZM22.5 28.4766C21.457 28.4766 20.4374 28.1673 19.5702 27.5878C18.703 27.0084 18.0271 26.1848 17.628 25.2212C17.2288 24.2576 17.1244 23.1973 17.3279 22.1743C17.5314 21.1514 18.0336 20.2117 18.7711 19.4742C19.5086 18.7367 20.4483 18.2345 21.4712 18.031C22.4942 17.8275 23.5545 17.932 24.5181 18.3311C25.4817 18.7302 26.3053 19.4061 26.8847 20.2734C27.4642 21.1406 27.7734 22.1601 27.7734 23.2031C27.7734 24.6017 27.2178 25.9431 26.2289 26.932C25.2399 27.921 23.8986 28.4766 22.5 28.4766Z" fill="#696969"/>
</svg>
