<?xml version="1.0" encoding="UTF-8"?>
<!DOCTYPE svg PUBLIC "-//W3C//DTD SVG 1.1//EN" "http://www.w3.org/Graphics/SVG/1.1/DTD/svg11.dtd">
<svg xmlns="http://www.w3.org/2000/svg" version="1.1" width="64px" height="64px" style="shape-rendering:geometricPrecision; text-rendering:geometricPrecision; image-rendering:optimizeQuality; fill-rule:evenodd; clip-rule:evenodd" xmlns:xlink="http://www.w3.org/1999/xlink">
<g><path style="opacity:0.642" fill="#e97e66" d="M 16.5,1.5 C 19.6248,0.520558 22.9581,0.187225 26.5,0.5C 26.8333,1.16667 27.1667,1.83333 27.5,2.5C 24.8333,2.5 22.1667,2.5 19.5,2.5C 19.1667,2.5 18.8333,2.5 18.5,2.5C 17.8333,2.16667 17.1667,1.83333 16.5,1.5 Z"/></g>
<g><path style="opacity:0.637" fill="#f18a5f" d="M 26.5,0.5 C 29.8333,0.5 33.1667,0.5 36.5,0.5C 36.8333,1.16667 37.1667,1.83333 37.5,2.5C 34.1667,2.5 30.8333,2.5 27.5,2.5C 27.1667,1.83333 26.8333,1.16667 26.5,0.5 Z"/></g>
<g><path style="opacity:0.683" fill="#f89759" d="M 36.5,0.5 C 48.5,-2.16667 53.1667,2.5 50.5,14.5C 49.8333,14.1667 49.1667,13.8333 48.5,13.5C 48.6641,10.8127 48.4974,8.14603 48,5.5C 47.5065,7.13414 47.3398,8.80081 47.5,10.5C 45.9397,8.84386 44.9397,6.84386 44.5,4.5C 44.9175,3.77842 45.5842,3.27842 46.5,3C 43.5184,2.50204 40.5184,2.33537 37.5,2.5C 37.1667,1.83333 36.8333,1.16667 36.5,0.5 Z"/></g>
<g><path style="opacity:0.732" fill="#e2716d" d="M 16.5,1.5 C 17.1667,1.83333 17.8333,2.16667 18.5,2.5C 18.6602,4.19919 18.4935,5.86586 18,7.5C 17.6174,6.94404 17.1174,6.61071 16.5,6.5C 16.631,5.76109 16.4643,5.09442 16,4.5C 14.9609,5.7101 13.7942,6.7101 12.5,7.5C 12.5,6.83333 12.1667,6.5 11.5,6.5C 12.8333,4.5 14.5,2.83333 16.5,1.5 Z"/></g>
<g><path style="opacity:0.257" fill="#e16d6e" d="M 18.5,2.5 C 18.8333,2.5 19.1667,2.5 19.5,2.5C 19.7359,5.60853 19.4025,8.60853 18.5,11.5C 17.5084,11.6716 16.8417,11.3382 16.5,10.5C 16.5,9.16667 16.5,7.83333 16.5,6.5C 17.1174,6.61071 17.6174,6.94404 18,7.5C 18.4935,5.86586 18.6602,4.19919 18.5,2.5 Z"/></g>
<g><path style="opacity:0.572" fill="#db6673" d="M 11.5,10.5 C 13.1667,10.5 14.8333,10.5 16.5,10.5C 16.8417,11.3382 17.5084,11.6716 18.5,11.5C 16.8984,13.0739 14.8984,13.7406 12.5,13.5C 12.4431,12.391 12.1098,11.391 11.5,10.5 Z"/></g>
<g><path style="opacity:1" fill="#d86276" d="M 11.5,6.5 C 12.1667,6.5 12.5,6.83333 12.5,7.5C 12.0472,8.45837 11.3805,9.2917 10.5,10C 10.7284,10.3988 11.0618,10.5654 11.5,10.5C 12.1098,11.391 12.4431,12.391 12.5,13.5C 12.1667,13.5 11.8333,13.5 11.5,13.5C 9.97237,12.6908 8.3057,12.0241 6.5,11.5C 7.83333,9.5 9.5,7.83333 11.5,6.5 Z"/></g>
<g><path style="opacity:0.622" fill="#f68d5d" d="M 44.5,4.5 C 44.9397,6.84386 45.9397,8.84386 47.5,10.5C 47.762,11.9778 47.4287,13.3112 46.5,14.5C 45.914,14.2907 45.414,13.9574 45,13.5C 44.502,10.5184 44.3354,7.51838 44.5,4.5 Z"/></g>
<g><path style="opacity:0.645" fill="#d2567c" d="M 6.5,11.5 C 8.3057,12.0241 9.97237,12.6908 11.5,13.5C 10.5,13.5 9.5,13.5 8.5,13.5C 8.5,16.1667 8.5,18.8333 8.5,21.5C 7.83333,21.1667 7.16667,20.8333 6.5,20.5C 6.5,17.5 6.5,14.5 6.5,11.5 Z"/></g>
<g><path style="opacity:0.681" fill="#db6673" d="M 23.5,16.5 C 23.5,17.1667 23.5,17.8333 23.5,18.5C 14.1667,17.8333 14.1667,17.1667 23.5,16.5 Z"/></g>
<g><path style="opacity:0.655" fill="#e5766b" d="M 23.5,16.5 C 29.1764,16.3339 34.8431,16.5006 40.5,17C 35.0187,18.4494 29.352,18.9494 23.5,18.5C 23.5,17.8333 23.5,17.1667 23.5,16.5 Z"/></g>
<g><path style="opacity:0.742" fill="#eb885f" d="M 45.5,15.5 C 46.5862,15.62 47.2528,16.2867 47.5,17.5C 46.6964,19.9573 45.6964,19.9573 44.5,17.5C 44.8627,16.8165 45.1961,16.1499 45.5,15.5 Z"/></g>
<g><path style="opacity:0.67" fill="#ef8860" d="M 48.5,13.5 C 49.1667,13.8333 49.8333,14.1667 50.5,14.5C 50.5,17.8333 50.5,21.1667 50.5,24.5C 49.8333,24.1667 49.1667,23.8333 48.5,23.5C 48.5,20.1667 48.5,16.8333 48.5,13.5 Z"/></g>
<g><path style="opacity:0.483" fill="#e06b6d" d="M 25.5,24.5 C 30.5111,24.3341 35.5111,24.5007 40.5,25C 36.3654,26.4308 32.032,26.9308 27.5,26.5C 26.8333,25.8333 26.1667,25.1667 25.5,24.5 Z"/></g>
<g><path style="opacity:0.333" fill="#d85f77" d="M 25.5,24.5 C 26.1667,25.1667 26.8333,25.8333 27.5,26.5C 23.774,26.8226 20.1073,26.4892 16.5,25.5C 19.4281,24.5159 22.4281,24.1826 25.5,24.5 Z"/></g>
<g><path style="opacity:0.645" fill="#ca4983" d="M 6.5,20.5 C 7.16667,20.8333 7.83333,21.1667 8.5,21.5C 8.5,24.8333 8.5,28.1667 8.5,31.5C 7.83333,31.5 7.16667,31.5 6.5,31.5C 6.5,27.8333 6.5,24.1667 6.5,20.5 Z"/></g>
<g><path style="opacity:0.645" fill="#e87b67" d="M 48.5,23.5 C 49.1667,23.8333 49.8333,24.1667 50.5,24.5C 50.5,28.1667 50.5,31.8333 50.5,35.5C 49.8333,34.8333 49.1667,34.1667 48.5,33.5C 48.5,30.1667 48.5,26.8333 48.5,23.5 Z"/></g>
<g><path style="opacity:0.381" fill="#d1547f" d="M 23.5,31.5 C 23.7822,32.7777 24.4489,33.7777 25.5,34.5C 22.5,34.5 19.5,34.5 16.5,34.5C 16.5,33.5 16.5,32.5 16.5,31.5C 18.8333,31.5 21.1667,31.5 23.5,31.5 Z"/></g>
<g><path style="opacity:0.307" fill="#d85f78" d="M 23.5,31.5 C 26.8333,31.5 30.1667,31.5 33.5,31.5C 33.7822,32.7777 34.4489,33.7777 35.5,34.5C 32.1667,34.5 28.8333,34.5 25.5,34.5C 24.4489,33.7777 23.7822,32.7777 23.5,31.5 Z"/></g>
<g><path style="opacity:0.988" fill="#df646b" d="M 33.5,31.5 C 36.0728,31.1485 38.4062,31.6485 40.5,33C 39.0953,34.2692 37.4286,34.7692 35.5,34.5C 34.4489,33.7777 33.7822,32.7777 33.5,31.5 Z"/></g>
<g><path style="opacity:0.689" fill="#c43e8a" d="M 6.5,31.5 C 7.16667,31.5 7.83333,31.5 8.5,31.5C 8.5,34.5 8.5,37.5 8.5,40.5C 7.83333,40.5 7.16667,40.5 6.5,40.5C 6.5,37.5 6.5,34.5 6.5,31.5 Z"/></g>
<g><path style="opacity:0.836" fill="#df6a6f" d="M 48.5,38.5 C 49.4013,39.2905 50.0679,40.2905 50.5,41.5C 47.2356,40.6758 43.9023,40.3424 40.5,40.5C 40.1583,39.6618 39.4916,39.3284 38.5,39.5C 41.6022,37.4306 44.9356,37.0973 48.5,38.5 Z"/></g>
<g><path style="opacity:0.778" fill="#cd4e81" d="M 16.5,39.5 C 21.8746,39.1718 27.2079,39.5052 32.5,40.5C 29.8333,40.8333 27.1667,41.1667 24.5,41.5C 21.4098,41.4783 18.7432,40.8117 16.5,39.5 Z"/></g>
<g><path style="opacity:0.688" fill="#e36e6c" d="M 48.5,33.5 C 49.1667,34.1667 49.8333,34.8333 50.5,35.5C 50.0283,38.3579 51.0283,40.3579 53.5,41.5C 52.6618,41.8417 52.3284,42.5084 52.5,43.5C 51.5,43.1667 50.8333,42.5 50.5,41.5C 50.0679,40.2905 49.4013,39.2905 48.5,38.5C 48.5,36.8333 48.5,35.1667 48.5,33.5 Z"/></g>
<g><path style="opacity:0.608" fill="#d5597b" d="M 38.5,39.5 C 39.4916,39.3284 40.1583,39.6618 40.5,40.5C 37.8103,42.1935 35.8103,44.5268 34.5,47.5C 33.8333,47.1667 33.1667,46.8333 32.5,46.5C 33.0922,42.9111 35.0922,40.5778 38.5,39.5 Z"/></g>
<g><path style="opacity:0.659" fill="#db5f74" d="M 45.5,50.5 C 44.4739,49.147 43.1405,48.147 41.5,47.5C 42.3143,45.7274 43.6476,45.2274 45.5,46C 47.019,47.3513 48.3523,48.8513 49.5,50.5C 47.9767,50.7928 46.6434,50.7928 45.5,50.5 Z"/></g>
<g><path style="opacity:0.769" fill="#e66561" d="M 53.5,41.5 C 55.2927,43.4261 56.2927,45.7594 56.5,48.5C 55.8333,48.1667 55.1667,47.8333 54.5,47.5C 53.3263,46.4863 52.6596,45.153 52.5,43.5C 52.3284,42.5084 52.6618,41.8417 53.5,41.5 Z"/></g>
<g><path style="opacity:0.647" fill="#bb3092" d="M 6.5,40.5 C 7.16667,40.5 7.83333,40.5 8.5,40.5C 8.33499,43.8499 8.50166,47.1832 9,50.5C 11.1354,52.2785 13.6354,52.9452 16.5,52.5C 16.5,53.1667 16.5,53.8333 16.5,54.5C 13.0703,54.8935 9.90361,54.2268 7,52.5C 6.50115,48.5138 6.33449,44.5138 6.5,40.5 Z"/></g>
<g><path style="opacity:0.697" fill="#cd4d82" d="M 32.5,46.5 C 33.1667,46.8333 33.8333,47.1667 34.5,47.5C 34.5,49.8333 34.5,52.1667 34.5,54.5C 33.7777,53.4489 32.7777,52.7822 31.5,52.5C 31.3253,50.3792 31.6586,48.3792 32.5,46.5 Z"/></g>
<g><path style="opacity:0.715" fill="#d45779" d="M 41.5,47.5 C 43.1405,48.147 44.4739,49.147 45.5,50.5C 44.8004,60.8294 43.967,60.4961 43,49.5C 41.8145,51.5593 40.6479,51.726 39.5,50C 39.6387,48.699 40.3054,47.8656 41.5,47.5 Z"/></g>
<g><path style="opacity:0.603" fill="#dc6573" d="M 54.5,47.5 C 55.1667,47.8333 55.8333,48.1667 56.5,48.5C 56.6633,50.8568 56.4966,53.1902 56,55.5C 55.6232,56.9423 54.7899,57.9423 53.5,58.5C 52.8333,58.1667 52.1667,57.8333 51.5,57.5C 53.9784,54.6709 54.9784,51.3375 54.5,47.5 Z"/></g>
<g><path style="opacity:0.642" fill="#c23a8c" d="M 16.5,52.5 C 19.1667,52.5 21.8333,52.5 24.5,52.5C 24.8333,53.1667 25.1667,53.8333 25.5,54.5C 22.5,54.5 19.5,54.5 16.5,54.5C 16.5,53.8333 16.5,53.1667 16.5,52.5 Z"/></g>
<g><path style="opacity:0.685" fill="#ca4689" d="M 24.5,52.5 C 26.8333,52.5 29.1667,52.5 31.5,52.5C 32.7777,52.7822 33.7777,53.4489 34.5,54.5C 36.2344,57.2003 38.5677,59.2003 41.5,60.5C 41.1667,61.1667 40.8333,61.8333 40.5,62.5C 37.2358,60.9059 34.5691,58.5725 32.5,55.5C 30.2573,54.5258 27.924,54.1924 25.5,54.5C 25.1667,53.8333 24.8333,53.1667 24.5,52.5 Z"/></g>
<g><path style="opacity:0.713" fill="#d0537f" d="M 51.5,57.5 C 52.1667,57.8333 52.8333,58.1667 53.5,58.5C 52.657,60.1733 51.3237,61.34 49.5,62C 46.5184,62.498 43.5184,62.6646 40.5,62.5C 40.8333,61.8333 41.1667,61.1667 41.5,60.5C 45.3375,60.9784 48.6709,59.9784 51.5,57.5 Z"/></g>
</svg>
