<svg width="45" height="45" viewBox="0 0 45 45" fill="none" xmlns="http://www.w3.org/2000/svg">
<path d="M39.8437 14.0739V26.462C39.8442 27.4383 39.6523 28.4051 39.2789 29.3071C38.9056 30.2092 38.3582 31.0289 37.668 31.7193C36.9777 32.4097 36.1582 32.9574 35.2562 33.3309C34.3542 33.7045 33.3874 33.8966 32.4112 33.8964H27.4555L23.368 37.9839C23.2566 38.1019 23.1222 38.196 22.973 38.2603C22.8239 38.3246 22.6633 38.3578 22.5009 38.3578C22.3385 38.3578 22.1778 38.3246 22.0287 38.2603C21.8796 38.196 21.7451 38.1019 21.6337 37.9839L17.5462 33.8964H12.5868C11.6106 33.8964 10.6439 33.704 9.74207 33.3304C8.84019 32.9568 8.02076 32.4091 7.33056 31.7188C6.64037 31.0284 6.09293 30.2088 5.71952 29.3069C5.34612 28.4049 5.15405 27.4382 5.1543 26.462V14.0739C5.1543 12.1026 5.93736 10.2122 7.33123 8.81829C8.72509 7.42442 10.6156 6.64136 12.5868 6.64136H32.4093C34.3805 6.64136 36.271 7.42442 37.6649 8.81829C39.0587 10.2122 39.8437 12.1026 39.8437 14.0739Z" stroke="#49A35B" stroke-width="2.8125" stroke-linecap="round" stroke-linejoin="round"/>
<path d="M17.8857 15.3469C18.3404 14.3553 19.1128 13.5436 20.0807 13.0403C21.0485 12.537 22.1566 12.3709 23.2295 12.5682C23.9645 12.6809 24.6629 12.9643 25.2686 13.3958C25.8743 13.8272 26.3703 14.3947 26.717 15.0525C26.9669 15.5789 27.1025 16.1522 27.1149 16.7347C27.1274 17.3172 27.0163 17.8957 26.7891 18.4322C26.5618 18.9687 26.2235 19.451 25.7965 19.8474C25.3694 20.2438 24.8633 20.5452 24.3114 20.7319C23.7489 20.9456 23.2624 21.3211 22.913 21.8109C22.5637 22.3007 22.3671 22.8831 22.3482 23.4844V24.6207" stroke="#49A35B" stroke-width="2.8125" stroke-miterlimit="10" stroke-linecap="round"/>
<path d="M22.3086 29.5613H22.3198" stroke="#49A35B" stroke-width="3.75" stroke-linecap="round" stroke-linejoin="round"/>
</svg>
