<?xml version="1.0" encoding="UTF-8"?>
<!DOCTYPE svg PUBLIC "-//W3C//DTD SVG 1.1//EN" "http://www.w3.org/Graphics/SVG/1.1/DTD/svg11.dtd">
<svg xmlns="http://www.w3.org/2000/svg" version="1.1" width="512px" height="512px" style="shape-rendering:geometricPrecision; text-rendering:geometricPrecision; image-rendering:optimizeQuality; fill-rule:evenodd; clip-rule:evenodd" xmlns:xlink="http://www.w3.org/1999/xlink">
<g><path style="opacity:0.992" fill="#f6375d" d="M 72.5,104.5 C 81.1213,124.674 96.1213,137.674 117.5,143.5C 104.089,155.976 88.0889,161.976 69.5,161.5C 53.9553,161.391 39.9553,156.724 27.5,147.5C 12.8961,136.221 3.56277,121.555 -0.5,103.5C -0.5,95.1667 -0.5,86.8333 -0.5,78.5C 8.52167,42.9888 31.355,23.3221 68,19.5C 77.2414,19.7446 80.9081,24.4113 79,33.5C 63.6491,56.0664 61.4825,79.733 72.5,104.5 Z"/></g>
<g><path style="opacity:0.992" fill="#f6375c" d="M 511.5,78.5 C 511.5,86.5 511.5,94.5 511.5,102.5C 507.896,121.096 498.563,136.096 483.5,147.5C 470.982,156.339 456.982,161.006 441.5,161.5C 422.911,161.976 406.911,155.976 393.5,143.5C 409.46,138.727 422.627,129.727 433,116.5C 435.656,112.856 437.489,108.856 438.5,104.5C 449.518,79.733 447.351,56.0664 432,33.5C 430.092,24.4113 433.759,19.7446 443,19.5C 479.645,23.3221 502.478,42.9888 511.5,78.5 Z"/></g>
<g><path style="opacity:0.981" fill="#fe5e7e" d="M 117.5,143.5 C 96.1213,137.674 81.1213,124.674 72.5,104.5C 94.0018,94.5329 107.168,77.8663 112,54.5C 112.749,49.511 113.415,44.511 114,39.5C 115.726,38.4238 117.559,38.2571 119.5,39C 144.81,67.5131 147.977,98.3464 129,131.5C 125.664,136.002 121.831,140.002 117.5,143.5 Z"/></g>
<g><path style="opacity:0.981" fill="#ff5e7e" d="M 438.5,104.5 C 437.489,108.856 435.656,112.856 433,116.5C 422.627,129.727 409.46,138.727 393.5,143.5C 374.172,125.686 366.672,103.686 371,77.5C 374.042,62.58 380.875,49.7467 391.5,39C 393.441,38.2571 395.274,38.4238 397,39.5C 397.796,64.2612 407.963,84.0945 427.5,99C 430.91,101.372 434.577,103.205 438.5,104.5 Z"/></g>
<g><path style="opacity:0.996" fill="#fe5f7e" d="M 409.5,216.5 C 415.311,229.609 420.311,242.942 424.5,256.5C 427.146,267.67 428.48,279.003 428.5,290.5C 428.965,304.776 427.299,318.776 423.5,332.5C 420.778,342.609 416.445,351.942 410.5,360.5C 401.785,371.215 392.119,380.882 381.5,389.5C 372.678,394.911 363.344,399.244 353.5,402.5C 346.83,403.556 340.163,404.723 333.5,406C 326.321,406.171 319.321,406.671 312.5,407.5C 274.5,407.5 236.5,407.5 198.5,407.5C 191.011,406.671 183.344,406.171 175.5,406C 169.557,404.519 163.557,403.352 157.5,402.5C 147.656,399.244 138.322,394.911 129.5,389.5C 118.881,380.882 109.215,371.215 100.5,360.5C 94.5553,351.942 90.2219,342.609 87.5,332.5C 83.15,318.501 81.4834,304.168 82.5,289.5C 82.4799,278.827 83.8133,268.327 86.5,258C 86.2568,257.098 85.9234,256.265 85.5,255.5C 86.4972,255.53 87.1639,255.03 87.5,254C 91.2893,241.127 95.956,228.627 101.5,216.5C 135.567,157.445 186.9,126.445 255.5,123.5C 324.1,126.445 375.433,157.445 409.5,216.5 Z"/></g>
<g><path style="opacity:0.981" fill="#fe5e7e" d="M 27.5,147.5 C 39.9553,156.724 53.9553,161.391 69.5,161.5C 71.3826,172.482 75.0493,182.815 80.5,192.5C 72.5409,205.752 66.2076,219.752 61.5,234.5C 39.6033,209.84 28.27,180.84 27.5,147.5 Z"/></g>
<g><path style="opacity:0.981" fill="#ff5e7e" d="M 483.5,147.5 C 482.73,180.84 471.397,209.84 449.5,234.5C 444.792,219.752 438.459,205.752 430.5,192.5C 435.58,182.673 439.246,172.339 441.5,161.5C 456.982,161.006 470.982,156.339 483.5,147.5 Z"/></g>
<g><path style="opacity:1" fill="#f6375d" d="M 80.5,192.5 C 86.009,201.684 93.009,209.684 101.5,216.5C 95.956,228.627 91.2893,241.127 87.5,254C 87.1639,255.03 86.4972,255.53 85.5,255.5C 76.2903,249.962 68.2903,242.962 61.5,234.5C 66.2076,219.752 72.5409,205.752 80.5,192.5 Z"/></g>
<g><path style="opacity:1" fill="#f6385d" d="M 430.5,192.5 C 438.459,205.752 444.792,219.752 449.5,234.5C 442.378,243.293 434.045,250.627 424.5,256.5C 420.311,242.942 415.311,229.609 409.5,216.5C 417.991,209.684 424.991,201.684 430.5,192.5 Z"/></g>
<g><path style="opacity:1" fill="#483d4e" d="M 186.5,262.5 C 180.165,266.162 175.832,264.495 173.5,257.5C 173.334,251.491 173.501,245.491 174,239.5C 179.43,232.716 184.43,233.05 189,240.5C 189.667,246.5 189.667,252.5 189,258.5C 188.338,259.984 187.504,261.317 186.5,262.5 Z"/></g>
<g><path style="opacity:1" fill="#493d4f" d="M 337.5,257.5 C 334.873,263.99 330.54,265.656 324.5,262.5C 323.496,261.317 322.662,259.984 322,258.5C 321.333,252.167 321.333,245.833 322,239.5C 326.916,232.941 331.916,232.941 337,239.5C 337.499,245.491 337.666,251.491 337.5,257.5 Z"/></g>
<g><path style="opacity:1" fill="#453c4d" d="M 233.5,248.5 C 238.213,248.19 241.88,250.023 244.5,254C 255.008,259.378 264.341,257.711 272.5,249C 280.211,248.378 283.378,251.878 282,259.5C 271.109,272.568 257.609,276.068 241.5,270C 237.385,267.552 233.552,264.719 230,261.5C 227.186,255.938 228.352,251.605 233.5,248.5 Z"/></g>
<g><path style="opacity:1" fill="#fea0ab" d="M 173.5,257.5 C 175.832,264.495 180.165,266.162 186.5,262.5C 189.562,266.945 192.395,271.611 195,276.5C 197.125,293.39 189.959,304.224 173.5,309C 156.932,313.626 142.765,309.793 131,297.5C 123.349,284.154 125.515,272.654 137.5,263C 148.63,255.381 160.63,253.548 173.5,257.5 Z"/></g>
<g><path style="opacity:1" fill="#fea0ab" d="M 324.5,262.5 C 330.54,265.656 334.873,263.99 337.5,257.5C 350.257,254.083 362.257,255.916 373.5,263C 385.498,272.625 387.664,284.125 380,297.5C 368.931,309.272 355.431,313.438 339.5,310C 313.82,300.467 308.82,284.633 324.5,262.5 Z"/></g>
<g><path style="opacity:1" fill="#f6385d" d="M 82.5,289.5 C 81.4834,304.168 83.15,318.501 87.5,332.5C 77.6044,336.114 68.271,340.781 59.5,346.5C 54.7192,332.937 52.0525,318.937 51.5,304.5C 61.72,299.223 72.0533,294.223 82.5,289.5 Z"/></g>
<g><path style="opacity:1" fill="#f6385d" d="M 428.5,290.5 C 439.254,294.379 449.587,299.046 459.5,304.5C 458.993,318.224 456.493,331.557 452,344.5C 451.617,345.056 451.117,345.389 450.5,345.5C 441.901,340.368 432.901,336.034 423.5,332.5C 427.299,318.776 428.965,304.776 428.5,290.5 Z"/></g>
<g><path style="opacity:0.975" fill="#ff5e7e" d="M 51.5,304.5 C 52.0525,318.937 54.7192,332.937 59.5,346.5C 51.5167,351.161 43.8501,356.328 36.5,362C 22.4271,368.865 11.9271,365.365 5,351.5C 3.75218,344.785 4.75218,338.452 8,332.5C 21.5948,321.734 36.0948,312.401 51.5,304.5 Z"/></g>
<g><path style="opacity:0.976" fill="#fe5e7e" d="M 459.5,304.5 C 474.541,312.105 488.707,321.105 502,331.5C 508.945,342.68 507.779,352.847 498.5,362C 490.5,366.667 482.5,366.667 474.5,362C 466.608,356.23 458.608,350.73 450.5,345.5C 451.117,345.389 451.617,345.056 452,344.5C 456.493,331.557 458.993,318.224 459.5,304.5 Z"/></g>
<g><path style="opacity:1" fill="#f6375d" d="M 100.5,360.5 C 109.215,371.215 118.881,380.882 129.5,389.5C 124.248,397.668 119.248,406.001 114.5,414.5C 107.45,410.297 100.784,405.464 94.5,400C 90.4727,396.083 86.806,391.916 83.5,387.5C 87.9196,377.649 93.5863,368.649 100.5,360.5 Z"/></g>
<g><path style="opacity:1" fill="#f6375d" d="M 410.5,360.5 C 417.414,368.649 423.08,377.649 427.5,387.5C 422.04,394.794 415.707,401.294 408.5,407C 404.612,409.772 400.612,412.272 396.5,414.5C 391.752,406.001 386.752,397.668 381.5,389.5C 392.119,380.882 401.785,371.215 410.5,360.5 Z"/></g>
<g><path style="opacity:0.975" fill="#ff5e7e" d="M 83.5,387.5 C 86.806,391.916 90.4727,396.083 94.5,400C 100.784,405.464 107.45,410.297 114.5,414.5C 111.104,423.183 107.604,431.849 104,440.5C 98.7542,452.143 89.9209,456.309 77.5,453C 67.0899,448.144 62.9232,439.977 65,428.5C 70.1195,414.269 76.2861,400.602 83.5,387.5 Z"/></g>
<g><path style="opacity:0.974" fill="#ff5e7e" d="M 427.5,387.5 C 434.714,400.602 440.881,414.269 446,428.5C 447.584,443.576 440.918,452.243 426,454.5C 416.772,453.723 410.439,449.056 407,440.5C 403.764,431.699 400.264,423.032 396.5,414.5C 400.612,412.272 404.612,409.772 408.5,407C 415.707,401.294 422.04,394.794 427.5,387.5 Z"/></g>
<g><path style="opacity:1" fill="#f6375d" d="M 157.5,402.5 C 163.557,403.352 169.557,404.519 175.5,406C 183.344,406.171 191.011,406.671 198.5,407.5C 195.961,417.858 193.961,428.191 192.5,438.5C 179.723,438.316 167.056,436.483 154.5,433C 153.748,432.329 153.414,431.496 153.5,430.5C 154.186,421.073 155.519,411.739 157.5,402.5 Z"/></g>
<g><path style="opacity:1" fill="#f6375d" d="M 353.5,402.5 C 355.28,412.183 356.947,421.85 358.5,431.5C 353.673,433.436 348.673,434.936 343.5,436C 334.988,436.562 326.655,437.395 318.5,438.5C 317.039,428.191 315.039,417.858 312.5,407.5C 319.321,406.671 326.321,406.171 333.5,406C 340.163,404.723 346.83,403.556 353.5,402.5 Z"/></g>
<g><path style="opacity:0.978" fill="#fe5e7e" d="M 153.5,430.5 C 153.414,431.496 153.748,432.329 154.5,433C 167.056,436.483 179.723,438.316 192.5,438.5C 192.203,451.899 191.37,465.232 190,478.5C 182.828,491.169 172.661,494.336 159.5,488C 154.761,484.687 151.928,480.187 151,474.5C 150.623,459.623 151.456,444.956 153.5,430.5 Z"/></g>
<g><path style="opacity:0.974" fill="#fe5e7e" d="M 358.5,431.5 C 359.111,442.999 359.778,454.499 360.5,466C 360.902,482.596 352.902,490.929 336.5,491C 329.263,489.432 324.096,485.266 321,478.5C 319.595,465.234 318.762,451.901 318.5,438.5C 326.655,437.395 334.988,436.562 343.5,436C 348.673,434.936 353.673,433.436 358.5,431.5 Z"/></g>
</svg>
