<?xml version="1.0" encoding="UTF-8"?>
<!DOCTYPE svg PUBLIC "-//W3C//DTD SVG 1.1//EN" "http://www.w3.org/Graphics/SVG/1.1/DTD/svg11.dtd">
<svg xmlns="http://www.w3.org/2000/svg" version="1.1" width="512px" height="512px" style="shape-rendering:geometricPrecision; text-rendering:geometricPrecision; image-rendering:optimizeQuality; fill-rule:evenodd; clip-rule:evenodd" xmlns:xlink="http://www.w3.org/1999/xlink">
<g><path style="opacity:0.99" fill="#ff6d7f" d="M 70.5,109.5 C 79.896,125.952 89.0627,142.619 98,159.5C 99.9618,164.656 100.795,169.989 100.5,175.5C 99.2735,187.952 94.2735,198.619 85.5,207.5C 81.9468,210.758 78.2801,213.758 74.5,216.5C 73.8501,216.196 73.1835,215.863 72.5,215.5C 57.4281,222.134 42.4281,222.134 27.5,215.5C 13.3838,208.055 4.05048,196.722 -0.5,181.5C -0.5,173.5 -0.5,165.5 -0.5,157.5C 4.83998,127.656 16.5066,100.49 34.5,76C 45.1247,70.2806 53.6247,72.4473 60,82.5C 62.9771,91.7739 66.4771,100.774 70.5,109.5 Z"/></g>
<g><path style="opacity:0.991" fill="#ff6d7f" d="M 511.5,157.5 C 511.5,165.5 511.5,173.5 511.5,181.5C 507.973,193.365 501.306,203.198 491.5,211C 488.041,212.711 485.041,214.877 482.5,217.5C 482.631,216.761 482.464,216.094 482,215.5C 467.455,222.026 452.955,222.026 438.5,215.5C 437.817,215.863 437.15,216.196 436.5,216.5C 425.991,209.484 418.157,200.151 413,188.5C 411.686,184.246 410.853,179.913 410.5,175.5C 410.205,169.989 411.038,164.656 413,159.5C 421.937,142.619 431.104,125.952 440.5,109.5C 444.539,100.748 448.039,91.7483 451,82.5C 457.375,72.4473 465.875,70.2806 476.5,76C 494.493,100.49 506.16,127.656 511.5,157.5 Z"/></g>
<g><path style="opacity:0.989" fill="#f9475e" d="M 100.5,175.5 C 100.795,169.989 99.9618,164.656 98,159.5C 89.0627,142.619 79.896,125.952 70.5,109.5C 79.4476,104.184 89.1143,100.85 99.5,99.5C 108.192,99.4229 114.025,103.423 117,111.5C 122.434,135.769 116.934,157.102 100.5,175.5 Z"/></g>
<g><path style="opacity:0.986" fill="#f9475e" d="M 440.5,109.5 C 431.104,125.952 421.937,142.619 413,159.5C 411.038,164.656 410.205,169.989 410.5,175.5C 394.066,157.102 388.566,135.769 394,111.5C 396.975,103.423 402.808,99.4229 411.5,99.5C 421.886,100.85 431.552,104.184 440.5,109.5 Z"/></g>
<g><path style="opacity:0.995" fill="#eeecfe" d="M 333.5,203.5 C 320.558,225.135 301.891,232.635 277.5,226C 271.573,223.065 265.906,219.732 260.5,216C 252.973,214.265 246.64,216.265 241.5,222C 214.519,235.09 193.185,228.923 177.5,203.5C 168.621,174.265 178.288,154.098 206.5,143C 221.351,139.502 234.684,142.502 246.5,152C 249.309,153.658 252.309,154.825 255.5,155.5C 258.691,154.825 261.691,153.658 264.5,152C 280.917,139.66 298.251,138.327 316.5,148C 335.533,162.275 341.199,180.775 333.5,203.5 Z"/></g>
<g><path style="opacity:1" fill="#4c5763" d="M 215.5,169.5 C 219.888,168.943 223.055,170.61 225,174.5C 225.667,180.167 225.667,185.833 225,191.5C 222.928,196.143 219.428,197.643 214.5,196C 212.667,195.5 211.5,194.333 211,192.5C 210.333,186.5 210.333,180.5 211,174.5C 212.025,172.313 213.525,170.646 215.5,169.5 Z"/></g>
<g><path style="opacity:1" fill="#4c5762" d="M 290.5,169.5 C 294.888,168.943 298.055,170.61 300,174.5C 300.667,180.5 300.667,186.5 300,192.5C 297.487,196.212 293.987,197.378 289.5,196C 287.951,194.786 286.785,193.286 286,191.5C 285.333,185.833 285.333,180.167 286,174.5C 287.025,172.313 288.525,170.646 290.5,169.5 Z"/></g>
<g><path style="opacity:0.995" fill="#fe6e80" d="M 177.5,203.5 C 193.185,228.923 214.519,235.09 241.5,222C 246.64,216.265 252.973,214.265 260.5,216C 265.906,219.732 271.573,223.065 277.5,226C 301.891,232.635 320.558,225.135 333.5,203.5C 363.767,217.603 384.434,240.436 395.5,272C 401.655,271.096 407.322,268.763 412.5,265C 419.54,259.143 425.207,252.309 429.5,244.5C 430.058,245.79 431.058,246.623 432.5,247C 446.535,251.519 460.869,252.686 475.5,250.5C 466.603,278.563 448.936,299.063 422.5,312C 414.091,315.435 405.424,317.935 396.5,319.5C 392.853,340.114 382.187,355.78 364.5,366.5C 351.214,374.146 337.214,379.812 322.5,383.5C 318.189,384.607 313.856,385.607 309.5,386.5C 307.789,362.895 296.456,345.728 275.5,335C 251.748,326.146 231.582,331.313 215,350.5C 206.57,361.026 202.403,373.026 202.5,386.5C 197.766,385.712 193.1,384.712 188.5,383.5C 173.672,380.093 159.672,374.426 146.5,366.5C 128.813,355.78 118.147,340.114 114.5,319.5C 80.2135,313.287 55.3802,294.62 40,263.5C 37.9208,259.347 36.4208,255.014 35.5,250.5C 50.8694,252.563 65.8694,251.063 80.5,246C 81.056,245.617 81.3893,245.117 81.5,244.5C 87.8766,256.382 97.2099,265.216 109.5,271C 111.447,271.991 113.447,272.325 115.5,272C 126.566,240.436 147.233,217.603 177.5,203.5 Z"/></g>
<g><path style="opacity:1" fill="#f9475e" d="M 27.5,215.5 C 42.4281,222.134 57.4281,222.134 72.5,215.5C 73.1835,215.863 73.8501,216.196 74.5,216.5C 75.5808,226.157 77.9141,235.49 81.5,244.5C 81.3893,245.117 81.056,245.617 80.5,246C 65.8694,251.063 50.8694,252.563 35.5,250.5C 31.321,239.286 28.6543,227.62 27.5,215.5 Z"/></g>
<g><path style="opacity:1" fill="#f9475e" d="M 482.5,217.5 C 482.065,229.017 479.731,240.017 475.5,250.5C 460.869,252.686 446.535,251.519 432.5,247C 431.058,246.623 430.058,245.79 429.5,244.5C 433.086,235.49 435.419,226.157 436.5,216.5C 437.15,216.196 437.817,215.863 438.5,215.5C 452.955,222.026 467.455,222.026 482,215.5C 482.464,216.094 482.631,216.761 482.5,217.5 Z"/></g>
<g><path style="opacity:1" fill="#4d5560" d="M 235.5,250.5 C 240.412,250.224 244.412,252.058 247.5,256C 252.803,259.246 258.137,259.246 263.5,256C 268.282,249.5 273.448,249 279,254.5C 280.297,259.117 279.13,262.95 275.5,266C 260.625,276.677 246.458,275.844 233,263.5C 230.458,258.438 231.292,254.105 235.5,250.5 Z"/></g>
<g><path style="opacity:1" fill="#f9475e" d="M 309.5,386.5 C 273.831,390.489 238.164,390.489 202.5,386.5C 202.403,373.026 206.57,361.026 215,350.5C 231.582,331.313 251.748,326.146 275.5,335C 296.456,345.728 307.789,362.895 309.5,386.5 Z"/></g>
<g><path style="opacity:0.986" fill="#f9475d" d="M 146.5,366.5 C 159.672,374.426 173.672,380.093 188.5,383.5C 182.461,395.789 178.961,408.789 178,422.5C 171.301,436.737 160.468,441.237 145.5,436C 136.751,430.836 132.751,423.169 133.5,413C 134.486,396.545 138.819,381.045 146.5,366.5 Z"/></g>
<g><path style="opacity:0.987" fill="#f9475e" d="M 364.5,366.5 C 373.872,383.653 378.038,401.987 377,421.5C 370.059,437.373 358.559,441.873 342.5,435C 338.182,431.685 335.015,427.519 333,422.5C 332.039,408.789 328.539,395.789 322.5,383.5C 337.214,379.812 351.214,374.146 364.5,366.5 Z"/></g>
</svg>
