<?xml version="1.0" encoding="UTF-8"?>
<!DOCTYPE svg PUBLIC "-//W3C//DTD SVG 1.1//EN" "http://www.w3.org/Graphics/SVG/1.1/DTD/svg11.dtd">
<svg xmlns="http://www.w3.org/2000/svg" version="1.1" width="512px" height="512px" style="shape-rendering:geometricPrecision; text-rendering:geometricPrecision; image-rendering:optimizeQuality; fill-rule:evenodd; clip-rule:evenodd" xmlns:xlink="http://www.w3.org/1999/xlink">
<g><path style="opacity:0.994" fill="#db6382" d="M 77.5,-0.5 C 82.8333,-0.5 88.1667,-0.5 93.5,-0.5C 115.163,2.08141 133.33,11.4147 148,27.5C 151.058,37.459 147.558,43.959 137.5,47C 132.919,50.4384 131.419,54.9384 133,60.5C 136.719,66.6803 136.219,72.3469 131.5,77.5C 124.443,76.7424 117.443,75.5757 110.5,74C 85.6531,70.6134 65.1531,78.4468 49,97.5C 46.1016,100.63 44.2683,104.297 43.5,108.5C 43.6887,113.602 46.3554,115.935 51.5,115.5C 52.8333,115.333 54.1667,115.167 55.5,115C 70.6458,91.6716 91.6458,83.8382 118.5,91.5C 119.726,91.4805 120.726,91.1471 121.5,90.5C 129.396,92.3169 137.396,93.8169 145.5,95C 158.553,99.6022 164.053,108.769 162,122.5C 152.762,143.069 137.596,157.569 116.5,166C 109.957,167.715 103.623,169.881 97.5,172.5C 97.0688,173.293 96.7355,174.127 96.5,175C 98.8792,181.975 101.546,188.809 104.5,195.5C 92.5665,204.76 80.8998,214.426 69.5,224.5C 53.3311,204.493 42.1644,181.827 36,156.5C 15.9631,142.087 3.79644,122.754 -0.5,98.5C -0.5,89.8333 -0.5,81.1667 -0.5,72.5C 9.37883,30.9549 35.3788,6.62153 77.5,-0.5 Z"/></g>
<g><path style="opacity:0.994" fill="#db6382" d="M 417.5,-0.5 C 422.833,-0.5 428.167,-0.5 433.5,-0.5C 475.621,6.62153 501.621,30.9549 511.5,72.5C 511.5,81.1667 511.5,89.8333 511.5,98.5C 507.204,122.754 495.037,142.087 475,156.5C 468.836,181.827 457.669,204.493 441.5,224.5C 430.1,214.426 418.434,204.76 406.5,195.5C 409.454,188.809 412.121,181.975 414.5,175C 414.265,174.127 413.931,173.293 413.5,172.5C 390.052,167.2 370.885,155.2 356,136.5C 345.289,122.803 346.122,109.97 358.5,98C 360.717,96.7246 363.051,95.7246 365.5,95C 373.604,93.8169 381.604,92.3169 389.5,90.5C 390.097,91.1386 390.93,91.472 392,91.5C 418.925,84.138 440.091,91.9714 455.5,115C 458.964,115.817 462.298,115.483 465.5,114C 466.848,112.426 467.514,110.593 467.5,108.5C 459.557,91.069 446.223,79.9023 427.5,75C 411.326,72.642 395.326,73.4754 379.5,77.5C 374.781,72.3469 374.281,66.6803 378,60.5C 379.581,54.9384 378.081,50.4384 373.5,47C 359.676,40.7299 358.01,32.0633 368.5,21C 382.805,9.07017 399.138,1.90351 417.5,-0.5 Z"/></g>
<g><path style="opacity:0.997" fill="#d34477" d="M 131.5,77.5 C 127.645,80.3596 123.812,83.3596 120,86.5C 119.652,88.1398 120.152,89.4732 121.5,90.5C 120.726,91.1471 119.726,91.4805 118.5,91.5C 91.6458,83.8382 70.6458,91.6716 55.5,115C 54.1667,115.167 52.8333,115.333 51.5,115.5C 46.3554,115.935 43.6887,113.602 43.5,108.5C 44.2683,104.297 46.1016,100.63 49,97.5C 65.1531,78.4468 85.6531,70.6134 110.5,74C 117.443,75.5757 124.443,76.7424 131.5,77.5 Z"/></g>
<g><path style="opacity:0.999" fill="#d34477" d="M 389.5,90.5 C 390.848,89.4732 391.348,88.1398 391,86.5C 387.188,83.3596 383.355,80.3596 379.5,77.5C 395.326,73.4754 411.326,72.642 427.5,75C 446.223,79.9023 459.557,91.069 467.5,108.5C 467.514,110.593 466.848,112.426 465.5,114C 462.298,115.483 458.964,115.817 455.5,115C 440.091,91.9714 418.925,84.138 392,91.5C 390.93,91.472 390.097,91.1386 389.5,90.5 Z"/></g>
<g><path style="opacity:0.996" fill="#d34477" d="M 277.5,172.5 C 273.41,177.42 268.743,181.92 263.5,186C 247.332,202.824 233.498,221.324 222,241.5C 197.439,233.038 181.439,216.371 174,191.5C 173.506,189.866 173.34,188.199 173.5,186.5C 207.028,174.327 241.694,169.661 277.5,172.5 Z"/></g>
<g><path style="opacity:0.998" fill="#db6482" d="M 277.5,172.5 C 297.857,174.635 317.523,179.302 336.5,186.5C 334.137,204.721 325.47,219.221 310.5,230C 283.102,247.485 253.769,251.819 222.5,243C 215.633,255.9 210.3,269.4 206.5,283.5C 196.594,277.101 186.594,276.935 176.5,283C 170.933,288.302 168.266,294.802 168.5,302.5C 159.148,303.696 151.648,308.03 146,315.5C 140.515,329.376 144.348,339.876 157.5,347C 172.251,352.88 185.584,350.713 197.5,340.5C 198.925,390.609 214.425,435.942 244,476.5C 253.692,487.689 263.526,498.689 273.5,509.5C 225.229,512.381 179.895,502.381 137.5,479.5C 128.204,473.18 118.87,466.846 109.5,460.5C 96.2488,450.918 84.2488,439.918 73.5,427.5C 67.164,418.825 60.8307,410.158 54.5,401.5C 43.0624,384.955 34.5624,366.955 29,347.5C 27.914,336.263 29.914,325.596 35,315.5C 47.4177,288.276 63.9177,263.942 84.5,242.5C 94.6964,233.477 105.363,224.977 116.5,217C 117.252,216.329 117.586,215.496 117.5,214.5C 125.946,209.104 134.613,203.938 143.5,199C 153.188,193.986 163.188,189.82 173.5,186.5C 173.34,188.199 173.506,189.866 174,191.5C 181.439,216.371 197.439,233.038 222,241.5C 233.498,221.324 247.332,202.824 263.5,186C 268.743,181.92 273.41,177.42 277.5,172.5 Z"/></g>
<g><path style="opacity:0.998" fill="#df85a0" d="M 336.5,186.5 C 342.655,188.164 348.655,190.33 354.5,193C 367.876,199.684 380.876,206.85 393.5,214.5C 393.511,216.017 394.177,217.184 395.5,218C 406.258,225.702 416.591,233.869 426.5,242.5C 439.317,256.484 450.817,271.484 461,287.5C 469.3,301.432 475.966,316.099 481,331.5C 482.557,340.195 481.891,348.861 479,357.5C 472.795,372.912 465.295,387.579 456.5,401.5C 449.457,409.876 442.791,418.543 436.5,427.5C 425.739,439.598 414.073,450.598 401.5,460.5C 392.725,466.395 383.725,472.062 374.5,477.5C 373.702,477.957 373.369,478.624 373.5,479.5C 342.189,496.159 308.855,506.159 273.5,509.5C 263.526,498.689 253.692,487.689 244,476.5C 214.425,435.942 198.925,390.609 197.5,340.5C 204.421,332.233 205.087,323.566 199.5,314.5C 200.268,312.285 200.935,309.952 201.5,307.5C 212.136,307.93 215.636,302.93 212,292.5C 210.338,289.351 208.505,286.351 206.5,283.5C 210.3,269.4 215.633,255.9 222.5,243C 253.769,251.819 283.102,247.485 310.5,230C 325.47,219.221 334.137,204.721 336.5,186.5 Z"/></g>
<g><path style="opacity:0.992" fill="#d34476" d="M 104.5,195.5 C 108.573,201.97 112.907,208.303 117.5,214.5C 117.586,215.496 117.252,216.329 116.5,217C 105.363,224.977 94.6964,233.477 84.5,242.5C 78.7532,237.09 73.7532,231.09 69.5,224.5C 80.8998,214.426 92.5665,204.76 104.5,195.5 Z"/></g>
<g><path style="opacity:0.994" fill="#d34476" d="M 406.5,195.5 C 418.434,204.76 430.1,214.426 441.5,224.5C 437.247,231.09 432.247,237.09 426.5,242.5C 416.591,233.869 406.258,225.702 395.5,218C 394.177,217.184 393.511,216.017 393.5,214.5C 398.093,208.303 402.427,201.97 406.5,195.5 Z"/></g>
<g><path style="opacity:1" fill="#343a42" d="M 206.5,283.5 C 208.505,286.351 210.338,289.351 212,292.5C 215.636,302.93 212.136,307.93 201.5,307.5C 198.506,304.091 196.673,300.091 196,295.5C 188.041,291.906 183.874,294.573 183.5,303.5C 180.287,307.65 176.287,308.483 171.5,306C 170.364,304.855 169.364,303.688 168.5,302.5C 168.266,294.802 170.933,288.302 176.5,283C 186.594,276.935 196.594,277.101 206.5,283.5 Z"/></g>
<g><path style="opacity:1" fill="#343a43" d="M 341.5,303.5 C 337.195,309.631 332.529,309.965 327.5,304.5C 327.498,298.81 324.832,295.143 319.5,293.5C 314.055,295.031 311.555,298.698 312,304.5C 306.359,310.304 301.692,309.637 298,302.5C 297.594,287.738 304.761,279.738 319.5,278.5C 334.624,279.958 341.958,288.292 341.5,303.5 Z"/></g>
<g><path style="opacity:1" fill="#323941" d="M 243.5,291.5 C 250.841,291.334 258.174,291.5 265.5,292C 277.733,294.608 282.233,302.108 279,314.5C 273.026,332.571 261.192,338.405 243.5,332C 233.112,324.03 229.279,313.53 232,300.5C 234.683,295.922 238.517,292.922 243.5,291.5 Z"/></g>
<g><path style="opacity:1" fill="#d86582" d="M 201.5,307.5 C 200.935,309.952 200.268,312.285 199.5,314.5C 195.269,309.275 189.935,305.608 183.5,303.5C 183.874,294.573 188.041,291.906 196,295.5C 196.673,300.091 198.506,304.091 201.5,307.5 Z"/></g>
<g><path style="opacity:1" fill="#fefdfd" d="M 168.5,302.5 C 169.364,303.688 170.364,304.855 171.5,306C 176.287,308.483 180.287,307.65 183.5,303.5C 189.935,305.608 195.269,309.275 199.5,314.5C 205.087,323.566 204.421,332.233 197.5,340.5C 185.584,350.713 172.251,352.88 157.5,347C 144.348,339.876 140.515,329.376 146,315.5C 151.648,308.03 159.148,303.696 168.5,302.5 Z"/></g>
<g><path style="opacity:1" fill="#fefdfe" d="M 341.5,303.5 C 353.761,304.272 362.261,310.272 367,321.5C 367.702,337.815 359.868,347.315 343.5,350C 328.643,352.725 317.143,347.892 309,335.5C 304.892,319.051 311.059,308.717 327.5,304.5C 332.529,309.965 337.195,309.631 341.5,303.5 Z"/></g>
<g><path style="opacity:0.993" fill="#d34476" d="M 54.5,401.5 C 60.8307,410.158 67.164,418.825 73.5,427.5C 67.6957,432.572 61.3624,436.905 54.5,440.5C 47.7829,432.451 41.4496,424.117 35.5,415.5C 41.9731,411.089 48.3065,406.423 54.5,401.5 Z"/></g>
<g><path style="opacity:0.987" fill="#d34477" d="M 456.5,401.5 C 462.972,407.236 469.972,412.236 477.5,416.5C 476.022,416.238 474.689,416.571 473.5,417.5C 468.204,425.78 462.204,433.446 455.5,440.5C 448.892,436.557 442.559,432.224 436.5,427.5C 442.791,418.543 449.457,409.876 456.5,401.5 Z"/></g>
<g><path style="opacity:0.979" fill="#db6382" d="M 35.5,415.5 C 41.4496,424.117 47.7829,432.451 54.5,440.5C 48.5188,444.494 42.1854,447.994 35.5,451C 18.1438,452.304 11.6438,444.471 16,427.5C 21.4321,421.862 27.9321,417.862 35.5,415.5 Z"/></g>
<g><path style="opacity:0.982" fill="#db6382" d="M 477.5,416.5 C 481.807,418.653 486.14,420.82 490.5,423C 497.895,430.684 498.395,438.851 492,447.5C 487.098,451.18 481.598,452.347 475.5,451C 468.33,448.25 461.663,444.75 455.5,440.5C 462.204,433.446 468.204,425.78 473.5,417.5C 474.689,416.571 476.022,416.238 477.5,416.5 Z"/></g>
<g><path style="opacity:0.992" fill="#d34477" d="M 109.5,460.5 C 118.87,466.846 128.204,473.18 137.5,479.5C 131.122,485.213 124.455,490.547 117.5,495.5C 108.214,488.882 99.2139,481.882 90.5,474.5C 97.367,470.566 103.7,465.899 109.5,460.5 Z"/></g>
<g><path style="opacity:0.996" fill="#d34477" d="M 401.5,460.5 C 407.247,465.907 413.58,470.573 420.5,474.5C 411.909,482.136 402.575,488.803 392.5,494.5C 385.879,489.881 379.546,484.881 373.5,479.5C 373.369,478.624 373.702,477.957 374.5,477.5C 383.725,472.062 392.725,466.395 401.5,460.5 Z"/></g>
<g><path style="opacity:0.983" fill="#db6382" d="M 90.5,474.5 C 99.2139,481.882 108.214,488.882 117.5,495.5C 108.249,501.625 98.5821,506.958 88.5,511.5C 86.1667,511.5 83.8333,511.5 81.5,511.5C 69.7951,506.745 66.2951,498.412 71,486.5C 76.7752,481.36 83.2752,477.36 90.5,474.5 Z"/></g>
<g><path style="opacity:0.984" fill="#db6382" d="M 420.5,474.5 C 425.848,477.233 431.181,480.066 436.5,483C 444.999,495.276 442.665,504.776 429.5,511.5C 427.167,511.5 424.833,511.5 422.5,511.5C 411.915,506.874 401.915,501.207 392.5,494.5C 402.575,488.803 411.909,482.136 420.5,474.5 Z"/></g>
</svg>
