<?xml version="1.0" encoding="UTF-8"?>
<!DOCTYPE svg PUBLIC "-//W3C//DTD SVG 1.1//EN" "http://www.w3.org/Graphics/SVG/1.1/DTD/svg11.dtd">
<svg xmlns="http://www.w3.org/2000/svg" version="1.1" width="512px" height="512px" style="shape-rendering:geometricPrecision; text-rendering:geometricPrecision; image-rendering:optimizeQuality; fill-rule:evenodd; clip-rule:evenodd" xmlns:xlink="http://www.w3.org/1999/xlink">
<g><path style="opacity:0.993" fill="#fe738e" d="M 143.5,35.5 C 109.925,44.9083 89.0918,66.575 81,100.5C 78.6707,117.516 81.0041,133.849 88,149.5C 90.4476,154.752 93.6143,159.419 97.5,163.5C 95.7078,164.309 93.7078,164.809 91.5,165C 85.1754,165.5 78.8421,165.666 72.5,165.5C 56.9113,163.704 42.9113,158.037 30.5,148.5C 18.1332,139.617 9.2999,127.951 4,113.5C 2.16036,108.126 0.660356,102.793 -0.5,97.5C -0.5,88.8333 -0.5,80.1667 -0.5,71.5C 9.80979,29.3599 36.6431,7.02653 80,4.5C 106.463,4.31595 127.629,14.6493 143.5,35.5 Z"/></g>
<g><path style="opacity:0.993" fill="#fe738e" d="M 511.5,71.5 C 511.5,80.1667 511.5,88.8333 511.5,97.5C 508.871,111.865 503.038,124.865 494,136.5C 489.906,141.102 485.406,145.102 480.5,148.5C 467.975,157.678 453.975,163.345 438.5,165.5C 432.158,165.666 425.825,165.5 419.5,165C 417.292,164.809 415.292,164.309 413.5,163.5C 421.295,153.902 426.462,142.902 429,130.5C 434.915,88.8271 419.082,58.6604 381.5,40C 376.803,38.4945 372.137,36.9945 367.5,35.5C 376.402,23.1086 388.068,14.2753 402.5,9C 438.318,-2.25557 468.818,5.9111 494,33.5C 502.834,44.8592 508.668,57.5259 511.5,71.5 Z"/></g>
<g><path style="opacity:0.994" fill="#f9496e" d="M 367.5,35.5 C 372.137,36.9945 376.803,38.4945 381.5,40C 419.082,58.6604 434.915,88.8271 429,130.5C 426.462,142.902 421.295,153.902 413.5,163.5C 378.847,154.678 358.013,132.678 351,97.5C 348.783,80.804 351.117,64.804 358,49.5C 360.448,44.2479 363.614,39.5812 367.5,35.5 Z"/></g>
<g><path style="opacity:0.995" fill="#f9496e" d="M 143.5,35.5 C 152.491,46.4973 157.991,59.164 160,73.5C 163.369,111.415 148.536,139.581 115.5,158C 109.697,160.546 103.697,162.379 97.5,163.5C 93.6143,159.419 90.4476,154.752 88,149.5C 81.0041,133.849 78.6707,117.516 81,100.5C 89.0918,66.575 109.925,44.9083 143.5,35.5 Z"/></g>
<g><path style="opacity:0.987" fill="#f9496d" d="M 30.5,148.5 C 42.9113,158.037 56.9113,163.704 72.5,165.5C 74.4253,181.305 80.7586,194.972 91.5,206.5C 82.985,216.856 75.985,228.19 70.5,240.5C 58.4817,231.16 49.3151,219.493 43,205.5C 35.2014,187.305 31.0348,168.305 30.5,148.5 Z"/></g>
<g><path style="opacity:0.986" fill="#f9496d" d="M 480.5,148.5 C 479.878,176.685 471.711,202.351 456,225.5C 451.626,231.375 446.459,236.375 440.5,240.5C 435.774,229.609 429.608,219.609 422,210.5C 420.991,208.975 420.491,207.308 420.5,205.5C 430.538,194.078 436.538,180.744 438.5,165.5C 453.975,163.345 467.975,157.678 480.5,148.5 Z"/></g>
<g><path style="opacity:1" fill="#f9496e" d="M 269.5,157.5 C 210.757,166.43 165.257,195.763 133,245.5C 105.911,295.98 115.745,337.814 162.5,371C 195.272,391.647 230.938,403.147 269.5,405.5C 237.721,407.484 206.721,403.484 176.5,393.5C 163.571,388.368 150.904,382.701 138.5,376.5C 132.19,371.865 125.857,367.198 119.5,362.5C 109.956,353.042 101.623,342.709 94.5,331.5C 92.2232,326.613 90.2232,321.613 88.5,316.5C 85.5372,302.703 85.8706,289.037 89.5,275.5C 90.7034,268.429 93.0367,261.762 96.5,255.5C 102.924,242.977 110.59,231.311 119.5,220.5C 159.413,175.887 209.413,154.887 269.5,157.5 Z"/></g>
<g><path style="opacity:0.998" fill="#fe738e" d="M 269.5,157.5 C 318.44,162.839 359.106,183.839 391.5,220.5C 395.424,226.271 399.591,231.937 404,237.5C 407.363,243.669 410.863,249.669 414.5,255.5C 417.963,261.762 420.297,268.429 421.5,275.5C 425.499,288.828 425.499,302.161 421.5,315.5C 421.624,316.107 421.957,316.44 422.5,316.5C 420.777,321.613 418.777,326.613 416.5,331.5C 409.309,343.029 400.642,353.362 390.5,362.5C 384.786,367.549 378.786,372.215 372.5,376.5C 360.042,382.731 347.376,388.397 334.5,393.5C 313.436,400.579 291.769,404.579 269.5,405.5C 230.938,403.147 195.272,391.647 162.5,371C 115.745,337.814 105.911,295.98 133,245.5C 165.257,195.763 210.757,166.43 269.5,157.5 Z"/></g>
<g><path style="opacity:1" fill="#e3254c" d="M 91.5,206.5 C 99.4445,213.806 108.778,218.472 119.5,220.5C 110.59,231.311 102.924,242.977 96.5,255.5C 86.8491,252.014 78.1825,247.014 70.5,240.5C 75.985,228.19 82.985,216.856 91.5,206.5 Z"/></g>
<g><path style="opacity:1" fill="#e3264c" d="M 420.5,205.5 C 420.491,207.308 420.991,208.975 422,210.5C 429.608,219.609 435.774,229.609 440.5,240.5C 432.818,247.014 424.151,252.014 414.5,255.5C 410.863,249.669 407.363,243.669 404,237.5C 399.591,231.937 395.424,226.271 391.5,220.5C 402.731,218.385 412.398,213.385 420.5,205.5 Z"/></g>
<g><path style="opacity:1" fill="#443e4f" d="M 175.5,217.5 C 180.28,216.641 183.78,218.308 186,222.5C 186.667,228.833 186.667,235.167 186,241.5C 183.928,246.143 180.428,247.643 175.5,246C 173.667,245.5 172.5,244.333 172,242.5C 171.333,235.5 171.333,228.5 172,221.5C 173.376,220.295 174.542,218.962 175.5,217.5 Z"/></g>
<g><path style="opacity:1" fill="#443e4f" d="M 329.5,217.5 C 333.426,217.047 336.592,218.38 339,221.5C 339.667,228.5 339.667,235.5 339,242.5C 336.487,246.212 332.987,247.378 328.5,246C 326.951,244.786 325.785,243.286 325,241.5C 324.333,235.167 324.333,228.833 325,222.5C 326.025,220.313 327.525,218.646 329.5,217.5 Z"/></g>
<g><path style="opacity:1" fill="#473f50" d="M 233.5,230.5 C 235.527,230.338 237.527,230.505 239.5,231C 246.091,238.453 254.091,240.453 263.5,237C 265.792,235.71 267.792,234.043 269.5,232C 275.983,229.409 280.317,231.409 282.5,238C 280.277,243.893 276.277,248.226 270.5,251C 254.888,257.861 241.388,255.027 230,242.5C 228.627,240.305 228.294,237.971 229,235.5C 230.366,233.638 231.866,231.972 233.5,230.5 Z"/></g>
<g><path style="opacity:1" fill="#e3254c" d="M 89.5,275.5 C 85.8706,289.037 85.5372,302.703 88.5,316.5C 78.5978,318.357 68.9311,321.024 59.5,324.5C 56.3636,312.068 55.0302,299.402 55.5,286.5C 66.0901,280.86 77.4234,277.193 89.5,275.5 Z"/></g>
<g><path style="opacity:1" fill="#e3264d" d="M 421.5,275.5 C 433.577,277.193 444.91,280.86 455.5,286.5C 456.283,299.441 454.95,312.108 451.5,324.5C 442.069,321.024 432.402,318.357 422.5,316.5C 421.957,316.44 421.624,316.107 421.5,315.5C 425.499,302.161 425.499,288.828 421.5,275.5 Z"/></g>
<g><path style="opacity:0.979" fill="#f9496d" d="M 55.5,286.5 C 55.0302,299.402 56.3636,312.068 59.5,324.5C 45.1361,330.692 33.6361,340.359 25,353.5C 20.4788,361.91 16.6454,370.577 13.5,379.5C 8.21775,381.611 5.05108,379.944 4,374.5C 0.47677,332.896 17.6434,303.563 55.5,286.5 Z"/></g>
<g><path style="opacity:0.976" fill="#f9486d" d="M 455.5,286.5 C 495.373,304.743 512.039,335.577 505.5,379C 502.912,380.686 500.245,380.853 497.5,379.5C 493.098,366.028 486.598,353.695 478,342.5C 470.019,335.104 461.186,329.104 451.5,324.5C 454.95,312.108 456.283,299.441 455.5,286.5 Z"/></g>
<g><path style="opacity:1" fill="#e3254c" d="M 94.5,331.5 C 101.623,342.709 109.956,353.042 119.5,362.5C 111.524,368.803 103.524,375.136 95.5,381.5C 89.866,375.696 84.366,369.696 79,363.5C 76.5794,359.929 74.4127,356.262 72.5,352.5C 78.5424,344.124 85.8757,337.124 94.5,331.5 Z"/></g>
<g><path style="opacity:1" fill="#e3264c" d="M 416.5,331.5 C 425.458,337.458 433.125,344.791 439.5,353.5C 435.53,358.315 431.697,363.315 428,368.5C 424.118,373.345 419.618,377.345 414.5,380.5C 406.801,374.14 398.801,368.14 390.5,362.5C 400.642,353.362 409.309,343.029 416.5,331.5 Z"/></g>
<g><path style="opacity:0.979" fill="#f9496d" d="M 72.5,352.5 C 74.4127,356.262 76.5794,359.929 79,363.5C 84.366,369.696 89.866,375.696 95.5,381.5C 87.2429,390.619 80.7429,400.952 76,412.5C 72.244,426.068 71.5773,439.735 74,453.5C 70.8295,458.414 67.1628,458.747 63,454.5C 42.476,418.232 45.6427,384.232 72.5,352.5 Z"/></g>
<g><path style="opacity:0.979" fill="#f9486d" d="M 439.5,353.5 C 465.409,385.169 468.242,418.835 448,454.5C 443.837,458.747 440.171,458.414 437,453.5C 440.553,434.59 437.886,416.59 429,399.5C 424.718,392.721 419.884,386.388 414.5,380.5C 419.618,377.345 424.118,373.345 428,368.5C 431.697,363.315 435.53,358.315 439.5,353.5 Z"/></g>
<g><path style="opacity:1" fill="#e3254c" d="M 138.5,376.5 C 150.904,382.701 163.571,388.368 176.5,393.5C 170.077,401.914 164.077,410.581 158.5,419.5C 146.744,415.123 135.744,409.457 125.5,402.5C 128.776,393.282 133.109,384.615 138.5,376.5 Z"/></g>
<g><path style="opacity:1" fill="#e3264c" d="M 372.5,376.5 C 377.891,384.615 382.224,393.282 385.5,402.5C 375.256,409.457 364.256,415.123 352.5,419.5C 346.923,410.581 340.923,401.914 334.5,393.5C 347.376,388.397 360.042,382.731 372.5,376.5 Z"/></g>
<g><path style="opacity:0.979" fill="#f9496d" d="M 125.5,402.5 C 135.744,409.457 146.744,415.123 158.5,419.5C 151.986,432.043 148.319,445.377 147.5,459.5C 147.464,465.949 148.297,472.282 150,478.5C 152.614,486.395 155.781,494.062 159.5,501.5C 157.228,506.667 153.561,507.834 148.5,505C 119.772,480.625 110.605,450.125 121,413.5C 122.038,409.532 123.538,405.865 125.5,402.5 Z"/></g>
<g><path style="opacity:0.978" fill="#f9486d" d="M 385.5,402.5 C 389.372,410.3 391.872,418.634 393,427.5C 397.33,459.197 387.164,485.031 362.5,505C 357.439,507.834 353.772,506.667 351.5,501.5C 355.219,494.062 358.386,486.395 361,478.5C 364.297,466.161 364.297,453.827 361,441.5C 358.454,434.025 355.621,426.692 352.5,419.5C 364.256,415.123 375.256,409.457 385.5,402.5 Z"/></g>
</svg>
