<?xml version="1.0" encoding="UTF-8"?>
<!DOCTYPE svg PUBLIC "-//W3C//DTD SVG 1.1//EN" "http://www.w3.org/Graphics/SVG/1.1/DTD/svg11.dtd">
<svg xmlns="http://www.w3.org/2000/svg" version="1.1" width="64px" height="64px" style="shape-rendering:geometricPrecision; text-rendering:geometricPrecision; image-rendering:optimizeQuality; fill-rule:evenodd; clip-rule:evenodd" xmlns:xlink="http://www.w3.org/1999/xlink">
<g><path style="opacity:0.821" fill="#15d1ff" d="M 28.5,8.5 C 38.1724,8.33353 47.8391,8.5002 57.5,9C 60.8923,10.5417 62.8923,13.0417 63.5,16.5C 63.5,17.5 63.5,18.5 63.5,19.5C 62.71,20.6085 62.21,21.9419 62,23.5C 61.7216,22.5842 61.2216,21.9175 60.5,21.5C 52.9032,19.5332 44.9032,18.8665 36.5,19.5C 36.1667,18.8333 35.8333,18.1667 35.5,17.5C 43.84,17.6664 52.1733,17.4997 60.5,17C 59.6361,14.9287 58.3028,13.262 56.5,12C 47.5062,11.5002 38.5062,11.3336 29.5,11.5C 29.4431,10.391 29.1098,9.39105 28.5,8.5 Z"/></g>
<g><path style="opacity:0.849" fill="#15b6ff" d="M 28.5,8.5 C 29.1098,9.39105 29.4431,10.391 29.5,11.5C 26.1501,11.335 22.8168,11.5017 19.5,12C 17.6972,13.262 16.3639,14.9287 15.5,17C 22.1583,17.4996 28.825,17.6663 35.5,17.5C 35.8333,18.1667 36.1667,18.8333 36.5,19.5C 29.0869,18.8721 22.0869,19.5388 15.5,21.5C 14.8826,21.3893 14.3826,21.056 14,20.5C 13.8019,22.3817 13.3019,24.0484 12.5,25.5C 10.4187,12.598 15.752,6.93132 28.5,8.5 Z"/></g>
<g><path style="opacity:0.787" fill="#14cbff" d="M 63.5,19.5 C 63.5,24.1667 63.5,28.8333 63.5,33.5C 62.8333,33.5 62.5,33.8333 62.5,34.5C 61.8333,33.8333 61.1667,33.1667 60.5,32.5C 60.5,30.1667 60.5,27.8333 60.5,25.5C 51.1667,25.5 41.8333,25.5 32.5,25.5C 32.2178,24.2223 31.5511,23.2223 30.5,22.5C 40.6806,22.8274 50.6806,22.494 60.5,21.5C 61.2216,21.9175 61.7216,22.5842 62,23.5C 62.21,21.9419 62.71,20.6085 63.5,19.5 Z"/></g>
<g><path style="opacity:0.678" fill="#16b1ff" d="M 15.5,21.5 C 20.3054,22.4872 25.3054,22.8205 30.5,22.5C 31.5511,23.2223 32.2178,24.2223 32.5,25.5C 27.4889,25.3341 22.4889,25.5007 17.5,26C 20.6485,26.7384 23.3152,28.2384 25.5,30.5C 26.8005,31.8816 27.6339,33.5483 28,35.5C 31.1494,33.6375 34.6494,32.9709 38.5,33.5C 38.5,34.5 38.5,35.5 38.5,36.5C 35.1016,36.1796 31.7683,36.513 28.5,37.5C 32.1073,38.4892 35.774,38.8226 39.5,38.5C 41.2191,39.0221 42.5525,40.0221 43.5,41.5C 38.5,41.5 33.5,41.5 28.5,41.5C 28.5848,44.6489 27.5848,47.3155 25.5,49.5C 25.5,48.1667 24.8333,47.5 23.5,47.5C 27.9601,38.6228 25.6268,32.4561 16.5,29C 14.6131,28.2204 12.9464,28.3871 11.5,29.5C 10.1667,29.8333 8.83333,30.1667 7.5,30.5C 6.83333,30.1667 6.16667,29.8333 5.5,29.5C 7.34952,27.4284 9.68285,26.0951 12.5,25.5C 13.3019,24.0484 13.8019,22.3817 14,20.5C 14.3826,21.056 14.8826,21.3893 15.5,21.5 Z"/></g>
<g><path style="opacity:0.579" fill="#15acff" d="M 25.5,30.5 C 25.5,29.5 25.5,28.5 25.5,27.5C 26.5,27.5 27.5,27.5 28.5,27.5C 28.5,28.5 28.5,29.5 28.5,30.5C 27.5,30.5 26.5,30.5 25.5,30.5 Z"/></g>
<g><path style="opacity:0.908" fill="#11b8ff" d="M 29.5,27.5 C 33.8333,27.5 38.1667,27.5 42.5,27.5C 42.5,28.5 42.5,29.5 42.5,30.5C 38.1667,30.5 33.8333,30.5 29.5,30.5C 29.5,29.5 29.5,28.5 29.5,27.5 Z"/></g>
<g><path style="opacity:0.711" fill="#14c4ff" d="M 45.5,27.5 C 48.5,27.5 51.5,27.5 54.5,27.5C 56.5143,35.6571 53.681,38.3238 46,35.5C 45.5026,32.854 45.3359,30.1873 45.5,27.5 Z M 48.5,29.5 C 49.5,29.5 50.5,29.5 51.5,29.5C 51.5,30.8333 51.5,32.1667 51.5,33.5C 50.5,33.5 49.5,33.5 48.5,33.5C 48.5,32.1667 48.5,30.8333 48.5,29.5 Z"/></g>
<g><path style="opacity:0.687" fill="#15a9ff" d="M 11.5,29.5 C 18.7637,29.7683 22.7637,33.4349 23.5,40.5C 22.5,40.5 21.5,40.5 20.5,40.5C 20.3409,36.669 18.3409,34.3356 14.5,33.5C 12.7269,35.3717 10.7269,35.205 8.5,33C 9.7101,31.9609 10.7101,30.7942 11.5,29.5 Z"/></g>
<g><path style="opacity:0.756" fill="#16c5ff" d="M 60.5,32.5 C 61.1667,33.1667 61.8333,33.8333 62.5,34.5C 62.1601,37.6748 60.4934,39.8415 57.5,41C 52.8452,41.4992 48.1785,41.6658 43.5,41.5C 42.5525,40.0221 41.2191,39.0221 39.5,38.5C 45.1764,38.6661 50.8431,38.4994 56.5,38C 58.4422,36.6181 59.7755,34.7848 60.5,32.5 Z"/></g>
<g><path style="opacity:0.643" fill="#13baff" d="M 39.5,33.5 C 40.5,33.5 41.5,33.5 42.5,33.5C 42.5,34.5 42.5,35.5 42.5,36.5C 41.5,36.5 40.5,36.5 39.5,36.5C 39.5,35.5 39.5,34.5 39.5,33.5 Z"/></g>
<g><path style="opacity:0.733" fill="#169bff" d="M 5.5,29.5 C 6.16667,29.8333 6.83333,30.1667 7.5,30.5C 0.695026,37.2914 1.02836,43.7914 8.5,50C 14.1197,52.508 19.1197,51.6747 23.5,47.5C 24.8333,47.5 25.5,48.1667 25.5,49.5C 18.1143,56.1497 10.6143,56.1497 3,49.5C 1.52203,46.8421 0.355367,44.1755 -0.5,41.5C -0.5,40.8333 -0.5,40.1667 -0.5,39.5C -0.0336485,35.232 1.96635,31.8987 5.5,29.5 Z"/></g>
<g><path style="opacity:0.485" fill="#159cff" d="M 5.5,35.5 C 7.91176,35.6941 8.91176,37.0274 8.5,39.5C 7.5,39.5 6.5,39.5 5.5,39.5C 5.5,38.1667 5.5,36.8333 5.5,35.5 Z"/></g>
<g><path style="opacity:0.614" fill="#19adff" d="M 20.5,41.5 C 21.5,41.5 22.5,41.5 23.5,41.5C 23.5,42.5 23.5,43.5 23.5,44.5C 22.5,44.5 21.5,44.5 20.5,44.5C 20.5,43.5 20.5,42.5 20.5,41.5 Z"/></g>
<g><path style="opacity:0.667" fill="#16a0ff" d="M 5.5,40.5 C 6.5,40.5 7.5,40.5 8.5,40.5C 9.15076,45.4939 11.8174,47.1606 16.5,45.5C 21.3399,46.4659 21.3399,48.1326 16.5,50.5C 13.3269,49.7895 10.3269,48.6229 7.5,47C 5.98368,45.103 5.31701,42.9363 5.5,40.5 Z"/></g>
</svg>
