<svg width="25" height="25" viewBox="0 0 25 25" fill="none" xmlns="http://www.w3.org/2000/svg">
<path d="M4.16683 18.75V12.5H16.7189C17.7606 11.8437 18.9897 11.4583 20.3127 11.4583C21.2397 11.4583 22.1147 11.6458 22.9168 11.9791V6.24996C22.9168 5.69742 22.6973 5.16752 22.3066 4.77682C21.9159 4.38612 21.386 4.16663 20.8335 4.16663H4.16683C3.01058 4.16663 2.0835 5.09371 2.0835 6.24996V18.75C2.0835 19.3025 2.30299 19.8324 2.69369 20.2231C3.08439 20.6138 3.6143 20.8333 4.16683 20.8333H14.0627C13.7918 20.1875 13.6252 19.4791 13.5731 18.75H4.16683ZM4.16683 6.24996H20.8335V8.33329H4.16683V6.24996ZM23.9585 18.2291C23.9585 19.0833 23.6981 19.875 23.2606 20.5312L22.1252 19.3958C22.3022 19.0416 22.396 18.6458 22.396 18.2291C22.396 17.5385 22.1216 16.8761 21.6333 16.3877C21.1449 15.8993 20.4825 15.625 19.7918 15.625V17.1875L17.4481 14.8437L19.7918 12.5V14.0625C22.0939 14.0625 23.9585 15.927 23.9585 18.2291ZM19.7918 19.2708L22.1356 21.6145L19.7918 23.9583V22.3958C17.4897 22.3958 15.6252 20.5312 15.6252 18.2291C15.6252 17.375 15.8856 16.5833 16.3231 15.927L17.4585 17.0625C17.2814 17.4166 17.1877 17.8125 17.1877 18.2291C17.1877 18.9198 17.462 19.5822 17.9504 20.0705C18.4388 20.5589 19.1012 20.8333 19.7918 20.8333V19.2708Z" fill="#DF1A1A"/>
</svg>
