<?xml version="1.0" encoding="UTF-8"?>
<!DOCTYPE svg PUBLIC "-//W3C//DTD SVG 1.1//EN" "http://www.w3.org/Graphics/SVG/1.1/DTD/svg11.dtd">
<svg xmlns="http://www.w3.org/2000/svg" version="1.1" width="64px" height="64px" style="shape-rendering:geometricPrecision; text-rendering:geometricPrecision; image-rendering:optimizeQuality; fill-rule:evenodd; clip-rule:evenodd" xmlns:xlink="http://www.w3.org/1999/xlink">
<g><path style="opacity:0.952" fill="#b33f4a" d="M 7.5,0.5 C 17.5056,0.333518 27.5056,0.500185 37.5,1C 39.3398,3.82627 40.0065,6.99294 39.5,10.5C 45.4254,10.1918 51.2588,10.5251 57,11.5C 57.6667,20.1667 57.6667,28.8333 57,37.5C 53.9433,38.4505 50.7766,38.7839 47.5,38.5C 48.0065,42.0071 47.3398,45.1737 45.5,48C 40.8452,48.4992 36.1785,48.6658 31.5,48.5C 31.5,53.1667 31.5,57.8333 31.5,62.5C 29.3618,62.297 27.6951,61.297 26.5,59.5C 25.3689,60.7515 24.0356,61.7515 22.5,62.5C 20.9644,61.7515 19.6311,60.7515 18.5,59.5C 17.3689,60.7515 16.0356,61.7515 14.5,62.5C 12.9644,61.7515 11.6311,60.7515 10.5,59.5C 9.30491,61.297 7.63824,62.297 5.5,62.5C 5.33338,42.4972 5.50005,22.4972 6,2.5C 6.71719,1.9558 7.21719,1.28913 7.5,0.5 Z M 11.5,2.5 C 17.5,2.5 23.5,2.5 29.5,2.5C 29.6666,20.5031 29.4999,38.5031 29,56.5C 28.3109,55.6433 27.4776,54.9767 26.5,54.5C 24.8333,55.5 23.5,56.8333 22.5,58.5C 19.8333,53.1667 17.1667,53.1667 14.5,58.5C 13.5,56.8333 12.1667,55.5 10.5,54.5C 9.52242,54.9767 8.68909,55.6433 8,56.5C 7.33333,39.8333 7.33333,23.1667 8,6.5C 8.68972,4.64977 9.85639,3.31643 11.5,2.5 Z M 32.5,3.5 C 36.8035,3.73519 38.4702,6.06852 37.5,10.5C 35.5,10.5 33.5,10.5 31.5,10.5C 31.448,8.09709 31.7814,5.76375 32.5,3.5 Z M 31.5,12.5 C 38.8409,12.3337 46.1742,12.5003 53.5,13C 54.3567,13.6891 55.0233,14.5224 55.5,15.5C 47.5277,16.4977 39.5277,16.831 31.5,16.5C 31.5,15.1667 31.5,13.8333 31.5,12.5 Z M 31.5,24.5 C 39.5,24.5 47.5,24.5 55.5,24.5C 57.6591,35.338 53.3257,39.338 42.5,36.5C 38.8333,36.1667 35.1667,35.8333 31.5,35.5C 32.6888,34.5713 34.0222,34.238 35.5,34.5C 35.5,32.1667 35.5,29.8333 35.5,27.5C 34.1667,27.5 32.8333,27.5 31.5,27.5C 31.5,26.5 31.5,25.5 31.5,24.5 Z M 31.5,38.5 C 33.5,38.5 35.5,38.5 37.5,38.5C 37.5,41.1667 37.5,43.8333 37.5,46.5C 35.5,46.5 33.5,46.5 31.5,46.5C 31.5,43.8333 31.5,41.1667 31.5,38.5 Z M 39.5,38.5 C 41.5,38.5 43.5,38.5 45.5,38.5C 46.0918,41.6405 45.0918,43.9739 42.5,45.5C 39.9082,43.9739 38.9082,41.6405 39.5,38.5 Z"/></g>
<g><path style="opacity:0.828" fill="#b34049" d="M 17.5,6.5 C 19.929,7.26483 21.2623,8.9315 21.5,11.5C 17.5,11.8333 17.5,12.1667 21.5,12.5C 21.7029,15.8912 20.7029,18.8912 18.5,21.5C 16.9668,19.711 15.9668,17.711 15.5,15.5C 19.5,15.1667 19.5,14.8333 15.5,14.5C 15.3651,11.5825 16.0318,8.91583 17.5,6.5 Z"/></g>
<g><path style="opacity:1" fill="#f3b2af" d="M 31.5,18.5 C 39.5,18.5 47.5,18.5 55.5,18.5C 55.5,19.8333 55.5,21.1667 55.5,22.5C 47.5,22.5 39.5,22.5 31.5,22.5C 31.5,21.1667 31.5,19.8333 31.5,18.5 Z"/></g>
<g><path style="opacity:0.988" fill="#b33f4a" d="M 9.5,24.5 C 11.8333,24.5 14.1667,24.5 16.5,24.5C 16.5,26.8333 16.5,29.1667 16.5,31.5C 14.1667,31.5 11.8333,31.5 9.5,31.5C 9.5,29.1667 9.5,26.8333 9.5,24.5 Z"/></g>
<g><path style="opacity:1" fill="#f3b2af" d="M 11.5,26.5 C 12.5,26.5 13.5,26.5 14.5,26.5C 14.5,27.5 14.5,28.5 14.5,29.5C 13.5,29.5 12.5,29.5 11.5,29.5C 11.5,28.5 11.5,27.5 11.5,26.5 Z"/></g>
<g><path style="opacity:1" fill="#b24049" d="M 18.5,26.5 C 21.5719,26.1826 24.5719,26.5159 27.5,27.5C 26,27.8333 24.5,28.1667 23,28.5C 21.0145,28.4313 19.5145,27.7647 18.5,26.5 Z"/></g>
<g><path style="opacity:1" fill="#f3b2af" d="M 31.5,29.5 C 33.4646,29.9483 33.7979,30.9483 32.5,32.5C 31.6143,31.675 31.281,30.675 31.5,29.5 Z"/></g>
<g><path style="opacity:1" fill="#b24049" d="M 43.5,32.5 C 45.337,32.6395 45.6704,33.3061 44.5,34.5C 43.7025,34.0431 43.3691,33.3764 43.5,32.5 Z"/></g>
<g><path style="opacity:1" fill="#b24049" d="M 47.5,32.5 C 49.337,32.6395 49.6704,33.3061 48.5,34.5C 47.7025,34.0431 47.3691,33.3764 47.5,32.5 Z"/></g>
<g><path style="opacity:1" fill="#b24049" d="M 51.5,32.5 C 53.337,32.6395 53.6704,33.3061 52.5,34.5C 51.7025,34.0431 51.3691,33.3764 51.5,32.5 Z"/></g>
<g><path style="opacity:0.988" fill="#b33f4a" d="M 9.5,33.5 C 11.8333,33.5 14.1667,33.5 16.5,33.5C 16.5,35.8333 16.5,38.1667 16.5,40.5C 14.1667,40.5 11.8333,40.5 9.5,40.5C 9.5,38.1667 9.5,35.8333 9.5,33.5 Z"/></g>
<g><path style="opacity:1" fill="#f3b2af" d="M 11.5,35.5 C 12.5,35.5 13.5,35.5 14.5,35.5C 14.5,36.5 14.5,37.5 14.5,38.5C 13.5,38.5 12.5,38.5 11.5,38.5C 11.5,37.5 11.5,36.5 11.5,35.5 Z"/></g>
<g><path style="opacity:1" fill="#b24049" d="M 18.5,35.5 C 21.5719,35.1826 24.5719,35.5159 27.5,36.5C 26,36.8333 24.5,37.1667 23,37.5C 21.0145,37.4313 19.5145,36.7647 18.5,35.5 Z"/></g>
<g><path style="opacity:0.988" fill="#b33f4a" d="M 9.5,42.5 C 11.8333,42.5 14.1667,42.5 16.5,42.5C 16.5,44.8333 16.5,47.1667 16.5,49.5C 14.1667,49.5 11.8333,49.5 9.5,49.5C 9.5,47.1667 9.5,44.8333 9.5,42.5 Z"/></g>
<g><path style="opacity:1" fill="#f3b2af" d="M 11.5,44.5 C 12.5,44.5 13.5,44.5 14.5,44.5C 14.5,45.5 14.5,46.5 14.5,47.5C 13.5,47.5 12.5,47.5 11.5,47.5C 11.5,46.5 11.5,45.5 11.5,44.5 Z"/></g>
<g><path style="opacity:1" fill="#b24049" d="M 18.5,44.5 C 21.5719,44.1826 24.5719,44.5159 27.5,45.5C 26,45.8333 24.5,46.1667 23,46.5C 21.0145,46.4313 19.5145,45.7647 18.5,44.5 Z"/></g>
</svg>
