<svg width="45" height="45" viewBox="0 0 45 45" fill="none" xmlns="http://www.w3.org/2000/svg">
<path d="M35.625 6.5625H9.375C8.34375 6.5625 7.5 7.40625 7.5 8.4375V14.0625C7.5 15.0938 8.34375 15.9375 9.375 15.9375H35.625C36.6563 15.9375 37.5 15.0938 37.5 14.0625V8.4375C37.5 7.40625 36.6563 6.5625 35.625 6.5625ZM35.625 17.8125H9.375C8.34375 17.8125 7.5 18.6562 7.5 19.6875V25.3125C7.5 26.3438 8.34375 27.1875 9.375 27.1875H35.625C36.6563 27.1875 37.5 26.3438 37.5 25.3125V19.6875C37.5 18.6562 36.6563 17.8125 35.625 17.8125ZM35.625 29.0625H9.375C8.34375 29.0625 7.5 29.9062 7.5 30.9375V36.5625C7.5 37.5938 8.34375 38.4375 9.375 38.4375H35.625C36.6563 38.4375 37.5 37.5938 37.5 36.5625V30.9375C37.5 29.9062 36.6563 29.0625 35.625 29.0625Z" fill="#696969"/>
<path d="M35.625 45C40.8027 45 45 40.8027 45 35.625C45 30.4473 40.8027 26.25 35.625 26.25C30.4473 26.25 26.25 30.4473 26.25 35.625C26.25 40.8027 30.4473 45 35.625 45Z" fill="#F44336"/>
<path d="M40.6031 38.6072L38.6156 40.5966L30.6609 32.6428L32.6493 30.6534L40.6031 38.6072Z" fill="white"/>
<path d="M32.6428 40.6031L30.6534 38.6156L38.6072 30.6609L40.5966 32.6493L32.6428 40.6031Z" fill="white"/>
</svg>
