<?xml version="1.0" encoding="UTF-8"?>
<!DOCTYPE svg PUBLIC "-//W3C//DTD SVG 1.1//EN" "http://www.w3.org/Graphics/SVG/1.1/DTD/svg11.dtd">
<svg xmlns="http://www.w3.org/2000/svg" version="1.1" width="64px" height="64px" style="shape-rendering:geometricPrecision; text-rendering:geometricPrecision; image-rendering:optimizeQuality; fill-rule:evenodd; clip-rule:evenodd" xmlns:xlink="http://www.w3.org/1999/xlink">
<g><path style="opacity:0.715" fill="#000000" d="M 23.5,2.5 C 41.3623,-0.158261 53.529,6.84174 60,23.5C 63.1496,41.3747 56.3163,53.5413 39.5,60C 21.6253,63.1496 9.45866,56.3163 3,39.5C -0.0230431,21.535 6.81029,9.20168 23.5,2.5 Z M 25.5,6.5 C 46.9771,5.8098 57.1437,16.1431 56,37.5C 50.9241,51.9582 40.7575,58.1249 25.5,56C 11.0418,50.9241 4.87511,40.7575 7,25.5C 10.0174,15.9839 16.1841,9.65054 25.5,6.5 Z"/></g>
<g><path style="opacity:0.774" fill="#000000" d="M 25.5,14.5 C 29.5138,14.3345 33.5138,14.5012 37.5,15C 38.3366,16.0113 38.67,17.1779 38.5,18.5C 40.5273,18.3379 42.5273,18.5045 44.5,19C 45.3366,20.0113 45.67,21.1779 45.5,22.5C 36.1667,22.5 26.8333,22.5 17.5,22.5C 17.33,21.1779 17.6634,20.0113 18.5,19C 20.4727,18.5045 22.4727,18.3379 24.5,18.5C 24.4326,17.0413 24.7659,15.7079 25.5,14.5 Z"/></g>
<g><path style="opacity:0.736" fill="#000000" d="M 19.5,23.5 C 20.5,23.5 21.5,23.5 22.5,23.5C 22.3338,29.8421 22.5005,36.1754 23,42.5C 25.5539,43.7711 28.3872,44.4377 31.5,44.5C 34.6128,44.4377 37.4461,43.7711 40,42.5C 40.4995,36.1754 40.6662,29.8421 40.5,23.5C 41.8221,23.33 42.9887,23.6634 44,24.5C 44.6667,31.1667 44.6667,37.8333 44,44.5C 43.5,46.3333 42.3333,47.5 40.5,48C 34.5,48.6667 28.5,48.6667 22.5,48C 20.6667,47.5 19.5,46.3333 19,44.5C 18.2055,37.4197 18.3722,30.4197 19.5,23.5 Z"/></g>
<g><path style="opacity:0.685" fill="#000000" d="M 26.5,26.5 C 27.8333,26.5 29.1667,26.5 30.5,26.5C 30.6658,31.1785 30.4992,35.8452 30,40.5C 29,41.8333 28,41.8333 27,40.5C 26.5008,35.8452 26.3342,31.1785 26.5,26.5 Z"/></g>
<g><path style="opacity:0.685" fill="#000000" d="M 32.5,26.5 C 33.8333,26.5 35.1667,26.5 36.5,26.5C 36.6658,31.1785 36.4992,35.8452 36,40.5C 35,41.8333 34,41.8333 33,40.5C 32.5008,35.8452 32.3342,31.1785 32.5,26.5 Z"/></g>
</svg>
