<svg width="45" height="45" viewBox="0 0 45 45" fill="none" xmlns="http://www.w3.org/2000/svg">
<path d="M15 35.1562H12.1875C10.8938 35.1562 9.84375 34.1062 9.84375 32.8125V10.3125C9.84375 9.01875 10.8938 7.96875 12.1875 7.96875H19.2188V16.875C19.2188 17.6437 19.8563 18.2812 20.625 18.2812H29.625C29.8125 18.825 30.3187 19.2188 30.9375 19.2188C31.7062 19.2188 32.3438 18.5812 32.3438 17.8125V16.875C32.3383 16.5032 32.1907 16.1476 31.9313 15.8813L21.6187 5.56875C21.3524 5.30932 20.9968 5.16172 20.625 5.15625H12.1875C9.3375 5.15625 7.03125 7.4625 7.03125 10.3125V32.8125C7.03125 35.6625 9.3375 37.9688 12.1875 37.9688H15C15.7687 37.9688 16.4062 37.3312 16.4062 36.5625C16.4062 35.7938 15.7687 35.1562 15 35.1562ZM22.0312 9.95625L27.5437 15.4688H22.0312V9.95625ZM36.7688 21.3187C36.0563 20.6062 35.0063 20.175 33.9188 20.1562C32.7938 20.1 31.725 20.5313 31.0125 21.2625L19.0312 33.2625C18.7875 33.5062 18.6563 33.8062 18.6188 34.1437L18.2812 38.325C18.2438 38.7375 18.3938 39.15 18.6938 39.4313C18.9563 39.6938 19.3125 39.8438 19.6875 39.8438H19.8187L24.0375 39.45C24.3648 39.419 24.6704 39.2728 24.9 39.0375L36.8813 27.0375C38.3813 25.5563 38.325 22.875 36.7688 21.3187ZM34.8938 25.05L23.2687 36.6937L21.225 36.8813L21.375 34.8938L33 23.25C33.1875 23.0625 33.525 22.9875 33.8625 22.9688C34.2375 22.9688 34.575 23.1 34.7812 23.3063C35.2312 23.7375 35.2875 24.6562 34.8938 25.05Z" fill="#696969"/>
</svg>
