<?xml version="1.0" encoding="UTF-8"?>
<!DOCTYPE svg PUBLIC "-//W3C//DTD SVG 1.1//EN" "http://www.w3.org/Graphics/SVG/1.1/DTD/svg11.dtd">
<svg xmlns="http://www.w3.org/2000/svg" version="1.1" width="64px" height="64px" style="shape-rendering:geometricPrecision; text-rendering:geometricPrecision; image-rendering:optimizeQuality; fill-rule:evenodd; clip-rule:evenodd" xmlns:xlink="http://www.w3.org/1999/xlink">
<g><path style="opacity:0.751" fill="#000000" d="M 12.5,14.5 C 27.837,14.3334 43.1703,14.5001 58.5,15C 59,15.5 59.5,16 60,16.5C 60.6667,26.5 60.6667,36.5 60,46.5C 59.5,47 59,47.5 58.5,48C 43.1667,48.6667 27.8333,48.6667 12.5,48C 9.77282,45.7592 9.10615,43.0926 10.5,40C 11.448,39.5172 12.448,39.3505 13.5,39.5C 13.3505,40.552 13.5172,41.552 14,42.5C 17.7795,38.7091 21.6128,35.0424 25.5,31.5C 21.6128,27.9576 17.7795,24.2909 14,20.5C 13.5172,21.448 13.3505,22.448 13.5,23.5C 11.0523,23.9153 9.71893,22.9153 9.5,20.5C 9.9837,18.1992 10.9837,16.1992 12.5,14.5 Z M 16.5,18.5 C 28.9933,17.34 41.6599,17.1733 54.5,18C 48.0215,22.9775 41.6882,28.1441 35.5,33.5C 28.9546,28.7324 22.6212,23.7324 16.5,18.5 Z M 56.5,20.5 C 57.6552,27.6549 57.8218,34.9882 57,42.5C 52.685,39.0194 48.5184,35.3527 44.5,31.5C 48.546,27.7831 52.546,24.1165 56.5,20.5 Z M 28.5,34.5 C 30.5516,35.7102 32.7182,36.7102 35,37.5C 37.4845,37.1742 39.6512,36.1742 41.5,34.5C 45.978,37.8104 50.3114,41.3104 54.5,45C 41.8333,45.6667 29.1667,45.6667 16.5,45C 20.6932,41.6349 24.6932,38.1349 28.5,34.5 Z"/></g>
<g><path style="opacity:0.597" fill="#000000" d="M 6.5,26.5 C 9.8499,26.335 13.1832,26.5017 16.5,27C 17.8333,28 17.8333,29 16.5,30C 13.5,30.6667 10.5,30.6667 7.5,30C 6.66337,28.9887 6.33003,27.8221 6.5,26.5 Z"/></g>
<g><path style="opacity:0.6" fill="#000000" d="M 3.5,32.5 C 7.84611,32.3343 12.1794,32.501 16.5,33C 17.8333,34 17.8333,35 16.5,36C 11.8452,36.4992 7.17853,36.6658 2.5,36.5C 2.43255,35.0413 2.76589,33.7079 3.5,32.5 Z"/></g>
</svg>
