<?xml version="1.0" encoding="UTF-8"?>
<!DOCTYPE svg PUBLIC "-//W3C//DTD SVG 1.1//EN" "http://www.w3.org/Graphics/SVG/1.1/DTD/svg11.dtd">
<svg xmlns="http://www.w3.org/2000/svg" version="1.1" width="64px" height="64px" style="shape-rendering:geometricPrecision; text-rendering:geometricPrecision; image-rendering:optimizeQuality; fill-rule:evenodd; clip-rule:evenodd" xmlns:xlink="http://www.w3.org/1999/xlink">
<g><path style="opacity:0.763" fill="#f1841d" d="M 2.5,9.5 C 5.16667,9.5 7.83333,9.5 10.5,9.5C 11.5,10.1667 12.5,10.8333 13.5,11.5C 10.1667,11.5 6.83333,11.5 3.5,11.5C 2.66175,11.1583 2.32842,10.4916 2.5,9.5 Z"/></g>
<g><path style="opacity:0.767" fill="#f3901c" d="M 10.5,9.5 C 14.1667,9.5 17.8333,9.5 21.5,9.5C 22.1667,10.1667 22.8333,10.8333 23.5,11.5C 20.1667,11.5 16.8333,11.5 13.5,11.5C 12.5,10.8333 11.5,10.1667 10.5,9.5 Z"/></g>
<g><path style="opacity:0.763" fill="#f49d1a" d="M 21.5,9.5 C 24.8333,9.5 28.1667,9.5 31.5,9.5C 32.5,10.1667 33.5,10.8333 34.5,11.5C 30.8333,11.5 27.1667,11.5 23.5,11.5C 22.8333,10.8333 22.1667,10.1667 21.5,9.5 Z"/></g>
<g><path style="opacity:0.704" fill="#f8b515" d="M 42.5,9.5 C 46.1817,9.3347 49.8484,9.50137 53.5,10C 55.1134,12.2276 55.78,14.7276 55.5,17.5C 54.2905,17.0679 53.2905,16.4013 52.5,15.5C 52.719,14.325 52.3857,13.325 51.5,12.5C 49.2534,11.6258 46.9201,11.2924 44.5,11.5C 43.8333,10.8333 43.1667,10.1667 42.5,9.5 Z"/></g>
<g><path style="opacity:0.733" fill="#f5a918" d="M 31.5,9.5 C 35.1667,9.5 38.8333,9.5 42.5,9.5C 43.1667,10.1667 43.8333,10.8333 44.5,11.5C 41.1667,11.5 37.8333,11.5 34.5,11.5C 33.5,10.8333 32.5,10.1667 31.5,9.5 Z"/></g>
<g><path style="opacity:0.745" fill="#f17120" d="M 2.5,9.5 C 2.32842,10.4916 2.66175,11.1583 3.5,11.5C 2.97168,12.7206 2.30501,13.8873 1.5,15C 3.49131,15.3736 5.15797,16.207 6.5,17.5C 6.5,18.1667 6.5,18.8333 6.5,19.5C 4.88277,18.962 3.2161,18.6287 1.5,18.5C 0.833333,18.1667 0.166667,17.8333 -0.5,17.5C -0.5,15.8333 -0.5,14.1667 -0.5,12.5C 0.271873,11.3065 1.27187,10.3065 2.5,9.5 Z"/></g>
<g><path style="opacity:0.689" fill="#f26f1c" d="M 6.5,17.5 C 9.44317,17.9802 12.1098,18.9802 14.5,20.5C 14.1667,21.1667 13.8333,21.8333 13.5,22.5C 10.9823,21.7362 8.64895,20.7362 6.5,19.5C 6.5,18.8333 6.5,18.1667 6.5,17.5 Z"/></g>
<g><path style="opacity:0.63" fill="#f6a317" d="M 49.5,16.5 C 50.1667,17.1667 50.8333,17.8333 51.5,18.5C 49.7028,19.7298 47.7028,20.3964 45.5,20.5C 44.8333,20.1667 44.1667,19.8333 43.5,19.5C 45.2504,18.1302 47.2504,17.1302 49.5,16.5 Z"/></g>
<g><path style="opacity:0.416" fill="#f5a618" d="M 52.5,15.5 C 53.2905,16.4013 54.2905,17.0679 55.5,17.5C 55.5,20.1667 55.5,22.8333 55.5,25.5C 54.391,25.4431 53.391,25.1098 52.5,24.5C 52.7947,22.2646 52.4614,20.2646 51.5,18.5C 50.8333,17.8333 50.1667,17.1667 49.5,16.5C 50.391,15.8902 51.391,15.5569 52.5,15.5 Z"/></g>
<g><path style="opacity:0.641" fill="#f38d1c" d="M 43.5,19.5 C 44.1667,19.8333 44.8333,20.1667 45.5,20.5C 41.3509,22.7389 37.0175,24.7389 32.5,26.5C 32.6716,25.5084 32.3382,24.8417 31.5,24.5C 35.2132,22.315 39.2132,20.6483 43.5,19.5 Z"/></g>
<g><path style="opacity:1" fill="#f0751f" d="M 14.5,20.5 C 17.0177,21.2638 19.351,22.2638 21.5,23.5C 22.1667,24.5 22.8333,25.5 23.5,26.5C 20.082,25.3611 16.7487,24.0277 13.5,22.5C 13.8333,21.8333 14.1667,21.1667 14.5,20.5 Z"/></g>
<g><path style="opacity:0.708" fill="#f07a1e" d="M 21.5,23.5 C 24.7644,24.3242 28.0977,24.6576 31.5,24.5C 32.3382,24.8417 32.6716,25.5084 32.5,26.5C 29.4648,27.7335 26.4648,27.7335 23.5,26.5C 22.8333,25.5 22.1667,24.5 21.5,23.5 Z"/></g>
<g><path style="opacity:0.751" fill="#ec5a23" d="M -0.5,17.5 C 0.166667,17.8333 0.833333,18.1667 1.5,18.5C 1.5,22.5 1.5,26.5 1.5,30.5C 0.833333,30.5 0.166667,30.5 -0.5,30.5C -0.5,26.1667 -0.5,21.8333 -0.5,17.5 Z"/></g>
<g><path style="opacity:0.726" fill="#f2871c" d="M 48.5,27.5 C 49.1667,28.5 49.8333,29.5 50.5,30.5C 46.8707,30.4825 43.8707,31.8158 41.5,34.5C 41.1667,33.8333 40.8333,33.1667 40.5,32.5C 42.4894,29.8342 45.156,28.1675 48.5,27.5 Z"/></g>
<g><path style="opacity:0.752" fill="#f3951a" d="M 52.5,24.5 C 53.391,25.1098 54.391,25.4431 55.5,25.5C 55.3505,26.552 55.5172,27.552 56,28.5C 57.5185,29.1634 58.6851,30.1634 59.5,31.5C 59.1583,32.3382 58.4916,32.6716 57.5,32.5C 55.412,31.0605 53.0786,30.3939 50.5,30.5C 49.8333,29.5 49.1667,28.5 48.5,27.5C 49.8333,27.5 51.1667,27.5 52.5,27.5C 52.5,26.5 52.5,25.5 52.5,24.5 Z"/></g>
<g><path style="opacity:0.667" fill="#f4931c" d="M 59.5,31.5 C 61.0737,32.9842 62.407,34.6508 63.5,36.5C 63.5,37.1667 63.5,37.8333 63.5,38.5C 62.5,38.5 61.5,38.5 60.5,38.5C 60.0248,36.2163 59.0248,34.2163 57.5,32.5C 58.4916,32.6716 59.1583,32.3382 59.5,31.5 Z"/></g>
<g><path style="opacity:0.733" fill="#ef7220" d="M 40.5,32.5 C 40.8333,33.1667 41.1667,33.8333 41.5,34.5C 41.0293,36.5786 40.3627,38.5786 39.5,40.5C 38.8333,40.1667 38.1667,39.8333 37.5,39.5C 37.7073,36.7594 38.7073,34.4261 40.5,32.5 Z"/></g>
<g><path style="opacity:0.653" fill="#f1801d" d="M 48.5,37.5 C 50.2608,38.3127 51.9275,39.3127 53.5,40.5C 51.8333,40.5 50.1667,40.5 48.5,40.5C 47.7095,39.5987 46.7095,38.9321 45.5,38.5C 46.3478,32.9283 49.0144,31.5949 53.5,34.5C 51.4565,35.0652 49.7898,36.0652 48.5,37.5 Z"/></g>
<g><path style="opacity:0.572" fill="#f07d1e" d="M 48.5,37.5 C 51.1194,37.2317 53.6194,37.565 56,38.5C 56.4974,41.146 56.6641,43.8127 56.5,46.5C 55.5084,46.6716 54.8417,46.3382 54.5,45.5C 54.7845,43.5853 54.4511,41.9187 53.5,40.5C 51.9275,39.3127 50.2608,38.3127 48.5,37.5 Z"/></g>
<g><path style="opacity:0.666" fill="#e94226" d="M -0.5,30.5 C 0.166667,30.5 0.833333,30.5 1.5,30.5C 1.07925,34.7424 1.74591,38.7424 3.5,42.5C 2.5,42.5 1.5,42.5 0.5,42.5C 0.166667,42.5 -0.166667,42.5 -0.5,42.5C -0.5,38.5 -0.5,34.5 -0.5,30.5 Z"/></g>
<g><path style="opacity:0.661" fill="#f07223" d="M 49.5,41.5 C 50.5862,41.62 51.2528,42.2867 51.5,43.5C 51.1667,44.1667 50.8333,44.8333 50.5,45.5C 49.5713,44.3112 49.238,42.9778 49.5,41.5 Z"/></g>
<g><path style="opacity:0.607" fill="#f1821d" d="M 60.5,38.5 C 61.5,38.5 62.5,38.5 63.5,38.5C 63.5,40.5 63.5,42.5 63.5,44.5C 62.8333,44.5 62.5,44.8333 62.5,45.5C 61.8333,45.1667 61.1667,44.8333 60.5,44.5C 60.5,42.5 60.5,40.5 60.5,38.5 Z"/></g>
<g><path style="opacity:0.7" fill="#eb4027" d="M 0.5,42.5 C 1.5,42.5 2.5,42.5 3.5,42.5C 7.83333,42.5 12.1667,42.5 16.5,42.5C 17.3065,43.7281 18.3065,44.7281 19.5,45.5C 14.1563,45.666 8.82294,45.4994 3.5,45C 2.05773,44.6232 1.05773,43.7899 0.5,42.5 Z"/></g>
<g><path style="opacity:0.914" fill="#ec4d23" d="M 16.5,42.5 C 18.5,42.5 20.5,42.5 22.5,42.5C 23.8333,43.5 25.1667,44.5 26.5,45.5C 24.1667,45.5 21.8333,45.5 19.5,45.5C 18.3065,44.7281 17.3065,43.7281 16.5,42.5 Z"/></g>
<g><path style="opacity:0.726" fill="#ed6323" d="M 37.5,39.5 C 38.1667,39.8333 38.8333,40.1667 39.5,40.5C 40.0512,43.0561 41.0512,45.3894 42.5,47.5C 41.5,47.5 40.5,47.5 39.5,47.5C 38.6618,47.1583 38.3284,46.4916 38.5,45.5C 36.3713,44.7972 34.3713,43.7972 32.5,42.5C 34.1667,42.5 35.8333,42.5 37.5,42.5C 37.5,41.5 37.5,40.5 37.5,39.5 Z"/></g>
<g><path style="opacity:1" fill="#ed5921" d="M 22.5,42.5 C 25.8333,42.5 29.1667,42.5 32.5,42.5C 34.3713,43.7972 36.3713,44.7972 38.5,45.5C 34.5,45.5 30.5,45.5 26.5,45.5C 25.1667,44.5 23.8333,43.5 22.5,42.5 Z"/></g>
<g><path style="opacity:0.768" fill="#ef6b20" d="M 45.5,38.5 C 46.7095,38.9321 47.7095,39.5987 48.5,40.5C 46.2554,41.8278 45.9221,43.6612 47.5,46C 49.9291,46.7033 52.2625,46.5366 54.5,45.5C 54.8417,46.3382 55.5084,46.6716 56.5,46.5C 56.3893,47.1174 56.056,47.6174 55.5,48C 51.8484,48.4986 48.1817,48.6653 44.5,48.5C 44.1872,44.9581 44.5206,41.6248 45.5,38.5 Z"/></g>
<g><path style="opacity:0.682" fill="#ed5b22" d="M 39.5,47.5 C 40.5,47.5 41.5,47.5 42.5,47.5C 43.1667,47.8333 43.8333,48.1667 44.5,48.5C 46.6174,50.6545 49.284,51.6545 52.5,51.5C 53.1667,51.8333 53.8333,52.1667 54.5,52.5C 48.2191,54.902 43.2191,53.2353 39.5,47.5 Z"/></g>
<g><path style="opacity:0.751" fill="#f06e22" d="M 60.5,44.5 C 61.1667,44.8333 61.8333,45.1667 62.5,45.5C 61.0406,49.2974 58.3739,51.6307 54.5,52.5C 53.8333,52.1667 53.1667,51.8333 52.5,51.5C 55.7608,49.9098 58.4274,47.5765 60.5,44.5 Z"/></g>
</svg>
