<?xml version="1.0" encoding="UTF-8"?>
<!DOCTYPE svg PUBLIC "-//W3C//DTD SVG 1.1//EN" "http://www.w3.org/Graphics/SVG/1.1/DTD/svg11.dtd">
<svg xmlns="http://www.w3.org/2000/svg" version="1.1" width="512px" height="512px" style="shape-rendering:geometricPrecision; text-rendering:geometricPrecision; image-rendering:optimizeQuality; fill-rule:evenodd; clip-rule:evenodd" xmlns:xlink="http://www.w3.org/1999/xlink">
<g><path style="opacity:0.951" fill="#000000" d="M 232.5,-0.5 C 247.833,-0.5 263.167,-0.5 278.5,-0.5C 378.271,12.4486 449.438,64.4486 492,155.5C 502.136,180.379 508.636,206.046 511.5,232.5C 511.5,247.833 511.5,263.167 511.5,278.5C 498.551,378.271 446.551,449.438 355.5,492C 330.622,502.136 304.955,508.636 278.5,511.5C 263.167,511.5 247.833,511.5 232.5,511.5C 132.727,498.549 61.5605,446.549 19,355.5C 8.86392,330.621 2.36392,304.954 -0.5,278.5C -0.5,263.167 -0.5,247.833 -0.5,232.5C 12.4486,132.729 64.4486,61.5622 155.5,19C 180.379,8.86392 206.046,2.36392 232.5,-0.5 Z M 253.5,23.5 C 343.738,26.6759 411.904,66.6759 458,143.5C 491.561,208.021 495.561,274.354 470,342.5C 437.345,416.146 381.845,462.646 303.5,482C 212.392,497.635 136.558,470.801 76,401.5C 21.843,330.41 10.1763,252.743 41,168.5C 76.8505,88.0032 138.351,40.5032 225.5,26C 234.985,25.1467 244.319,24.3134 253.5,23.5 Z M 155.5,175.5 C 221.999,174.335 288.665,174.168 355.5,175C 322.571,201.771 289.238,227.938 255.5,253.5C 221.887,227.891 188.554,201.891 155.5,175.5 Z M 130.5,187.5 C 170.338,219.167 210.338,250.667 250.5,282C 256.018,283.287 261.018,282.287 265.5,279C 303.758,248.62 341.925,218.12 380,187.5C 380.828,236.541 380.662,285.541 379.5,334.5C 378.975,335.192 378.308,335.692 377.5,336C 295.793,336.83 214.126,336.664 132.5,335.5C 131.808,334.975 131.308,334.308 131,333.5C 130.5,284.834 130.333,236.168 130.5,187.5 Z"/></g>
<g><path style="opacity:0.958" fill="#000000" d="M 129.5,149.5 C 213.501,149.333 297.501,149.5 381.5,150C 394,153.167 401.833,161 405,173.5C 405.667,228.167 405.667,282.833 405,337.5C 401.833,350 394,357.833 381.5,361C 297.5,361.667 213.5,361.667 129.5,361C 117,357.833 109.167,350 106,337.5C 105.333,282.833 105.333,228.167 106,173.5C 109.349,160.985 117.182,152.985 129.5,149.5 Z M 155.5,175.5 C 188.554,201.891 221.887,227.891 255.5,253.5C 289.238,227.938 322.571,201.771 355.5,175C 288.665,174.168 221.999,174.335 155.5,175.5 Z M 130.5,187.5 C 130.333,236.168 130.5,284.834 131,333.5C 131.308,334.308 131.808,334.975 132.5,335.5C 214.126,336.664 295.793,336.83 377.5,336C 378.308,335.692 378.975,335.192 379.5,334.5C 380.662,285.541 380.828,236.541 380,187.5C 341.925,218.12 303.758,248.62 265.5,279C 261.018,282.287 256.018,283.287 250.5,282C 210.338,250.667 170.338,219.167 130.5,187.5 Z"/></g>
</svg>
