<?xml version="1.0" encoding="UTF-8"?>
<!DOCTYPE svg PUBLIC "-//W3C//DTD SVG 1.1//EN" "http://www.w3.org/Graphics/SVG/1.1/DTD/svg11.dtd">
<svg xmlns="http://www.w3.org/2000/svg" version="1.1" width="64px" height="64px" style="shape-rendering:geometricPrecision; text-rendering:geometricPrecision; image-rendering:optimizeQuality; fill-rule:evenodd; clip-rule:evenodd" xmlns:xlink="http://www.w3.org/1999/xlink">
<g><path style="opacity:0.765" fill="#2c3551" d="M 36.5,10.5 C 36.5,9.83333 36.5,9.16667 36.5,8.5C 38.5,8.5 40.5,8.5 42.5,8.5C 42.7394,6.5328 42.4061,4.69946 41.5,3C 32.1726,2.50021 22.8393,2.33355 13.5,2.5C 13.5,4.5 13.5,6.5 13.5,8.5C 15.1667,8.5 16.8333,8.5 18.5,8.5C 19.8333,9.16667 19.8333,9.83333 18.5,10.5C 16.8333,10.5 15.1667,10.5 13.5,10.5C 13.5,12.5 13.5,14.5 13.5,16.5C 15.1667,16.5 16.8333,16.5 18.5,16.5C 19.8333,17.5 19.8333,18.5 18.5,19.5C 16.8333,19.5 15.1667,19.5 13.5,19.5C 13.5,21.5 13.5,23.5 13.5,25.5C 15.1667,25.5 16.8333,25.5 18.5,25.5C 19.8333,26.1667 19.8333,26.8333 18.5,27.5C 16.8333,27.5 15.1667,27.5 13.5,27.5C 13.5,29.5 13.5,31.5 13.5,33.5C 15.1667,33.5 16.8333,33.5 18.5,33.5C 19.8333,34.1667 19.8333,34.8333 18.5,35.5C 16.8333,35.5 15.1667,35.5 13.5,35.5C 13.5,40.8333 13.5,46.1667 13.5,51.5C 22.8393,51.6665 32.1726,51.4998 41.5,51C 42.4714,45.9283 42.8047,40.7616 42.5,35.5C 40.5,35.5 38.5,35.5 36.5,35.5C 36.5,34.8333 36.5,34.1667 36.5,33.5C 38.9201,33.7076 41.2534,33.3742 43.5,32.5C 44.4732,42.7743 44.4732,52.6077 43.5,62C 32.8333,62.6667 22.1667,62.6667 11.5,62C 9.87558,58.7944 10.5422,56.1277 13.5,54C 12.5838,53.6258 11.7504,53.1258 11,52.5C 10.3333,35.5 10.3333,18.5 11,1.5C 21.7567,0.347108 32.59,0.180441 43.5,1C 44.7948,4.7864 44.7948,8.61974 43.5,12.5C 41.4775,10.8267 39.1441,10.1601 36.5,10.5 Z M 36.5,8.5 C 34.0849,7.18578 31.2515,6.51911 28,6.5C 25.1667,6.66667 22.3333,6.83333 19.5,7C 18.944,7.38258 18.6107,7.88258 18.5,8.5C 16.8333,8.5 15.1667,8.5 13.5,8.5C 13.5,6.5 13.5,4.5 13.5,2.5C 22.8393,2.33355 32.1726,2.50021 41.5,3C 42.4061,4.69946 42.7394,6.5328 42.5,8.5C 40.5,8.5 38.5,8.5 36.5,8.5 Z M 18.5,35.5 C 21.0866,36.8164 24.0866,37.483 27.5,37.5C 30.9134,37.483 33.9134,36.8164 36.5,35.5C 38.5,35.5 40.5,35.5 42.5,35.5C 42.8047,40.7616 42.4714,45.9283 41.5,51C 32.1726,51.4998 22.8393,51.6665 13.5,51.5C 13.5,46.1667 13.5,40.8333 13.5,35.5C 15.1667,35.5 16.8333,35.5 18.5,35.5 Z M 14.5,57.5 C 15.5,60.1667 16.5,60.1667 17.5,57.5C 24.5,57.5 31.5,57.5 38.5,57.5C 38.8212,59.0481 39.8212,59.7148 41.5,59.5C 32.3483,60.4936 23.015,60.8269 13.5,60.5C 13.2627,59.209 13.596,58.209 14.5,57.5 Z"/></g>
<g><path style="opacity:0.758" fill="#61c2e9" d="M 36.5,8.5 C 36.5,9.16667 36.5,9.83333 36.5,10.5C 34.0849,11.8142 31.2515,12.4809 28,12.5C 25.1667,12.3333 22.3333,12.1667 19.5,12C 18.944,11.6174 18.6107,11.1174 18.5,10.5C 19.8333,9.83333 19.8333,9.16667 18.5,8.5C 18.6107,7.88258 18.944,7.38258 19.5,7C 22.3333,6.83333 25.1667,6.66667 28,6.5C 31.2515,6.51911 34.0849,7.18578 36.5,8.5 Z"/></g>
<g><path style="opacity:0.739" fill="#2c344f" d="M 41.5,13.5 C 43.7224,13.178 45.5557,13.8446 47,15.5C 55.8767,29.9856 51.8767,34.6522 35,29.5C 35.1925,23.4372 37.3592,18.1039 41.5,13.5 Z M 44.5,17.5 C 52.7481,27.4469 50.4148,30.9469 37.5,28C 37.0426,27.586 36.7093,27.086 36.5,26.5C 38.4203,23.6612 40.0869,20.6612 41.5,17.5C 42.6136,16.2241 43.6136,16.2241 44.5,17.5 Z"/></g>
<g><path style="opacity:0.906" fill="#62c2e9" d="M 18.5,19.5 C 19.8333,18.5 19.8333,17.5 18.5,16.5C 24.31,15.5104 30.31,15.1771 36.5,15.5C 36.5792,16.9305 36.2458,18.2638 35.5,19.5C 29.6796,20.8157 24.0129,20.8157 18.5,19.5 Z"/></g>
<g><path style="opacity:0.882" fill="#f06367" d="M 44.5,17.5 C 44.8204,20.8984 44.487,24.2317 43.5,27.5C 43.1667,25.8333 42.8333,24.1667 42.5,22.5C 42.5561,20.3603 43.2227,18.6936 44.5,17.5 Z"/></g>
<g><path style="opacity:0.852" fill="#62c3ea" d="M 18.5,27.5 C 19.8333,26.8333 19.8333,26.1667 18.5,25.5C 18.6107,24.8826 18.944,24.3826 19.5,24C 23.8206,23.501 28.1539,23.3343 32.5,23.5C 32.5,25.5 32.5,27.5 32.5,29.5C 28.1539,29.6657 23.8206,29.499 19.5,29C 18.944,28.6174 18.6107,28.1174 18.5,27.5 Z"/></g>
<g><path style="opacity:0.771" fill="#62c2e9" d="M 36.5,33.5 C 36.5,34.1667 36.5,34.8333 36.5,35.5C 33.9134,36.8164 30.9134,37.483 27.5,37.5C 24.0866,37.483 21.0866,36.8164 18.5,35.5C 19.8333,34.8333 19.8333,34.1667 18.5,33.5C 18.6107,32.8826 18.944,32.3826 19.5,32C 24.8333,31.3333 30.1667,31.3333 35.5,32C 36.056,32.3826 36.3893,32.8826 36.5,33.5 Z"/></g>
<g><path style="opacity:0.764" fill="#f26366" d="M 22.5,42.5 C 23.8333,42.5 25.1667,42.5 26.5,42.5C 26.8841,44.6648 26.2174,46.3315 24.5,47.5C 22.7826,46.3315 22.1159,44.6648 22.5,42.5 Z"/></g>
<g><path style="opacity:0.707" fill="#f36264" d="M 28.5,42.5 C 32.0229,42.188 33.3563,43.5213 32.5,46.5C 29.0797,47.7527 27.7464,46.4193 28.5,42.5 Z"/></g>
<g><path style="opacity:0.711" fill="#f36163" d="M 35.5,42.5 C 39.1612,42.3501 40.1612,43.8501 38.5,47C 34.7071,47.4866 33.7071,45.9866 35.5,42.5 Z"/></g>
<g><path style="opacity:0.776" fill="#f16568" d="M 16.5,42.5 C 17.8333,42.5 19.1667,42.5 20.5,42.5C 20.8841,44.6648 20.2174,46.3315 18.5,47.5C 16.7826,46.3315 16.1159,44.6648 16.5,42.5 Z"/></g>
<g><path style="opacity:0.58" fill="#f16366" d="M 14.5,57.5 C 15.5,57.5 16.5,57.5 17.5,57.5C 16.5,60.1667 15.5,60.1667 14.5,57.5 Z"/></g>
<g><path style="opacity:0.705" fill="#f4686a" d="M 38.5,57.5 C 40.1788,57.2852 41.1788,57.9519 41.5,59.5C 39.8212,59.7148 38.8212,59.0481 38.5,57.5 Z"/></g>
</svg>
