<svg width="26" height="26" viewBox="0 0 26 26" fill="none" xmlns="http://www.w3.org/2000/svg">
<g clip-path="url(#clip0_111_948)">
<path d="M18.4165 2.3042C20.1769 2.47753 21.3632 2.86862 22.2461 3.7537C23.8332 5.3397 23.8332 7.89312 23.8332 12.9999C23.8332 18.1068 23.8332 20.6602 22.2461 22.2473C20.6612 23.8333 18.1067 23.8333 12.9998 23.8333C7.893 23.8333 5.33959 23.8333 3.7525 22.2473C2.1665 20.6591 2.1665 18.1068 2.1665 12.9999C2.1665 7.89312 2.1665 5.34078 3.7525 3.7537C4.63759 2.86862 5.82167 2.47753 7.58317 2.3042" stroke="#DF1A1A" stroke-width="2.8125" stroke-linecap="round"/>
<path d="M13 10.8333V2.16663M13 2.16663L16.25 5.41663M13 2.16663L9.75 5.41663" stroke="#DF1A1A" stroke-width="2.8125" stroke-linecap="round" stroke-linejoin="round"/>
<path d="M2.1665 14.0833H5.58984C6.57025 14.0833 7.061 14.0833 7.49217 14.2815C7.92334 14.4798 8.24184 14.8524 8.87992 15.5967L9.53642 16.3615C10.1745 17.1058 10.493 17.4784 10.9242 17.6767C11.3553 17.8749 11.845 17.8749 12.8265 17.8749H13.1732C14.1536 17.8749 14.6443 17.8749 15.0755 17.6767C15.5067 17.4784 15.8252 17.1058 16.4633 16.3615L17.1198 15.5967C17.7578 14.8524 18.0763 14.4798 18.5075 14.2815C18.9387 14.0833 19.4283 14.0833 20.4098 14.0833H23.8332" stroke="#DF1A1A" stroke-width="2.8125" stroke-linecap="round"/>
</g>
<defs>
<clipPath id="clip0_111_948">
<rect width="26" height="26" fill="white"/>
</clipPath>
</defs>
</svg>
