<?xml version="1.0" encoding="UTF-8"?>
<!DOCTYPE svg PUBLIC "-//W3C//DTD SVG 1.1//EN" "http://www.w3.org/Graphics/SVG/1.1/DTD/svg11.dtd">
<svg xmlns="http://www.w3.org/2000/svg" version="1.1" width="64px" height="64px" style="shape-rendering:geometricPrecision; text-rendering:geometricPrecision; image-rendering:optimizeQuality; fill-rule:evenodd; clip-rule:evenodd" xmlns:xlink="http://www.w3.org/1999/xlink">
<g><path style="opacity:0.928" fill="#0a98ca" d="M 46.5,-0.5 C 47.8333,-0.5 49.1667,-0.5 50.5,-0.5C 52.5296,1.53659 54.1963,3.86993 55.5,6.5C 52.9136,9.61447 51.9136,13.2811 52.5,17.5C 49.8333,17.5 47.1667,17.5 44.5,17.5C 44.8285,13.646 44.1618,9.97932 42.5,6.5C 43.5761,4.01385 44.9094,1.68052 46.5,-0.5 Z"/></g>
<g><path style="opacity:0.933" fill="#22a3c9" d="M 35.5,24.5 C 35.5,25.1667 35.1667,25.5 34.5,25.5C 32.3926,24.5318 30.0593,24.1984 27.5,24.5C 27.8285,20.646 27.1618,16.9793 25.5,13.5C 29.5,4.16667 33.5,4.16667 37.5,13.5C 35.8382,16.9793 35.1715,20.646 35.5,24.5 Z"/></g>
<g><path style="opacity:0.933" fill="#3baec9" d="M 11.5,14.5 C 16.5081,14.1682 19.5081,16.5015 20.5,21.5C 19.0412,24.6687 18.2078,28.002 18,31.5C 15.6194,32.435 13.1194,32.7683 10.5,32.5C 11.0864,28.2811 10.0864,24.6145 7.5,21.5C 8.88889,19.1324 10.2222,16.7991 11.5,14.5 Z"/></g>
<g><path style="opacity:0.742" fill="#179eca" d="M 38.5,23.5 C 43.5,23.5 48.5,23.5 53.5,23.5C 52.3915,24.29 51.0581,24.79 49.5,25C 51.3773,27.2513 52.8773,29.7513 54,32.5C 55.6225,33.0989 57.1225,33.7656 58.5,34.5C 53.8333,34.5 49.1667,34.5 44.5,34.5C 41.7256,31.2867 39.7256,27.62 38.5,23.5 Z"/></g>
<g><path style="opacity:0.877" fill="#0c98ca" d="M 53.5,23.5 C 57.0847,23.1524 60.418,23.819 63.5,25.5C 63.5,27.8333 63.5,30.1667 63.5,32.5C 62.1667,32.8333 62.1667,33.1667 63.5,33.5C 63.5,35.5 63.5,37.5 63.5,39.5C 62.1667,39.8333 62.1667,40.1667 63.5,40.5C 63.5,44.5 63.5,48.5 63.5,52.5C 62.35,49.462 60.85,46.462 59,43.5C 58.5065,41.8659 58.3398,40.1992 58.5,38.5C 59.5862,38.38 60.2528,37.7133 60.5,36.5C 60.2528,35.2867 59.5862,34.62 58.5,34.5C 57.1225,33.7656 55.6225,33.0989 54,32.5C 52.8773,29.7513 51.3773,27.2513 49.5,25C 51.0581,24.79 52.3915,24.29 53.5,23.5 Z"/></g>
<g><path style="opacity:0.928" fill="#23a3ca" d="M 38.5,23.5 C 39.7256,27.62 41.7256,31.2867 44.5,34.5C 43.7611,34.369 43.0944,34.5357 42.5,35C 43.6364,36.1451 44.6364,37.3117 45.5,38.5C 47.9884,41.4658 49.9884,44.7991 51.5,48.5C 49.8333,48.5 48.1667,48.5 46.5,48.5C 45.7368,46.6316 44.7368,44.9649 43.5,43.5C 43.5,42.8333 43.1667,42.5 42.5,42.5C 42.7373,41.209 42.404,40.209 41.5,39.5C 41.6716,38.5084 41.3382,37.8417 40.5,37.5C 40.5,36.8333 40.1667,36.5 39.5,36.5C 39.5,35.8333 39.1667,35.5 38.5,35.5C 38.1583,34.6618 37.4916,34.3284 36.5,34.5C 35.791,33.596 34.791,33.2627 33.5,33.5C 33.5,32.8333 33.1667,32.5 32.5,32.5C 30.9689,31.0755 31.3023,30.4088 33.5,30.5C 34.4511,29.0813 34.7845,27.4147 34.5,25.5C 35.1667,25.5 35.5,25.1667 35.5,24.5C 36.391,23.8902 37.391,23.5569 38.5,23.5 Z"/></g>
<g><path style="opacity:0.923" fill="#35acc9" d="M 26.5,34.5 C 27.5,34.5 28.5,34.5 29.5,34.5C 29.6287,36.2161 29.962,37.8828 30.5,39.5C 30.8417,40.3382 31.5084,40.6716 32.5,40.5C 32.5,41.1667 32.8333,41.5 33.5,41.5C 33.5,41.8333 33.5,42.1667 33.5,42.5C 33.5,43.1667 33.5,43.8333 33.5,44.5C 32.1667,44.8333 32.1667,45.1667 33.5,45.5C 33.5,46.1667 33.5,46.8333 33.5,47.5C 32.8333,47.5 32.5,47.8333 32.5,48.5C 31.8333,48.5 31.1667,48.5 30.5,48.5C 30.5,47.8333 30.1667,47.5 29.5,47.5C 29.1667,46.1667 28.8333,46.1667 28.5,47.5C 26.8847,44.5505 24.8847,41.8838 22.5,39.5C 22.5,38.8333 22.5,38.1667 22.5,37.5C 23.1667,37.5 23.5,37.1667 23.5,36.5C 24.1667,36.5 24.5,36.1667 24.5,35.5C 25.4916,35.6716 26.1583,35.3382 26.5,34.5 Z"/></g>
<g><path style="opacity:0.951" fill="#2fa8ca" d="M 29.5,33.5 C 30.8333,33.5 32.1667,33.5 33.5,33.5C 34.209,34.404 35.209,34.7373 36.5,34.5C 36.8417,35.3382 37.5084,35.6716 38.5,35.5C 39.1667,35.5 39.5,35.8333 39.5,36.5C 40.1667,36.5 40.5,36.8333 40.5,37.5C 40.3284,38.4916 40.6618,39.1583 41.5,39.5C 41.2627,40.791 41.596,41.791 42.5,42.5C 42.5,43.8333 42.5,45.1667 42.5,46.5C 41.596,47.209 41.2627,48.209 41.5,49.5C 40.6618,49.8417 40.3284,50.5084 40.5,51.5C 39.8333,51.5 39.5,51.8333 39.5,52.5C 38.8333,52.5 38.5,52.8333 38.5,53.5C 37.5084,53.3284 36.8417,53.6618 36.5,54.5C 35.5,54.5 34.5,54.5 33.5,54.5C 33.4894,52.9826 32.8228,51.8159 31.5,51C 32.056,50.6174 32.3893,50.1174 32.5,49.5C 32.5,49.1667 32.5,48.8333 32.5,48.5C 32.5,47.8333 32.8333,47.5 33.5,47.5C 34.8333,46.8333 34.8333,46.1667 33.5,45.5C 33.5,45.1667 33.5,44.8333 33.5,44.5C 33.5,43.8333 33.5,43.1667 33.5,42.5C 34.8333,42.1667 34.8333,41.8333 33.5,41.5C 32.8333,41.5 32.5,41.1667 32.5,40.5C 32.1583,39.6618 31.4916,39.3284 30.5,39.5C 29.962,37.8828 29.6287,36.2161 29.5,34.5C 29.5,34.1667 29.5,33.8333 29.5,33.5 Z"/></g>
<g><path style="opacity:0.722" fill="#3eafc9" d="M 33.5,30.5 C 31.3023,30.4088 30.9689,31.0755 32.5,32.5C 31.209,32.2627 30.209,32.596 29.5,33.5C 28.209,33.2627 27.209,33.596 26.5,34.5C 25.5084,34.3284 24.8417,34.6618 24.5,35.5C 23.8333,35.5 23.5,35.8333 23.5,36.5C 22.8333,36.5 22.5,36.8333 22.5,37.5C 21.6618,37.8417 21.3284,38.5084 21.5,39.5C 20.596,40.209 20.2627,41.209 20.5,42.5C 19.5655,43.5676 19.2322,44.901 19.5,46.5C 18.3263,45.4863 17.6596,44.153 17.5,42.5C 16.4324,41.5655 15.099,41.2322 13.5,41.5C 12.0998,40.8999 11.0998,39.8999 10.5,38.5C 13.2469,38.8134 15.9135,38.48 18.5,37.5C 22.0761,31.538 27.0761,29.2047 33.5,30.5 Z"/></g>
<g><path style="opacity:0.856" fill="#189eca" d="M 45.5,38.5 C 49.8333,38.5 54.1667,38.5 58.5,38.5C 58.3398,40.1992 58.5065,41.8659 59,43.5C 60.85,46.462 62.35,49.462 63.5,52.5C 63.5,53.1667 63.5,53.8333 63.5,54.5C 62.8333,54.5 62.5,54.8333 62.5,55.5C 61.8333,54.8333 61.1667,54.1667 60.5,53.5C 60.7135,51.8561 60.3802,50.3561 59.5,49C 56.854,48.5026 54.1873,48.3359 51.5,48.5C 49.9884,44.7991 47.9884,41.4658 45.5,38.5 Z"/></g>
<g><path style="opacity:0.944" fill="#3dafc8" d="M 21.5,39.5 C 21.8333,39.5 22.1667,39.5 22.5,39.5C 24.8847,41.8838 26.8847,44.5505 28.5,47.5C 28.8333,47.5 29.1667,47.5 29.5,47.5C 30.1667,47.5 30.5,47.8333 30.5,48.5C 30.8417,49.3382 31.5084,49.6716 32.5,49.5C 32.3893,50.1174 32.056,50.6174 31.5,51C 32.8228,51.8159 33.4894,52.9826 33.5,54.5C 31.302,55.0671 28.9686,55.0671 26.5,54.5C 26.1583,53.6618 25.4916,53.3284 24.5,53.5C 24.5,52.8333 24.1667,52.5 23.5,52.5C 23.5,51.8333 23.1667,51.5 22.5,51.5C 22.6716,50.5084 22.3382,49.8417 21.5,49.5C 21.7373,48.209 21.404,47.209 20.5,46.5C 20.5,45.1667 20.5,43.8333 20.5,42.5C 21.404,41.791 21.7373,40.791 21.5,39.5 Z"/></g>
<g><path style="opacity:0.85" fill="#57bbc9" d="M 10.5,38.5 C 11.0998,39.8999 12.0998,40.8999 13.5,41.5C 9.83333,41.5 6.16667,41.5 2.5,41.5C 1.83333,45.5 3.5,47.1667 7.5,46.5C 9.71279,49.5922 11.3795,52.9256 12.5,56.5C 9.16667,56.5 5.83333,56.5 2.5,56.5C 2.28649,58.1439 2.61983,59.6439 3.5,61C 10.8258,61.4997 18.1591,61.6663 25.5,61.5C 25.5,60.5 25.5,59.5 25.5,58.5C 26.6737,59.5137 27.3404,60.847 27.5,62.5C 27.5,62.8333 27.5,63.1667 27.5,63.5C 18.5,63.5 9.5,63.5 0.5,63.5C 0.5,62.8333 0.166667,62.5 -0.5,62.5C -0.5,60.1667 -0.5,57.8333 -0.5,55.5C 0.833333,55.1667 0.833333,54.8333 -0.5,54.5C -0.5,49.8333 -0.5,45.1667 -0.5,40.5C 2.84616,38.6764 6.51282,38.0097 10.5,38.5 Z"/></g>
<g><path style="opacity:0.912" fill="#47b5c9" d="M 17.5,42.5 C 17.6596,44.153 18.3263,45.4863 19.5,46.5C 19.8333,46.5 20.1667,46.5 20.5,46.5C 20.2627,47.791 20.596,48.791 21.5,49.5C 21.3284,50.4916 21.6618,51.1583 22.5,51.5C 23.1667,51.5 23.5,51.8333 23.5,52.5C 24.1667,52.5 24.5,52.8333 24.5,53.5C 24.8417,54.3382 25.5084,54.6716 26.5,54.5C 28.5145,55.9238 30.8478,56.5905 33.5,56.5C 33.8333,57.1667 34.1667,57.8333 34.5,58.5C 32.795,59.5353 31.1284,59.5353 29.5,58.5C 28.8281,59.9492 28.1614,61.2825 27.5,62.5C 27.3404,60.847 26.6737,59.5137 25.5,58.5C 25.0825,57.7784 24.4158,57.2784 23.5,57C 19.8484,56.5014 16.1817,56.3347 12.5,56.5C 11.3795,52.9256 9.71279,49.5922 7.5,46.5C 10.5,46.5 13.5,46.5 16.5,46.5C 16.2322,44.901 16.5655,43.5676 17.5,42.5 Z"/></g>
<g><path style="opacity:0.918" fill="#2da8c9" d="M 43.5,43.5 C 44.7368,44.9649 45.7368,46.6316 46.5,48.5C 42.1849,53.1421 43.5182,54.8088 50.5,53.5C 51.6417,57.1168 53.3084,60.4502 55.5,63.5C 48.8333,63.5 42.1667,63.5 35.5,63.5C 34.6993,61.9582 34.366,60.2915 34.5,58.5C 34.1667,57.8333 33.8333,57.1667 33.5,56.5C 34.5,55.8333 35.5,55.1667 36.5,54.5C 37.4916,54.6716 38.1583,54.3382 38.5,53.5C 39.1667,53.5 39.5,53.1667 39.5,52.5C 40.1667,52.5 40.5,52.1667 40.5,51.5C 41.3382,51.1583 41.6716,50.4916 41.5,49.5C 42.404,48.791 42.7373,47.791 42.5,46.5C 43.404,45.791 43.7373,44.791 43.5,43.5 Z"/></g>
<g><path style="opacity:0.883" fill="#1fa0ca" d="M 50.5,53.5 C 53.8333,53.5 57.1667,53.5 60.5,53.5C 61.1667,54.1667 61.8333,54.8333 62.5,55.5C 62.8333,55.5 63.1667,55.5 63.5,55.5C 63.5,57.8333 63.5,60.1667 63.5,62.5C 62.8333,62.5 62.5,62.8333 62.5,63.5C 60.1667,63.5 57.8333,63.5 55.5,63.5C 53.3084,60.4502 51.6417,57.1168 50.5,53.5 Z"/></g>
</svg>
