<svg width="45" height="45" viewBox="0 0 45 45" fill="none" xmlns="http://www.w3.org/2000/svg">
<path d="M37.9688 13.0078H22.9377L18.0334 8.10352C17.8052 7.87454 17.534 7.69297 17.2353 7.56928C16.9366 7.44559 16.6164 7.38222 16.2932 7.38282H7.03125C6.37857 7.38282 5.75262 7.64209 5.2911 8.10361C4.82959 8.56512 4.57031 9.19107 4.57031 9.84375V35.2652C4.57078 35.8889 4.81872 36.4868 5.2597 36.9278C5.70067 37.3688 6.29863 37.6167 6.92227 37.6172H38.1252C38.7362 37.6167 39.3221 37.3738 39.7542 36.9417C40.1863 36.5096 40.4292 35.9237 40.4297 35.3127V15.4688C40.4297 14.8161 40.1704 14.1901 39.7089 13.7286C39.2474 13.2671 38.6214 13.0078 37.9688 13.0078ZM7.03125 9.49219H16.2932C16.3863 9.49258 16.4754 9.52988 16.541 9.5959L19.9529 13.0078H6.67969V9.84375C6.67969 9.75051 6.71673 9.66109 6.78266 9.59516C6.84859 9.52923 6.93801 9.49219 7.03125 9.49219ZM38.3203 35.3127C38.3203 35.3644 38.2998 35.4141 38.2632 35.4507C38.2266 35.4873 38.1769 35.5078 38.1252 35.5078H6.92227C6.85821 35.5069 6.79704 35.4811 6.75174 35.4358C6.70644 35.3905 6.6806 35.3293 6.67969 35.2652V15.1172H37.9688C38.062 15.1172 38.1514 15.1542 38.2173 15.2202C38.2833 15.2861 38.3203 15.3755 38.3203 15.4688V35.3127Z" fill="#696969"/>
</svg>
