<svg width="36" height="36" viewBox="0 0 36 36" fill="none" xmlns="http://www.w3.org/2000/svg">
<path d="M15 12H30M6 24H21" stroke="white" stroke-width="1.875" stroke-linecap="round"/>
<path d="M6 12C6 14.4853 8.01472 16.5 10.5 16.5C12.9853 16.5 15 14.4853 15 12C15 9.51472 12.9853 7.5 10.5 7.5C8.01472 7.5 6 9.51472 6 12Z" stroke="white" stroke-width="1.875" stroke-linecap="round"/>
<path d="M21 24C21 26.4853 23.0147 28.5 25.5 28.5C27.9853 28.5 30 26.4853 30 24C30 21.5147 27.9853 19.5 25.5 19.5C23.0147 19.5 21 21.5147 21 24Z" stroke="white" stroke-width="1.875" stroke-linecap="round"/>
</svg>
