<?xml version="1.0" encoding="UTF-8"?>
<!DOCTYPE svg PUBLIC "-//W3C//DTD SVG 1.1//EN" "http://www.w3.org/Graphics/SVG/1.1/DTD/svg11.dtd">
<svg xmlns="http://www.w3.org/2000/svg" version="1.1" width="512px" height="512px" style="shape-rendering:geometricPrecision; text-rendering:geometricPrecision; image-rendering:optimizeQuality; fill-rule:evenodd; clip-rule:evenodd" xmlns:xlink="http://www.w3.org/1999/xlink">
<g><path style="opacity:0.964" fill="#000000" d="M 247.5,63.5 C 256.506,63.3336 265.506,63.5002 274.5,64C 287.373,68.6157 290.873,77.1157 285,89.5C 278.446,95.6786 270.779,97.6786 262,95.5C 190.332,96.6446 138.999,129.311 108,193.5C 85.285,253.871 93.9517,309.204 134,359.5C 180.161,408.885 235.994,425.052 301.5,408C 364.289,385.936 401.456,342.103 413,276.5C 415.192,258.764 414.692,241.098 411.5,223.5C 412.159,212.841 417.825,207.175 428.5,206.5C 435.89,207.106 441.057,210.772 444,217.5C 456.5,291.675 435,353.842 379.5,404C 321.893,448.984 258.226,459.984 188.5,437C 116.326,407.472 74.8262,353.972 64,276.5C 58.668,203.443 84.8347,144.61 142.5,100C 174.12,77.9608 209.12,65.7941 247.5,63.5 Z"/></g>
<g><path style="opacity:0.977" fill="#000000" d="M 345.5,63.5 C 370.836,63.3334 396.169,63.5 421.5,64C 426,65.8333 429.167,69 431,73.5C 431.667,98.8333 431.667,124.167 431,149.5C 426.527,158.482 419.36,161.649 409.5,159C 405,157.167 401.833,154 400,149.5C 399.667,139.5 399.333,129.5 399,119.5C 381.167,137.333 363.333,155.167 345.5,173C 331.087,179.127 322.087,174.627 318.5,159.5C 319.055,155.946 320.221,152.613 322,149.5C 339.833,131.667 357.667,113.833 375.5,96C 365.5,95.6667 355.5,95.3333 345.5,95C 336.518,90.5269 333.351,83.3603 336,73.5C 338.022,68.98 341.189,65.6467 345.5,63.5 Z"/></g>
<g><path style="opacity:0.966" fill="#000000" d="M 249.5,143.5 C 259.36,141.35 266.527,144.683 271,153.5C 271.169,161.188 271.669,168.855 272.5,176.5C 289.358,179.006 302.858,187.006 313,200.5C 319.765,210.934 321.098,221.934 317,233.5C 310.055,240.069 302.222,241.236 293.5,237C 290.894,235.062 289.061,232.562 288,229.5C 287.947,218.879 282.78,212.379 272.5,210C 258.55,206.662 244.883,207.662 231.5,213C 223.47,218.241 222.47,224.575 228.5,232C 232.935,235.368 237.935,237.368 243.5,238C 254.525,238.793 265.525,239.793 276.5,241C 309.851,249.241 323.351,270.074 317,303.5C 307.464,321.868 292.298,332.202 271.5,334.5C 271.666,342.174 271.5,349.841 271,357.5C 268.193,364.487 263.027,367.82 255.5,367.5C 247.973,367.82 242.807,364.487 240,357.5C 239.5,349.841 239.334,342.174 239.5,334.5C 215.072,331.9 199.239,318.9 192,295.5C 188.837,278.002 196.003,270.168 213.5,272C 216.562,273.061 219.062,274.894 221,277.5C 222.772,282.453 224.438,287.453 226,292.5C 230.469,298.107 236.302,301.273 243.5,302C 255.82,304.03 267.82,302.697 279.5,298C 288.965,290.622 288.631,283.622 278.5,277C 275.911,275.803 273.244,274.803 270.5,274C 258.537,272.402 246.537,271.069 234.5,270C 201.149,261.759 187.649,240.926 194,207.5C 199.244,195.29 208.078,186.79 220.5,182C 226.407,179.857 232.407,178.023 238.5,176.5C 239.331,168.855 239.831,161.188 240,153.5C 242.022,148.98 245.189,145.647 249.5,143.5 Z"/></g>
</svg>
