<?xml version="1.0" encoding="UTF-8"?>
<!DOCTYPE svg PUBLIC "-//W3C//DTD SVG 1.1//EN" "http://www.w3.org/Graphics/SVG/1.1/DTD/svg11.dtd">
<svg xmlns="http://www.w3.org/2000/svg" version="1.1" width="64px" height="64px" style="shape-rendering:geometricPrecision; text-rendering:geometricPrecision; image-rendering:optimizeQuality; fill-rule:evenodd; clip-rule:evenodd" xmlns:xlink="http://www.w3.org/1999/xlink">
<g><path style="opacity:0.788" fill="#000000" d="M 21.5,-0.5 C 22.8333,-0.5 24.1667,-0.5 25.5,-0.5C 29.5,3.5 33.5,3.5 37.5,-0.5C 38.8333,-0.5 40.1667,-0.5 41.5,-0.5C 43.6467,1.46955 45.98,3.30288 48.5,5C 46.3725,8.75461 44.3725,12.5879 42.5,16.5C 46.8076,22.6414 51.3076,28.6414 56,34.5C 61.9055,46.8409 59.0721,56.5075 47.5,63.5C 36.8333,63.5 26.1667,63.5 15.5,63.5C 3.92785,56.5075 1.09452,46.8409 7,34.5C 11.6924,28.6414 16.1924,22.6414 20.5,16.5C 18.6275,12.5879 16.6275,8.75461 14.5,5C 17.02,3.30288 19.3533,1.46955 21.5,-0.5 Z M 23.5,4.5 C 26.1401,5.82006 28.8068,7.15339 31.5,8.5C 34.0794,7.29395 36.5794,5.96061 39,4.5C 40.0217,5.354 40.8551,6.354 41.5,7.5C 40.5,9.5 39.5,11.5 38.5,13.5C 33.8333,14.8333 29.1667,14.8333 24.5,13.5C 23.5,11.5 22.5,9.5 21.5,7.5C 22.1925,6.48224 22.8592,5.48224 23.5,4.5 Z M 25.5,19.5 C 26.4972,19.4701 27.1639,19.9701 27.5,21C 26.9318,22.8716 26.2651,24.7049 25.5,26.5C 27.706,28.67 29.706,28.67 31.5,26.5C 33.0026,27.0522 34.6693,27.0522 36.5,26.5C 36.5668,24.5992 36.2335,22.7659 35.5,21C 35.8499,19.7425 36.5165,19.4092 37.5,20C 45.2203,27.3749 50.887,36.0416 54.5,46C 52.7641,55.1162 47.2641,59.6162 38,59.5C 30.8454,58.8438 23.6787,58.3438 16.5,58C 8.34889,52.2157 6.84889,45.0491 12,36.5C 16.5085,30.803 21.0085,25.1363 25.5,19.5 Z"/></g>
<g><path style="opacity:0.798" fill="#000000" d="M 29.5,30.5 C 30.8333,30.5 32.1667,30.5 33.5,30.5C 33.5,31.5 33.5,32.5 33.5,33.5C 37.0091,33.8079 38.6757,35.8079 38.5,39.5C 35.8431,39.838 33.5098,39.1713 31.5,37.5C 30.5,37.8333 29.8333,38.5 29.5,39.5C 32.3713,40.9488 35.2047,42.6154 38,44.5C 39.4185,48.8372 38.2518,52.1705 34.5,54.5C 33.6143,55.325 33.281,56.325 33.5,57.5C 32.1667,57.5 30.8333,57.5 29.5,57.5C 28.8051,55.0219 27.3051,53.0219 25,51.5C 24.51,50.2068 24.3433,48.8734 24.5,47.5C 27.5641,47.9275 30.5641,48.5942 33.5,49.5C 33.5,48.5 33.5,47.5 33.5,46.5C 24.4211,46.1969 22.0877,42.0303 26.5,34C 27.448,33.5172 28.448,33.3505 29.5,33.5C 29.5,32.5 29.5,31.5 29.5,30.5 Z"/></g>
</svg>
