<?xml version="1.0" encoding="UTF-8"?>
<!DOCTYPE svg PUBLIC "-//W3C//DTD SVG 1.1//EN" "http://www.w3.org/Graphics/SVG/1.1/DTD/svg11.dtd">
<svg xmlns="http://www.w3.org/2000/svg" version="1.1" width="64px" height="64px" style="shape-rendering:geometricPrecision; text-rendering:geometricPrecision; image-rendering:optimizeQuality; fill-rule:evenodd; clip-rule:evenodd" xmlns:xlink="http://www.w3.org/1999/xlink">
<g><path style="opacity:0.522" fill="#51abf8" d="M 30.5,9.5 C 29.8333,9.16667 29.1667,8.83333 28.5,8.5C 27.9423,7.21009 26.9423,6.37675 25.5,6C 22.1119,5.34115 18.7786,5.50782 15.5,6.5C 14.5,6.5 13.5,6.5 12.5,6.5C 13.347,5.03374 14.6803,4.20041 16.5,4C 21.4359,2.87685 25.9359,3.71019 30,6.5C 30.4828,7.44802 30.6495,8.44802 30.5,9.5 Z"/></g>
<g><path style="opacity:0.618" fill="#48c5f9" d="M 52.5,22.5 C 52.5,21.8333 52.5,21.1667 52.5,20.5C 55.4675,15.5191 54.8008,11.0191 50.5,7C 45.203,4.54122 40.5363,5.37455 36.5,9.5C 35.8333,9.5 35.1667,9.5 34.5,9.5C 38.8378,3.4308 44.5044,1.9308 51.5,5C 57.65,10.6607 57.9834,16.494 52.5,22.5 Z"/></g>
<g><path style="opacity:0.617" fill="#5990f7" d="M 12.5,6.5 C 13.5,6.5 14.5,6.5 15.5,6.5C 14.8592,7.48224 14.1925,8.48224 13.5,9.5C 14.5244,11.9456 16.1911,13.6123 18.5,14.5C 18.8333,15.1667 19.1667,15.8333 19.5,16.5C 17.3792,16.3253 15.3792,16.6586 13.5,17.5C 13.5,16.8333 13.1667,16.5 12.5,16.5C 12.5046,13.1712 12.5046,9.83789 12.5,6.5 Z"/></g>
<g><path style="opacity:0.514" fill="#49c1f8" d="M 46.5,17.5 C 46.5,16.8333 46.1667,16.5 45.5,16.5C 45.5,16.1667 45.5,15.8333 45.5,15.5C 46.8333,15.1667 46.8333,14.8333 45.5,14.5C 44.5084,14.6716 43.8417,14.3382 43.5,13.5C 44.9616,12.5423 46.2949,11.3756 47.5,10C 48.7932,9.50999 50.1266,9.34332 51.5,9.5C 51.4997,13.1746 49.833,15.8413 46.5,17.5 Z"/></g>
<g><path style="opacity:0.602" fill="#53a5f8" d="M 28.5,8.5 C 29.1667,8.83333 29.8333,9.16667 30.5,9.5C 29.1667,12.5 29.1667,15.5 30.5,18.5C 29.8333,18.1667 29.1667,17.8333 28.5,17.5C 25.7131,16.5233 22.7131,16.19 19.5,16.5C 19.1667,15.8333 18.8333,15.1667 18.5,14.5C 21.1873,14.6641 23.854,14.4974 26.5,14C 27.8613,12.4157 28.528,10.5824 28.5,8.5 Z"/></g>
<g><path style="opacity:0.566" fill="#53acf9" d="M 34.5,9.5 C 35.1667,9.5 35.8333,9.5 36.5,9.5C 35.1667,12.8333 35.1667,16.1667 36.5,19.5C 35.8333,19.5 35.1667,19.5 34.5,19.5C 33.1667,16.1667 33.1667,12.8333 34.5,9.5 Z"/></g>
<g><path style="opacity:0.816" fill="#4db4f9" d="M 43.5,13.5 C 43.8417,14.3382 44.5084,14.6716 45.5,14.5C 45.5,14.8333 45.5,15.1667 45.5,15.5C 44.1667,15.8333 44.1667,16.1667 45.5,16.5C 46.1667,16.5 46.5,16.8333 46.5,17.5C 43.8215,20.2226 41.3215,19.8893 39,16.5C 38.51,15.2068 38.3433,13.8734 38.5,12.5C 40.2915,12.366 41.9582,12.6993 43.5,13.5 Z"/></g>
<g><path style="opacity:0.447" fill="#5e85f7" d="M 12.5,16.5 C 13.1667,16.5 13.5,16.8333 13.5,17.5C 13.6107,18.1174 13.944,18.6174 14.5,19C 16.4727,19.4955 18.4727,19.6621 20.5,19.5C 20.8333,20.1667 21.1667,20.8333 21.5,21.5C 17.2473,20.8075 13.5807,21.8075 10.5,24.5C 9.83333,24.5 9.16667,24.5 8.5,24.5C 9.45773,23.0384 10.6244,21.7051 12,20.5C 11.6692,18.9813 11.8359,17.648 12.5,16.5 Z"/></g>
<g><path style="opacity:0.569" fill="#50acf8" d="M 34.5,19.5 C 35.1667,19.5 35.8333,19.5 36.5,19.5C 41.5596,24.3662 46.893,24.6996 52.5,20.5C 52.5,21.1667 52.5,21.8333 52.5,22.5C 51.9423,23.7899 50.9423,24.6232 49.5,25C 43.0155,26.9104 38.0155,25.0771 34.5,19.5 Z"/></g>
<g><path style="opacity:0.658" fill="#569cf8" d="M 28.5,17.5 C 29.1667,17.8333 29.8333,18.1667 30.5,18.5C 31.412,20.5952 32.5787,22.5952 34,24.5C 35.1096,26.0368 36.6096,26.7035 38.5,26.5C 38.8333,27.1667 39.1667,27.8333 39.5,28.5C 37.8008,28.3398 36.1341,28.5065 34.5,29C 33.1667,29.6667 33.1667,30.3333 34.5,31C 39.1548,31.4992 43.8215,31.6658 48.5,31.5C 48.8333,32.1667 49.1667,32.8333 49.5,33.5C 44.8333,33.5 40.1667,33.5 35.5,33.5C 34.5,32.8333 33.5,32.1667 32.5,31.5C 33.5378,23.5474 29.8712,20.2141 21.5,21.5C 21.1667,20.8333 20.8333,20.1667 20.5,19.5C 23.6981,20.0356 26.3647,19.369 28.5,17.5 Z"/></g>
<g><path style="opacity:0.601" fill="#6966f5" d="M 8.5,24.5 C 9.16667,24.5 9.83333,24.5 10.5,24.5C 8.57603,28.0171 6.90936,31.6837 5.5,35.5C 4.83333,35.1667 4.16667,34.8333 3.5,34.5C 4.64174,30.8832 6.30841,27.5498 8.5,24.5 Z"/></g>
<g><path style="opacity:0.667" fill="#50abf8" d="M 38.5,26.5 C 43.5,26.5 48.5,26.5 53.5,26.5C 53.5,27.1667 53.5,27.8333 53.5,28.5C 48.8333,28.5 44.1667,28.5 39.5,28.5C 39.1667,27.8333 38.8333,27.1667 38.5,26.5 Z"/></g>
<g><path style="opacity:0.485" fill="#4cb9f9" d="M 53.5,26.5 C 56.3646,26.0548 58.8646,26.7215 61,28.5C 61.747,30.9278 60.9137,32.5944 58.5,33.5C 58.5,32.8333 58.5,32.1667 58.5,31.5C 59.5981,30.603 59.5981,29.7697 58.5,29C 56.8659,28.5065 55.1992,28.3398 53.5,28.5C 53.5,27.8333 53.5,27.1667 53.5,26.5 Z"/></g>
<g><path style="opacity:0.662" fill="#50aef8" d="M 48.5,31.5 C 51.8333,31.5 55.1667,31.5 58.5,31.5C 58.5,32.1667 58.5,32.8333 58.5,33.5C 59.1603,35.3437 60.1603,37.0104 61.5,38.5C 61.4841,40.516 60.4841,41.516 58.5,41.5C 57.8333,41.5 57.5,41.1667 57.5,40.5C 58.4778,40.189 59.1445,39.5223 59.5,38.5C 54.544,37.5059 49.544,37.1725 44.5,37.5C 44.5,36.8333 44.5,36.1667 44.5,35.5C 48.5546,35.8242 52.5546,35.4909 56.5,34.5C 54.2573,33.5258 51.924,33.1924 49.5,33.5C 49.1667,32.8333 48.8333,32.1667 48.5,31.5 Z"/></g>
<g><path style="opacity:0.588" fill="#5b90f7" d="M 32.5,31.5 C 33.5,32.1667 34.5,32.8333 35.5,33.5C 34.0222,33.238 32.6888,33.5713 31.5,34.5C 35.7828,35.4922 40.1161,35.8256 44.5,35.5C 44.5,36.1667 44.5,36.8333 44.5,37.5C 40.6707,36.931 37.3373,37.5977 34.5,39.5C 33.8333,39.5 33.1667,39.5 32.5,39.5C 31.2665,38.0242 30.2665,36.3575 29.5,34.5C 29.5159,32.484 30.5159,31.484 32.5,31.5 Z"/></g>
<g><path style="opacity:0.587" fill="#6477f6" d="M 25.5,39.5 C 24.8333,39.5 24.1667,39.5 23.5,39.5C 14.9691,38.0326 14.3025,34.6992 21.5,29.5C 23.0009,30.7515 24.6675,31.7515 26.5,32.5C 24.2338,33.3142 21.9005,33.8142 19.5,34C 19.0426,34.414 18.7093,34.914 18.5,35.5C 21.0213,36.6882 23.3547,38.0216 25.5,39.5 Z"/></g>
<g><path style="opacity:0.617" fill="#559ff8" d="M 41.5,41.5 C 41.5,41.1667 41.5,40.8333 41.5,40.5C 46.8333,40.5 52.1667,40.5 57.5,40.5C 57.5,41.1667 57.8333,41.5 58.5,41.5C 59.1786,43.6682 60.1786,45.6682 61.5,47.5C 61.4841,49.516 60.4841,50.516 58.5,50.5C 58.1667,49.8333 57.8333,49.1667 57.5,48.5C 58.3764,48.6309 59.0431,48.2975 59.5,47.5C 54.8804,46.5067 50.2137,46.1734 45.5,46.5C 45.1667,45.8333 44.8333,45.1667 44.5,44.5C 48.5546,44.8242 52.5546,44.4909 56.5,43.5C 56.3333,43.1667 56.1667,42.8333 56,42.5C 51.2633,41.5308 46.43,41.1975 41.5,41.5 Z"/></g>
<g><path style="opacity:0.604" fill="#627ef6" d="M 32.5,39.5 C 33.1667,39.5 33.8333,39.5 34.5,39.5C 36.717,40.3686 39.0504,40.702 41.5,40.5C 41.5,40.8333 41.5,41.1667 41.5,41.5C 38.4816,41.3354 35.4816,41.502 32.5,42C 32.0426,42.414 31.7093,42.914 31.5,43.5C 35.7828,44.4922 40.1161,44.8256 44.5,44.5C 44.8333,45.1667 45.1667,45.8333 45.5,46.5C 41.774,46.1774 38.1073,46.5108 34.5,47.5C 36.396,48.4656 38.396,48.7989 40.5,48.5C 41.1667,49.1667 41.8333,49.8333 42.5,50.5C 39.1667,50.5 35.8333,50.5 32.5,50.5C 32.5,49.8333 32.5,49.1667 32.5,48.5C 32.2504,47.0779 31.417,46.0779 30,45.5C 29.5065,43.8659 29.3398,42.1992 29.5,40.5C 30.791,40.7373 31.791,40.404 32.5,39.5 Z"/></g>
<g><path style="opacity:0.445" fill="#7448f5" d="M 3.5,34.5 C 4.16667,34.8333 4.83333,35.1667 5.5,35.5C 4.08317,38.9981 3.4165,42.6648 3.5,46.5C 2.83333,46.1667 2.16667,45.8333 1.5,45.5C 1.4165,41.6648 2.08317,37.9981 3.5,34.5 Z"/></g>
<g><path style="opacity:0.484" fill="#6868f7" d="M 23.5,39.5 C 24.1667,39.5 24.8333,39.5 25.5,39.5C 26.0431,39.56 26.3764,39.8933 26.5,40.5C 25.1058,43.0297 23.4392,45.363 21.5,47.5C 20.6143,46.675 20.281,45.675 20.5,44.5C 19.0222,44.762 17.6888,44.4287 16.5,43.5C 18.7662,42.6858 21.0995,42.1858 23.5,42C 24.5981,41.2303 24.5981,40.397 23.5,39.5 Z"/></g>
<g><path style="opacity:0.867" fill="#5992f6" d="M 40.5,48.5 C 46.1667,48.5 51.8333,48.5 57.5,48.5C 57.8333,49.1667 58.1667,49.8333 58.5,50.5C 58.5,51.1667 58.5,51.8333 58.5,52.5C 57.8333,52.1667 57.1667,51.8333 56.5,51.5C 51.9296,50.559 47.263,50.2256 42.5,50.5C 41.8333,49.8333 41.1667,49.1667 40.5,48.5 Z"/></g>
<g><path style="opacity:0.577" fill="#7337f5" d="M 1.5,45.5 C 2.16667,45.8333 2.83333,46.1667 3.5,46.5C 6.20877,54.5149 11.8754,58.1816 20.5,57.5C 20.8333,58.1667 21.1667,58.8333 21.5,59.5C 10.1748,61.1043 3.50815,56.4376 1.5,45.5 Z"/></g>
<g><path style="opacity:0.509" fill="#656ff6" d="M 32.5,48.5 C 32.5,49.1667 32.5,49.8333 32.5,50.5C 32.1961,51.1499 31.8627,51.8165 31.5,52.5C 36.456,53.4941 41.456,53.8275 46.5,53.5C 46.8333,54.1667 47.1667,54.8333 47.5,55.5C 43.1667,55.5 38.8333,55.5 34.5,55.5C 33.4324,54.5655 32.099,54.2322 30.5,54.5C 29.0073,51.8869 29.6739,49.8869 32.5,48.5 Z"/></g>
<g><path style="opacity:0.513" fill="#5991f7" d="M 56.5,51.5 C 57.1667,51.8333 57.8333,52.1667 58.5,52.5C 61.9139,54.4705 62.2472,56.8038 59.5,59.5C 58.8333,58.8333 58.1667,58.1667 57.5,57.5C 58.3764,57.6309 59.0431,57.2975 59.5,56.5C 55.5546,55.5091 51.5546,55.1758 47.5,55.5C 47.1667,54.8333 46.8333,54.1667 46.5,53.5C 50.3293,54.069 53.6627,53.4023 56.5,51.5 Z"/></g>
<g><path style="opacity:0.832" fill="#6a5ff6" d="M 30.5,54.5 C 32.099,54.2322 33.4324,54.5655 34.5,55.5C 34.8212,57.0481 35.8212,57.7148 37.5,57.5C 37.8333,58.1667 38.1667,58.8333 38.5,59.5C 32.871,58.5861 27.2044,58.5861 21.5,59.5C 21.1667,58.8333 20.8333,58.1667 20.5,57.5C 24.2733,57.7367 27.9399,57.2367 31.5,56C 30.944,55.6174 30.6107,55.1174 30.5,54.5 Z"/></g>
<g><path style="opacity:0.487" fill="#5f81f5" d="M 37.5,57.5 C 44.1667,57.5 50.8333,57.5 57.5,57.5C 58.1667,58.1667 58.8333,58.8333 59.5,59.5C 52.5,59.5 45.5,59.5 38.5,59.5C 38.1667,58.8333 37.8333,58.1667 37.5,57.5 Z"/></g>
</svg>
