<svg width="30" height="30" viewBox="0 0 30 30" fill="none" xmlns="http://www.w3.org/2000/svg">
<path d="M14.8498 18.136H14.9154C16.3217 18.1735 17.4467 19.3173 17.4467 20.7235C17.4467 21.9235 16.6311 22.9266 15.5248 23.2266V24.2766C15.5248 24.6516 15.2248 24.9516 14.8498 24.9516C14.4748 24.9516 14.1748 24.6516 14.1748 24.2766V23.2266C13.6239 23.0785 13.1372 22.7531 12.7898 22.3006C12.4424 21.8482 12.2538 21.2939 12.2529 20.7235C12.2529 20.3485 12.5529 20.0485 12.9279 20.0485C13.3029 20.0485 13.6029 20.3485 13.6029 20.7235C13.6029 21.4173 14.1561 21.9704 14.8404 21.9704C15.5248 21.9704 16.0873 21.4079 16.0873 20.7235C16.0873 20.0391 15.5248 19.4766 14.8404 19.4766H14.7748C14.1004 19.4583 13.4597 19.1778 12.9888 18.6947C12.5179 18.2115 12.2539 17.5638 12.2529 16.8891C12.2529 15.6891 13.0686 14.686 14.1748 14.386V13.336C14.1748 12.961 14.4748 12.661 14.8498 12.661C15.2248 12.661 15.5248 12.961 15.5248 13.336V14.386C16.6311 14.686 17.4467 15.6891 17.4467 16.8891C17.4467 17.2641 17.1467 17.5641 16.7717 17.5641C16.3967 17.5641 16.0967 17.2641 16.0967 16.8891C16.0967 16.2048 15.5342 15.6423 14.8498 15.6423C14.1654 15.6423 13.6029 16.2048 13.6029 16.8891C13.6029 17.5735 14.1654 18.136 14.8498 18.136Z" fill="#49A35B"/>
<path d="M9.87375 4.7813L12.4856 7.83755L12.2034 8.15255C6.82781 9.35818 2.8125 14.1591 2.8125 19.8985C2.8125 24.9441 6.9075 29.0391 11.9531 29.0391H17.7375C22.7831 29.0391 26.8781 24.9451 26.8781 19.8994C26.8875 14.1591 22.8722 9.35818 17.4966 8.15255C17.5184 7.95444 17.4826 7.75424 17.3934 7.57599L19.6153 5.03255L19.7588 4.8113C19.9262 4.44599 19.9691 4.03576 19.8807 3.64372C19.7923 3.25168 19.5776 2.89953 19.2695 2.64143C18.9615 2.38333 18.5772 2.23359 18.1757 2.21521C17.7742 2.19684 17.3778 2.31086 17.0475 2.53974L16.2572 1.60224C16.0799 1.40385 15.8628 1.24504 15.62 1.13616C15.3773 1.02728 15.1143 0.970782 14.8482 0.97034C14.5822 0.969897 14.319 1.02552 14.0759 1.13359C13.8328 1.24166 13.6151 1.39975 13.4372 1.59755L12.6094 2.52193C12.2799 2.28829 11.8826 2.16972 11.479 2.18457C11.0753 2.19941 10.6878 2.34684 10.3764 2.60406C10.0649 2.86127 9.84694 3.21394 9.75609 3.6075C9.66523 4.00107 9.70658 4.4136 9.87375 4.7813ZM13.4353 6.07974L11.8453 4.24224C12.2147 4.42023 12.6327 4.47077 13.0338 4.38596C13.435 4.30115 13.7968 4.08576 14.0625 3.77349L14.8125 2.80036L15.645 3.78661C15.9046 4.08847 16.2547 4.29837 16.6433 4.38504C17.0318 4.4717 17.438 4.4305 17.8013 4.26755L16.2187 6.07974H13.4353ZM4.6875 19.8985C4.6875 14.2847 9.23625 9.73599 14.85 9.73599C20.4638 9.73599 25.0125 14.2847 25.0031 19.8966V19.8985C25.0024 21.8252 24.2367 23.6728 22.8742 25.0352C21.5118 26.3976 19.6642 27.1634 17.7375 27.1641H11.9531C10.0264 27.1634 8.17878 26.3976 6.81638 25.0352C5.45397 23.6728 4.68825 21.8252 4.6875 19.8985Z" fill="#49A35B"/>
</svg>
