<?xml version="1.0" encoding="UTF-8"?>
<!DOCTYPE svg PUBLIC "-//W3C//DTD SVG 1.1//EN" "http://www.w3.org/Graphics/SVG/1.1/DTD/svg11.dtd">
<svg xmlns="http://www.w3.org/2000/svg" version="1.1" width="64px" height="64px" style="shape-rendering:geometricPrecision; text-rendering:geometricPrecision; image-rendering:optimizeQuality; fill-rule:evenodd; clip-rule:evenodd" xmlns:xlink="http://www.w3.org/1999/xlink">
<g><path style="opacity:0.899" fill="#2fc8fe" d="M 30.5,-0.5 C 36.1667,-0.5 41.8333,-0.5 47.5,-0.5C 49.7393,1.47656 51.0726,3.97656 51.5,7C 51.2906,8.87146 50.2906,10.0381 48.5,10.5C 46.3626,9.26194 45.0293,7.4286 44.5,5C 40.577,4.20729 36.7436,4.37396 33,5.5C 32.3333,13.1667 32.3333,20.8333 33,28.5C 36.7436,29.626 40.577,29.7927 44.5,29C 45.2665,26.9471 46.5998,25.4471 48.5,24.5C 50.5,24.5 51.5,25.5 51.5,27.5C 49.7311,33.7205 45.5645,36.3872 39,35.5C 33.0121,36.3045 29.0121,33.9712 27,28.5C 26.3333,20.8333 26.3333,13.1667 27,5.5C 27.5637,3.11327 28.7304,1.11327 30.5,-0.5 Z"/></g>
<g><path style="opacity:0.904" fill="#2fc8fe" d="M 63.5,15.5 C 63.5,16.8333 63.5,18.1667 63.5,19.5C 61.7041,20.7927 60.0375,22.2927 58.5,24C 56.8659,24.4935 55.1992,24.6602 53.5,24.5C 53.5,22.8333 53.5,21.1667 53.5,19.5C 50.5,19.5 47.5,19.5 44.5,19.5C 44.2865,17.8561 44.6198,16.3561 45.5,15C 48.146,14.5026 50.8127,14.3359 53.5,14.5C 53.5,12.8333 53.5,11.1667 53.5,9.5C 54.8734,9.34332 56.2068,9.50999 57.5,10C 59.3702,12.0396 61.3702,13.8729 63.5,15.5 Z"/></g>
<g><path style="opacity:0.896" fill="#2fc8fe" d="M 13.5,24.5 C 23.0686,25.0543 26.0686,29.7209 22.5,38.5C 17.419,42.6584 12.5856,42.325 8,37.5C 6.09909,31.3431 7.93242,27.0098 13.5,24.5 Z M 14.5,30.5 C 19.1453,31.2801 19.6453,33.2801 16,36.5C 12.1551,35.177 11.6551,33.177 14.5,30.5 Z"/></g>
<g><path style="opacity:0.897" fill="#2fc8fe" d="M 31.5,63.5 C 20.8333,63.5 10.1667,63.5 -0.5,63.5C -0.5,61.1667 -0.5,58.8333 -0.5,56.5C 5.22695,45.0622 13.8936,42.2289 25.5,48C 30.4238,52.0172 32.4238,57.1839 31.5,63.5 Z M 12.5,50.5 C 18.4486,49.9723 22.7819,52.3057 25.5,57.5C 18.8333,58.8333 12.1667,58.8333 5.5,57.5C 6.88339,54.1164 9.21672,51.7831 12.5,50.5 Z"/></g>
</svg>
