<svg width="45" height="45" viewBox="0 0 45 45" fill="none" xmlns="http://www.w3.org/2000/svg">
<path d="M12.9375 6.75H32.0625C33.7035 6.75 35.2773 7.4019 36.4377 8.56228C37.5981 9.72266 38.25 11.2965 38.25 12.9375V20.2568C37.4827 20.2928 36.72 20.4638 36 20.772V12.9375C36 11.8932 35.5852 10.8917 34.8467 10.1533C34.1083 9.41484 33.1068 9 32.0625 9H12.9375C11.8932 9 10.8917 9.41484 10.1533 10.1533C9.41484 10.8917 9 11.8932 9 12.9375V32.0625C9 34.236 10.764 36 12.9375 36H21.3188C21.2836 36.1154 21.2513 36.2317 21.222 36.3488L20.745 38.25H12.9375C11.2965 38.25 9.72266 37.5981 8.56228 36.4377C7.4019 35.2773 6.75 33.7035 6.75 32.0625V12.9375C6.75 11.2965 7.4019 9.72266 8.56228 8.56228C9.72266 7.4019 11.2965 6.75 12.9375 6.75ZM21.375 29.25H26.8717L24.6217 31.5H21.375C21.0766 31.5 20.7905 31.3815 20.5795 31.1705C20.3685 30.9595 20.25 30.6734 20.25 30.375C20.25 30.0766 20.3685 29.7905 20.5795 29.5795C20.7905 29.3685 21.0766 29.25 21.375 29.25ZM16.875 16.3125C16.875 16.7601 16.6972 17.1893 16.3807 17.5057C16.0643 17.8222 15.6351 18 15.1875 18C14.7399 18 14.3107 17.8222 13.9943 17.5057C13.6778 17.1893 13.5 16.7601 13.5 16.3125C13.5 15.8649 13.6778 15.4357 13.9943 15.1193C14.3107 14.8028 14.7399 14.625 15.1875 14.625C15.6351 14.625 16.0643 14.8028 16.3807 15.1193C16.6972 15.4357 16.875 15.8649 16.875 16.3125ZM15.1875 24.75C15.6351 24.75 16.0643 24.5722 16.3807 24.2557C16.6972 23.9393 16.875 23.5101 16.875 23.0625C16.875 22.6149 16.6972 22.1857 16.3807 21.8693C16.0643 21.5528 15.6351 21.375 15.1875 21.375C14.7399 21.375 14.3107 21.5528 13.9943 21.8693C13.6778 22.1857 13.5 22.6149 13.5 23.0625C13.5 23.5101 13.6778 23.9393 13.9943 24.2557C14.3107 24.5722 14.7399 24.75 15.1875 24.75ZM15.1875 31.5C15.6351 31.5 16.0643 31.3222 16.3807 31.0057C16.6972 30.6893 16.875 30.2601 16.875 29.8125C16.875 29.3649 16.6972 28.9357 16.3807 28.6193C16.0643 28.3028 15.6351 28.125 15.1875 28.125C14.7399 28.125 14.3107 28.3028 13.9943 28.6193C13.6778 28.9357 13.5 29.3649 13.5 29.8125C13.5 30.2601 13.6778 30.6893 13.9943 31.0057C14.3107 31.3222 14.7399 31.5 15.1875 31.5ZM21.375 15.75C21.0766 15.75 20.7905 15.8685 20.5795 16.0795C20.3685 16.2905 20.25 16.5766 20.25 16.875C20.25 17.1734 20.3685 17.4595 20.5795 17.6705C20.7905 17.8815 21.0766 18 21.375 18H30.375C30.6734 18 30.9595 17.8815 31.1705 17.6705C31.3815 17.4595 31.5 17.1734 31.5 16.875C31.5 16.5766 31.3815 16.2905 31.1705 16.0795C30.9595 15.8685 30.6734 15.75 30.375 15.75H21.375ZM21.375 22.5C21.0766 22.5 20.7905 22.6185 20.5795 22.8295C20.3685 23.0405 20.25 23.3266 20.25 23.625C20.25 23.9234 20.3685 24.2095 20.5795 24.4205C20.7905 24.6315 21.0766 24.75 21.375 24.75H30.375C30.6734 24.75 30.9595 24.6315 31.1705 24.4205C31.3815 24.2095 31.5 23.9234 31.5 23.625C31.5 23.3266 31.3815 23.0405 31.1705 22.8295C30.9595 22.6185 30.6734 22.5 30.375 22.5H21.375ZM24.705 34.5982L35.5725 23.7307C35.9634 23.3401 36.4274 23.0303 36.9381 22.819C37.4487 22.6078 37.996 22.4991 38.5486 22.4993C39.1012 22.4995 39.6484 22.6086 40.1589 22.8203C40.6693 23.0319 41.1331 23.3421 41.5238 23.733C41.9144 24.1239 42.2242 24.5879 42.4355 25.0986C42.6467 25.6092 42.7554 26.1565 42.7552 26.7091C42.755 27.2617 42.6459 27.8089 42.4342 28.3194C42.2226 28.8298 41.9124 29.2936 41.5215 29.6842L30.654 40.5495C30.0209 41.1829 29.2277 41.6324 28.359 41.85L24.9885 42.6915C24.6534 42.775 24.3023 42.7704 23.9695 42.6782C23.6366 42.5859 23.3333 42.4092 23.0889 42.1651C22.8446 41.921 22.6676 41.6178 22.575 41.285C22.4825 40.9523 22.4775 40.6012 22.5608 40.266L23.4045 36.8955C23.6203 36.0261 24.0701 35.2324 24.705 34.6005" fill="#696969"/>
</svg>
