<?xml version="1.0" encoding="UTF-8"?>
<!DOCTYPE svg PUBLIC "-//W3C//DTD SVG 1.1//EN" "http://www.w3.org/Graphics/SVG/1.1/DTD/svg11.dtd">
<svg xmlns="http://www.w3.org/2000/svg" version="1.1" width="64px" height="64px" style="shape-rendering:geometricPrecision; text-rendering:geometricPrecision; image-rendering:optimizeQuality; fill-rule:evenodd; clip-rule:evenodd" xmlns:xlink="http://www.w3.org/1999/xlink">
<g><path style="opacity:0.711" fill="#000000" d="M 28.5,1.5 C 43.433,1.77081 50.433,9.43747 49.5,24.5C 51.1338,24.968 52.3005,25.968 53,27.5C 53.6667,37.8333 53.6667,48.1667 53,58.5C 52.0975,59.7014 50.9308,60.5348 49.5,61C 37.5,61.6667 25.5,61.6667 13.5,61C 12.0692,60.5348 10.9025,59.7014 10,58.5C 9.33333,48.1667 9.33333,37.8333 10,27.5C 10.6995,25.968 11.8662,24.968 13.5,24.5C 12.3189,12.4747 17.3189,4.80802 28.5,1.5 Z M 28.5,5.5 C 41.0182,5.68998 46.3515,12.0233 44.5,24.5C 35.8333,24.5 27.1667,24.5 18.5,24.5C 16.3791,15.0668 19.7124,8.73348 28.5,5.5 Z M 13.5,28.5 C 25.5,28.5 37.5,28.5 49.5,28.5C 49.5,38.1667 49.5,47.8333 49.5,57.5C 37.5,57.5 25.5,57.5 13.5,57.5C 13.5,47.8333 13.5,38.1667 13.5,28.5 Z M 29.5,37.5 C 34.5837,37.9658 35.2504,39.6325 31.5,42.5C 28.7344,41.4653 28.0677,39.7986 29.5,37.5 Z"/></g>
<g><path style="opacity:0.725" fill="#000000" d="M 28.5,33.5 C 35.8247,32.9924 38.6581,36.3258 37,43.5C 34.5203,46.1913 32.687,49.1913 31.5,52.5C 30.313,49.1913 28.4797,46.1913 26,43.5C 24.8613,39.5789 25.6946,36.2456 28.5,33.5 Z M 29.5,37.5 C 28.0677,39.7986 28.7344,41.4653 31.5,42.5C 35.2504,39.6325 34.5837,37.9658 29.5,37.5 Z"/></g>
</svg>
