<svg width="45" height="45" viewBox="0 0 45 45" fill="none" xmlns="http://www.w3.org/2000/svg">
<path d="M22.5 22.5C24.7378 22.5 26.8839 21.6111 28.4662 20.0287C30.0486 18.4464 30.9375 16.3003 30.9375 14.0625C30.9375 11.8247 30.0486 9.67863 28.4662 8.09629C26.8839 6.51395 24.7378 5.625 22.5 5.625C20.2622 5.625 18.1161 6.51395 16.5338 8.09629C14.9514 9.67863 14.0625 11.8247 14.0625 14.0625C14.0625 16.3003 14.9514 18.4464 16.5338 20.0287C18.1161 21.6111 20.2622 22.5 22.5 22.5ZM28.125 14.0625C28.125 15.5543 27.5324 16.9851 26.4775 18.04C25.4226 19.0949 23.9918 19.6875 22.5 19.6875C21.0082 19.6875 19.5774 19.0949 18.5225 18.04C17.4676 16.9851 16.875 15.5543 16.875 14.0625C16.875 12.5707 17.4676 11.1399 18.5225 10.085C19.5774 9.03013 21.0082 8.4375 22.5 8.4375C23.9918 8.4375 25.4226 9.03013 26.4775 10.085C27.5324 11.1399 28.125 12.5707 28.125 14.0625ZM39.375 36.5625C39.375 39.375 36.5625 39.375 36.5625 39.375H8.4375C8.4375 39.375 5.625 39.375 5.625 36.5625C5.625 33.75 8.4375 25.3125 22.5 25.3125C36.5625 25.3125 39.375 33.75 39.375 36.5625ZM36.5625 36.5513C36.5597 35.8594 36.1294 33.7781 34.2225 31.8713C32.3888 30.0375 28.9378 28.125 22.5 28.125C16.0594 28.125 12.6112 30.0375 10.7775 31.8713C8.87063 33.7781 8.44313 35.8594 8.4375 36.5513H36.5625Z" fill="#696969"/>
</svg>
