<svg width="45" height="45" viewBox="0 0 45 45" fill="none" xmlns="http://www.w3.org/2000/svg">
<path d="M21.5625 30.4312H23.4375V19.8318H21.5625V30.4312ZM22.5 16.8749C22.8275 16.8749 23.1012 16.7643 23.3212 16.543C23.5425 16.3218 23.6531 16.048 23.6531 15.7218C23.6531 15.3943 23.5425 15.1199 23.3212 14.8987C23.1012 14.6774 22.8275 14.5668 22.5 14.5668C22.1725 14.5668 21.8988 14.6774 21.6788 14.8987C21.4575 15.1199 21.3469 15.3943 21.3469 15.7218C21.3469 16.048 21.4575 16.3218 21.6788 16.543C21.8988 16.7643 22.1725 16.8749 22.5 16.8749ZM22.5 39.3037C18.7337 38.1849 15.6044 35.903 13.1119 32.458C10.6206 29.0118 9.375 25.1299 9.375 20.8124V10.6724L22.5 5.76929L35.625 10.6724V20.8124C35.625 25.1299 34.3794 29.0112 31.8881 32.4562C29.3956 35.9024 26.2663 38.1849 22.5 39.3037ZM22.5 37.3124C25.75 36.2812 28.4375 34.2187 30.5625 31.1249C32.6875 28.0312 33.75 24.5937 33.75 20.8124V11.953L22.5 7.77179L11.25 11.953V20.8124C11.25 24.5937 12.3125 28.0312 14.4375 31.1249C16.5625 34.2187 19.25 36.2812 22.5 37.3124Z" fill="#49A35B"/>
</svg>
