<svg width="35" height="35" viewBox="0 0 35 35" fill="none" xmlns="http://www.w3.org/2000/svg">
<path d="M17.5 21.875C19.9162 21.875 21.875 19.9162 21.875 17.5C21.875 15.0838 19.9162 13.125 17.5 13.125C15.0838 13.125 13.125 15.0838 13.125 17.5C13.125 19.9162 15.0838 21.875 17.5 21.875Z" stroke="#696969" stroke-width="2.8125"/>
<path d="M5.33896 15.5166C6.02875 15.9483 6.47208 16.6862 6.47208 17.5C6.47208 18.3137 6.02875 19.0516 5.33896 19.4833C4.87083 19.7793 4.5675 20.0141 4.35313 20.2941C4.11993 20.5981 3.9489 20.945 3.84981 21.3151C3.75072 21.6852 3.72551 22.0712 3.77563 22.451C3.85146 23.0256 4.19125 23.6147 4.86938 24.7916C5.55042 25.9685 5.89021 26.5562 6.34958 26.9106C6.65355 27.1438 7.00049 27.3148 7.37057 27.4139C7.74065 27.513 8.12663 27.5382 8.50646 27.4881C8.85646 27.4414 9.21083 27.2985 9.70083 27.0389C10.0515 26.847 10.4452 26.7474 10.8449 26.7494C11.2447 26.7515 11.6374 26.8551 11.986 27.0506C12.6904 27.4589 13.109 28.21 13.1381 29.0237C13.1585 29.5779 13.211 29.957 13.3467 30.2822C13.4932 30.6364 13.7082 30.9581 13.9792 31.2291C14.2502 31.5001 14.5719 31.715 14.926 31.8616C15.4612 32.0833 16.1408 32.0833 17.5 32.0833C18.8592 32.0833 19.5387 32.0833 20.074 31.8616C20.4281 31.715 20.7498 31.5001 21.0208 31.2291C21.2918 30.9581 21.5068 30.6364 21.6533 30.2822C21.7875 29.957 21.8415 29.5779 21.8619 29.0237C21.891 28.21 22.3096 27.4575 23.014 27.0506C23.3626 26.8551 23.7553 26.7515 24.1551 26.7494C24.5548 26.7474 24.9485 26.847 25.2992 27.0389C25.7892 27.2985 26.145 27.4414 26.495 27.4881C27.2616 27.5889 28.0369 27.3812 28.6504 26.9106C29.1098 26.5577 29.4496 25.9685 30.1292 24.7916C30.4325 24.2666 30.6673 23.8598 30.8423 23.5185M29.661 19.4848C29.3196 19.2772 29.0365 18.9864 28.8383 18.6394C28.6401 18.2925 28.5333 17.9009 28.5279 17.5014C28.5279 16.6862 28.9712 15.9483 29.661 15.5152C30.1292 15.2206 30.431 14.9858 30.6469 14.7058C30.8801 14.4018 31.0511 14.0549 31.1502 13.6848C31.2493 13.3147 31.2745 12.9287 31.2244 12.5489C31.1485 11.9743 30.8087 11.3852 30.1306 10.2083C29.4496 9.03142 29.1098 8.44371 28.6504 8.08933C28.3464 7.85613 27.9995 7.6851 27.6294 7.58601C27.2593 7.48693 26.8734 7.46172 26.4935 7.51183C26.1435 7.5585 25.7892 7.70142 25.2977 7.961C24.9472 8.15265 24.5538 8.25212 24.1543 8.25008C23.7549 8.24804 23.3625 8.14455 23.014 7.94933C22.6705 7.74503 22.3845 7.45677 22.183 7.11162C21.9815 6.76648 21.871 6.37578 21.8619 5.97621C21.8415 5.42204 21.789 5.04288 21.6533 4.71767C21.5068 4.36356 21.2918 4.0418 21.0208 3.77081C20.7498 3.49981 20.4281 3.28487 20.074 3.13829C19.5387 2.91663 18.8592 2.91663 17.5 2.91663C16.1408 2.91663 15.4612 2.91663 14.926 3.13829C14.5719 3.28487 14.2502 3.49981 13.9792 3.77081C13.7082 4.0418 13.4932 4.36356 13.3467 4.71767C13.2125 5.04288 13.1585 5.42204 13.1381 5.97621C13.129 6.37578 13.0185 6.76648 12.817 7.11162C12.6155 7.45677 12.3295 7.74503 11.986 7.94933C11.6374 8.14481 11.2447 8.24844 10.8449 8.25048C10.4452 8.25252 10.0515 8.15291 9.70083 7.961C9.21083 7.70142 8.855 7.5585 8.505 7.51183C7.73838 7.41102 6.9631 7.61874 6.34958 8.08933C5.89167 8.44371 5.55042 9.03142 4.87083 10.2083C4.5675 10.7333 4.33271 11.1402 4.15771 11.4814" stroke="#696969" stroke-width="2.8125" stroke-linecap="round"/>
</svg>
