<?xml version="1.0" encoding="UTF-8"?>
<!DOCTYPE svg PUBLIC "-//W3C//DTD SVG 1.1//EN" "http://www.w3.org/Graphics/SVG/1.1/DTD/svg11.dtd">
<svg xmlns="http://www.w3.org/2000/svg" version="1.1" width="64px" height="64px" style="shape-rendering:geometricPrecision; text-rendering:geometricPrecision; image-rendering:optimizeQuality; fill-rule:evenodd; clip-rule:evenodd" xmlns:xlink="http://www.w3.org/1999/xlink">
<g><path style="opacity:0.963" fill="#f7d0b1" d="M 44.5,34.5 C 35.5239,36.1144 31.6906,41.4478 33,50.5C 33.6552,52.6284 34.4886,54.6284 35.5,56.5C 24.9816,57.6977 14.9816,56.031 5.5,51.5C 3.45452,38.0961 8.78786,28.9294 21.5,24C 19,22.8333 17.1667,21 16,18.5C 14.2411,4.59567 20.0744,-0.237668 33.5,4C 37.7763,8.89189 38.6096,14.3919 36,20.5C 34.786,22.0488 33.286,23.2155 31.5,24C 37.4492,25.6241 41.7825,29.1241 44.5,34.5 Z"/></g>
<g><path style="opacity:0.98" fill="#f7953a" d="M 44.5,34.5 C 55.9621,35.0461 60.4621,41.0461 58,52.5C 54.3454,59.7376 48.5121,62.2376 40.5,60C 38.4156,59.3028 36.7489,58.1361 35.5,56.5C 34.4886,54.6284 33.6552,52.6284 33,50.5C 31.6906,41.4478 35.5239,36.1144 44.5,34.5 Z"/></g>
<g><path style="opacity:1" fill="#eae7e4" d="M 41.5,41.5 C 44.8333,41.5 48.1667,41.5 51.5,41.5C 51.8204,44.8984 51.487,48.2317 50.5,51.5C 49.6922,49.5767 49.1922,47.5767 49,45.5C 46.3176,48.3497 43.4843,51.0164 40.5,53.5C 39.479,52.9984 39.3123,52.3317 40,51.5C 42.5,49 45,46.5 47.5,44C 44.9488,43.9977 42.9488,43.1644 41.5,41.5 Z"/></g>
</svg>
