<svg width="45" height="45" viewBox="0 0 45 45" fill="none" xmlns="http://www.w3.org/2000/svg">
<path d="M42.1875 22.5L32.3438 12.6562L30.3553 14.6447L36.8044 21.0938H12.6562V23.9062H36.8044L30.3553 30.3553L32.3438 32.3438L42.1875 22.5Z" fill="#696969"/>
<path d="M19.6875 39.375C10.3823 39.375 2.8125 31.8052 2.8125 22.5C2.8125 13.1948 10.3823 5.625 19.6875 5.625C22.9711 5.625 26.1548 6.56859 28.8928 8.35453L27.3572 10.7114C25.076 9.22394 22.4108 8.43374 19.6875 8.4375C11.9334 8.4375 5.625 14.7459 5.625 22.5C5.625 30.2541 11.9334 36.5625 19.6875 36.5625C22.4108 36.5663 25.076 35.7761 27.3572 34.2886L28.8928 36.6455C26.155 38.431 22.9561 39.3795 19.6875 39.375Z" fill="#696969"/>
</svg>
