<?xml version="1.0" encoding="UTF-8"?>
<!DOCTYPE svg PUBLIC "-//W3C//DTD SVG 1.1//EN" "http://www.w3.org/Graphics/SVG/1.1/DTD/svg11.dtd">
<svg xmlns="http://www.w3.org/2000/svg" version="1.1" width="512px" height="512px" style="shape-rendering:geometricPrecision; text-rendering:geometricPrecision; image-rendering:optimizeQuality; fill-rule:evenodd; clip-rule:evenodd" xmlns:xlink="http://www.w3.org/1999/xlink">
<g><path style="opacity:0.988" fill="#0be6fe" d="M 216.5,74.5 C 184.167,74.5 151.833,74.5 119.5,74.5C 142.016,58.5803 166.682,54.4136 193.5,62C 202.125,64.6416 209.792,68.8083 216.5,74.5 Z"/></g>
<g><path style="opacity:0.985" fill="#0fe3fe" d="M 119.5,74.5 C 151.833,74.5 184.167,74.5 216.5,74.5C 231.45,84.8107 241.45,98.8107 246.5,116.5C 232.912,115.519 219.246,115.185 205.5,115.5C 193.206,99.0084 176.873,92.8417 156.5,97C 145.432,100.36 136.765,106.86 130.5,116.5C 117.246,115.519 103.913,115.186 90.5,115.5C 95.4979,98.4948 105.165,84.8282 119.5,74.5 Z"/></g>
<g><path style="opacity:0.981" fill="#16ddfe" d="M 90.5,115.5 C 103.913,115.186 117.246,115.519 130.5,116.5C 122.007,131.087 121.341,146.087 128.5,161.5C 115.402,160.179 102.402,160.179 89.5,161.5C 87.1385,154.832 86.1385,147.832 86.5,140.5C 86.2318,131.781 87.5651,123.447 90.5,115.5 Z"/></g>
<g><path style="opacity:0.985" fill="#16ddfe" d="M 205.5,115.5 C 219.246,115.185 232.912,115.519 246.5,116.5C 251.293,130.987 251.626,145.654 247.5,160.5C 234.829,160.333 222.162,160.5 209.5,161C 208.956,161.717 208.289,162.217 207.5,162.5C 215.912,146.409 215.246,130.743 205.5,115.5 Z"/></g>
<g><path style="opacity:0.963" fill="#17dcfe" d="M 461.5,160.5 C 444.658,160.17 427.992,160.503 411.5,161.5C 405.854,146.139 411.188,136.806 427.5,133.5C 431.419,133.896 435.086,135.063 438.5,137C 446.369,144.702 454.036,152.535 461.5,160.5 Z"/></g>
<g><path style="opacity:0.984" fill="#1cd7fe" d="M 128.5,161.5 C 144.931,185.442 166.264,190.942 192.5,178C 198.403,173.599 203.403,168.432 207.5,162.5C 208.289,162.217 208.956,161.717 209.5,161C 222.162,160.5 234.829,160.333 247.5,160.5C 243.662,176.984 235.329,190.651 222.5,201.5C 186.76,201.174 151.094,201.507 115.5,202.5C 102.064,191.985 93.3976,178.318 89.5,161.5C 102.402,160.179 115.402,160.179 128.5,161.5 Z"/></g>
<g><path style="opacity:0.948" fill="#1cd7fe" d="M 461.5,160.5 C 475.167,173.5 488.5,186.833 501.5,200.5C 439.833,201.833 378.167,201.833 316.5,200.5C 360.096,199.672 403.762,199.172 447.5,199C 434.932,186.934 422.932,174.434 411.5,161.5C 427.992,160.503 444.658,160.17 461.5,160.5 Z"/></g>
<g><path style="opacity:0.995" fill="#1fd5fe" d="M 316.5,200.5 C 378.167,201.833 439.833,201.833 501.5,200.5C 503.833,202.167 505.833,204.167 507.5,206.5C 440.833,206.5 374.167,206.5 307.5,206.5C 309.63,203.263 312.63,201.263 316.5,200.5 Z"/></g>
<g><path style="opacity:0.965" fill="#21d3fe" d="M 222.5,201.5 C 197.609,222.455 169.609,227.621 138.5,217C 129.756,213.641 122.089,208.808 115.5,202.5C 151.094,201.507 186.76,201.174 222.5,201.5 Z"/></g>
<g><path style="opacity:0.996" fill="#22d2fe" d="M 307.5,206.5 C 374.167,206.5 440.833,206.5 507.5,206.5C 509.074,207.984 510.407,209.651 511.5,211.5C 511.5,215.833 511.5,220.167 511.5,224.5C 507.616,231.057 502.616,236.723 496.5,241.5C 479.167,241.5 461.833,241.5 444.5,241.5C 445.625,239.871 446.959,238.371 448.5,237C 404.167,236.667 359.833,236.333 315.5,236C 306.355,232.191 302.188,225.358 303,215.5C 303.472,211.89 304.972,208.89 307.5,206.5 Z"/></g>
<g><path style="opacity:0.983" fill="#28cdfe" d="M 444.5,241.5 C 461.833,241.5 479.167,241.5 496.5,241.5C 483.5,255.167 470.167,268.5 456.5,281.5C 440.833,281.5 425.167,281.5 409.5,281.5C 410.17,278.327 411.336,275.327 413,272.5C 423.368,261.965 433.868,251.631 444.5,241.5 Z"/></g>
<g><path style="opacity:0.97" fill="#2acbfe" d="M 238.5,280.5 C 191.003,281.499 143.336,281.832 95.5,281.5C 143.025,259.319 190.692,258.986 238.5,280.5 Z"/></g>
<g><path style="opacity:0.988" fill="#2dc9fe" d="M 238.5,280.5 C 246.918,283.876 254.918,288.042 262.5,293C 267.647,296.32 272.314,300.153 276.5,304.5C 250.995,304.169 225.661,304.502 200.5,305.5C 180.037,300.861 159.704,300.861 139.5,305.5C 113.167,304.833 86.8333,304.167 60.5,303.5C 71.1183,294.558 82.7849,287.225 95.5,281.5C 143.336,281.832 191.003,281.499 238.5,280.5 Z"/></g>
<g><path style="opacity:0.972" fill="#2dc9fe" d="M 409.5,281.5 C 425.167,281.5 440.833,281.5 456.5,281.5C 451.37,287.131 446.036,292.631 440.5,298C 428.609,305.068 418.776,302.902 411,291.5C 409.957,288.243 409.457,284.91 409.5,281.5 Z"/></g>
<g><path style="opacity:0.983" fill="#30c6fe" d="M 60.5,303.5 C 86.8333,304.167 113.167,304.833 139.5,305.5C 123.743,308.971 109.076,314.971 95.5,323.5C 77.6744,322.503 59.6744,322.17 41.5,322.5C 46.8333,315.167 53.1667,308.833 60.5,303.5 Z"/></g>
<g><path style="opacity:0.985" fill="#30c6fe" d="M 276.5,304.5 C 283.131,309.463 289.131,315.13 294.5,321.5C 276.243,322.486 257.91,322.82 239.5,322.5C 227.067,315.448 214.067,309.781 200.5,305.5C 225.661,304.502 250.995,304.169 276.5,304.5 Z"/></g>
<g><path style="opacity:0.982" fill="#33c3fe" d="M 294.5,321.5 C 302.629,330.304 309.629,339.971 315.5,350.5C 300.5,350.5 285.5,350.5 270.5,350.5C 261.387,339.716 251.054,330.382 239.5,322.5C 257.91,322.82 276.243,322.486 294.5,321.5 Z"/></g>
<g><path style="opacity:0.985" fill="#33c3fe" d="M 41.5,322.5 C 59.6744,322.17 77.6744,322.503 95.5,323.5C 84.7041,331.573 74.7041,340.573 65.5,350.5C 50.8333,350.5 36.1667,350.5 21.5,350.5C 26.697,340.102 33.3637,330.768 41.5,322.5 Z"/></g>
<g><path style="opacity:0.985" fill="#37c0fe" d="M 21.5,350.5 C 36.1667,350.5 50.8333,350.5 65.5,350.5C 61.4868,356.537 57.4868,362.537 53.5,368.5C 39.8333,368.5 26.1667,368.5 12.5,368.5C 14.4651,361.903 17.4651,355.903 21.5,350.5 Z"/></g>
<g><path style="opacity:0.979" fill="#37c0fe" d="M 270.5,350.5 C 285.5,350.5 300.5,350.5 315.5,350.5C 319.027,356.221 322.027,362.221 324.5,368.5C 310.833,368.5 297.167,368.5 283.5,368.5C 279.199,362.523 274.865,356.523 270.5,350.5 Z"/></g>
<g><path style="opacity:0.984" fill="#3abdfe" d="M 12.5,368.5 C 26.1667,368.5 39.8333,368.5 53.5,368.5C 48.7066,377.239 44.7066,386.239 41.5,395.5C 28.7536,395.813 16.087,395.48 3.5,394.5C 5.73111,385.47 8.73111,376.803 12.5,368.5 Z"/></g>
<g><path style="opacity:0.982" fill="#3abdfe" d="M 283.5,368.5 C 297.167,368.5 310.833,368.5 324.5,368.5C 328.377,377.132 331.044,386.132 332.5,395.5C 319.989,395.171 307.655,395.505 295.5,396.5C 292.09,387.003 288.09,377.669 283.5,368.5 Z"/></g>
<g><path style="opacity:0.985" fill="#3dbafe" d="M 3.5,394.5 C 16.087,395.48 28.7536,395.813 41.5,395.5C 40.6566,399.873 39.6566,404.207 38.5,408.5C 25.7536,408.187 13.087,408.52 0.5,409.5C 1.62706,404.531 2.62706,399.531 3.5,394.5 Z"/></g>
<g><path style="opacity:0.99" fill="#3dbafe" d="M 332.5,395.5 C 334.118,399.575 335.118,403.908 335.5,408.5C 323.167,408.5 310.833,408.5 298.5,408.5C 296.898,404.761 295.898,400.761 295.5,396.5C 307.655,395.505 319.989,395.171 332.5,395.5 Z"/></g>
<g><path style="opacity:0.98" fill="#41b7fe" d="M 38.5,408.5 C 38.3259,410.861 37.9926,413.194 37.5,415.5C 124.834,415.667 212.167,415.5 299.5,415C 298.577,412.959 298.244,410.792 298.5,408.5C 310.833,408.5 323.167,408.5 335.5,408.5C 337.153,418.435 337.653,428.435 337,438.5C 336.626,440.491 335.793,442.158 334.5,443.5C 279.337,442.167 223.837,441.5 168,441.5C 112.332,441.5 56.8323,441.833 1.5,442.5C 0.833333,441.833 0.166667,441.167 -0.5,440.5C -0.5,432.167 -0.5,423.833 -0.5,415.5C 0.461384,413.735 0.794717,411.735 0.5,409.5C 13.087,408.52 25.7536,408.187 38.5,408.5 Z"/></g>
<g><path style="opacity:0.999" fill="#44b4fe" d="M 334.5,443.5 C 332.606,447.884 329.273,450.718 324.5,452C 220.5,452.667 116.5,452.667 12.5,452C 7.38536,450.377 3.71869,447.211 1.5,442.5C 56.8323,441.833 112.332,441.5 168,441.5C 223.837,441.5 279.337,442.167 334.5,443.5 Z"/></g>
</svg>
