<svg width="35" height="35" viewBox="0 0 35 35" fill="none" xmlns="http://www.w3.org/2000/svg">
<path d="M27.7082 17.5C27.7082 17.8868 27.5545 18.2577 27.281 18.5312C27.0075 18.8047 26.6366 18.9583 26.2498 18.9583C25.8631 18.9583 25.4921 18.8047 25.2186 18.5312C24.9451 18.2577 24.7915 17.8868 24.7915 17.5C24.7915 17.1132 24.9451 16.7423 25.2186 16.4688C25.4921 16.1953 25.8631 16.0417 26.2498 16.0417C26.6366 16.0417 27.0075 16.1953 27.281 16.4688C27.5545 16.7423 27.7082 17.1132 27.7082 17.5Z" fill="#49A35B"/>
<path fill-rule="evenodd" clip-rule="evenodd" d="M14.5015 4.73958H19.0398C21.7203 4.73958 23.8436 4.73958 25.5046 4.9627C27.2138 5.19312 28.5978 5.67729 29.69 6.76812C31.0375 8.11708 31.4678 9.9225 31.6238 12.266C32.4653 12.635 33.1011 13.4181 33.1696 14.4098C33.1769 14.4987 33.1769 14.5935 33.1769 14.681V20.319C33.1769 20.4065 33.1769 20.5012 33.1711 20.5887C33.1011 21.5804 32.4653 22.365 31.6238 22.7354C31.4678 25.0775 31.0375 26.8829 29.69 28.2319C28.5978 29.3227 27.2138 29.8069 25.5046 30.0373C23.8421 30.2604 21.7203 30.2604 19.0398 30.2604H14.5015C11.8211 30.2604 9.69775 30.2604 8.03671 30.0373C6.32755 29.8069 4.94359 29.3227 3.8513 28.2319C2.76046 27.1396 2.2763 25.7556 2.04588 24.0465C1.82275 22.384 1.82275 20.2621 1.82275 17.5817V17.4183C1.82275 14.7379 1.82275 12.6146 2.04588 10.9535C2.2763 9.24437 2.76046 7.86041 3.8513 6.76812C4.94359 5.67729 6.32755 5.19312 8.03671 4.9627C9.69921 4.73958 11.8211 4.73958 14.5015 4.73958ZM29.4115 22.9687H26.5853C23.4571 22.9687 20.7796 20.5946 20.7796 17.5C20.7796 14.4054 23.4571 12.0312 26.5838 12.0312H29.41C29.2438 10.0756 28.869 9.04166 28.1413 8.31541C27.5244 7.69854 26.6786 7.32812 25.2115 7.13124C23.7138 6.92999 21.7378 6.92708 18.9567 6.92708H14.5817C11.8007 6.92708 9.82609 6.92999 8.32546 7.13124C6.85984 7.32812 6.014 7.69854 5.39713 8.31541C4.78025 8.93229 4.40984 9.77812 4.21296 11.2452C4.01171 12.7444 4.0088 14.719 4.0088 17.5C4.0088 20.281 4.01171 22.2571 4.21296 23.7562C4.40984 25.2219 4.78025 26.0677 5.39713 26.6846C6.014 27.3015 6.85984 27.6719 8.32692 27.8687C9.82609 28.07 11.8007 28.0729 14.5817 28.0729H18.9567C21.7378 28.0729 23.7138 28.07 25.213 27.8687C26.6786 27.6719 27.5244 27.3015 28.1413 26.6846C28.869 25.9583 29.2453 24.9258 29.4115 22.9687ZM7.65609 11.6667C7.65609 11.3766 7.77132 11.0984 7.97644 10.8933C8.18156 10.6881 8.45976 10.5729 8.74984 10.5729H14.5832C14.8733 10.5729 15.1514 10.6881 15.3566 10.8933C15.5617 11.0984 15.6769 11.3766 15.6769 11.6667C15.6769 11.9567 15.5617 12.2349 15.3566 12.4401C15.1514 12.6452 14.8733 12.7604 14.5832 12.7604H8.74984C8.45976 12.7604 8.18156 12.6452 7.97644 12.4401C7.77132 12.2349 7.65609 11.9567 7.65609 11.6667ZM30.514 14.2187H26.5853C24.5086 14.2187 22.9671 15.7631 22.9671 17.5C22.9671 19.2369 24.5086 20.7812 26.5838 20.7812H30.5475C30.848 20.7623 30.9778 20.5596 30.988 20.4371V14.5629C30.9778 14.4404 30.848 14.2377 30.5475 14.2202L30.514 14.2187Z" fill="#49A35B"/>
</svg>
